<svg width="90" height="85" viewBox="0 0 90 85" fill="none" xmlns="http://www.w3.org/2000/svg">
<path d="M45.7824 57.3017L37.1322 30.1462C35.9789 26.5254 33.8643 23.8406 30.7884 22.0917C27.7774 20.2171 24.0804 19.9779 19.6974 21.3741C15.3144 22.7702 12.3892 25.1188 10.9219 28.4199C9.51953 31.5953 9.39502 34.9934 10.5484 38.6142L19.1985 65.7698C20.3215 69.2952 22.3885 71.9952 25.3995 73.8698C28.5057 75.714 32.2504 75.938 36.6334 74.5418C41.0164 73.1457 43.8939 70.8122 45.2659 67.5415C46.7332 64.2405 46.9054 60.8272 45.7824 57.3017ZM36.3494 60.3065L27.6993 33.1509C27.3654 32.1028 26.7587 31.3515 25.8793 30.897C25.0952 30.4121 24.0361 30.3821 22.7021 30.8071C21.3682 31.232 20.4739 31.8842 20.0194 32.7636C19.6602 33.6127 19.6475 34.5613 19.9814 35.6094L28.6315 62.765C28.935 63.7178 29.494 64.4843 30.3085 65.0644C31.1879 65.519 32.2946 65.5338 33.6286 65.1089C34.9626 64.6839 35.8091 64.0469 36.1684 63.1978C36.5926 62.2231 36.6529 61.2594 36.3494 60.3065ZM14.9108 67.1356L6.26064 39.98C4.74308 35.2158 4.97767 30.6807 6.96443 26.3746C9.01611 21.9428 12.8052 18.8467 18.3316 17.0863C23.858 15.326 28.692 15.6753 32.8337 18.1342C37.0403 20.4675 39.9024 24.0162 41.42 28.7804L50.0701 55.9359C51.5877 60.7001 51.3206 65.298 49.2689 69.7298C47.2822 74.0359 43.5256 77.0692 37.9992 78.8296C32.4728 80.5899 27.6063 80.3035 23.3996 77.9702C19.2579 75.5112 16.4283 71.8997 14.9108 67.1356ZM24.3437 64.1308L15.6936 36.9752C14.9349 34.5931 15.0901 32.4447 16.1593 30.5298C17.2286 28.6149 18.9543 27.2781 21.3363 26.5193C23.8137 25.7302 25.9946 25.8226 27.8791 26.7966C29.8589 27.7402 31.2282 29.4031 31.987 31.7851L40.6371 58.9407C41.3959 61.3228 41.2406 63.4712 40.1714 65.3861C39.1974 67.2706 37.4718 68.6074 34.9944 69.3966C32.6123 70.1554 30.4314 70.0629 28.4516 69.1193C26.4718 68.1757 25.1025 66.5129 24.3437 64.1308ZM85.0049 61.495L66.7031 4.03952L70.9908 2.67371L89.2926 60.1292L85.0049 61.495ZM75.5719 64.4998L57.2701 7.0443L61.5578 5.67849L79.8596 63.134L75.5719 64.4998ZM42.9598 16.4829L41.594 12.1952L52.1704 8.82619L53.5362 13.1139L42.9598 16.4829ZM45.9646 25.9159L44.5988 21.6282L55.1751 18.2592L56.5409 22.5469L45.9646 25.9159Z" fill="white"/>
</svg>
