<svg width="93" height="86" viewBox="0 0 93 86" fill="none" xmlns="http://www.w3.org/2000/svg">
<path d="M45.9933 58.2295L37.3432 31.0739C36.1898 27.4532 34.0752 24.7683 30.9993 23.0194C27.9883 21.1448 24.2913 20.9056 19.9083 22.3018C15.5253 23.698 12.6001 26.0466 11.1328 29.3476C9.73046 32.5231 9.60595 35.9212 10.7593 39.5419L19.4094 66.6975C20.5324 70.2229 22.5994 72.923 25.6104 74.7975C28.7167 76.6417 32.4613 76.8657 36.8443 75.4696C41.2273 74.0734 44.1048 71.74 45.4768 68.4693C46.9441 65.1682 47.1163 61.7549 45.9933 58.2295ZM36.5603 61.2343L27.9102 34.0787C27.5763 33.0306 26.9697 32.2793 26.0902 31.8247C25.3061 31.3399 24.247 31.3099 22.9131 31.7348C21.5791 32.1597 20.6849 32.8119 20.2304 33.6913C19.8711 34.5404 19.8584 35.489 20.1923 36.5371L28.8424 63.6927C29.1459 64.6455 29.7049 65.412 30.5194 65.9922C31.3989 66.4467 32.5056 66.4615 33.8395 66.0366C35.1735 65.6117 36.0201 64.9747 36.3793 64.1256C36.8035 63.1509 36.8638 62.1871 36.5603 61.2343ZM15.1217 68.0633L6.47158 40.9077C4.95401 36.1436 5.18861 31.6084 7.17536 27.3023C9.22705 22.8705 13.0161 19.7745 18.5425 18.0141C24.0689 16.2537 28.9029 16.603 33.0446 19.0619C37.2513 21.3952 40.1133 24.944 41.6309 29.7081L50.281 56.8637C51.7986 61.6278 51.5315 66.2258 49.4798 70.6575C47.4931 74.9637 43.7365 77.9969 38.2101 79.7573C32.6837 81.5177 27.8172 81.2312 23.6106 78.8979C19.4689 76.439 16.6393 72.8274 15.1217 68.0633ZM24.5547 65.0585L15.9046 37.9029C15.1458 35.5209 15.301 33.3724 16.3703 31.4575C17.4395 29.5427 19.1652 28.2059 21.5473 27.4471C24.0246 26.6579 26.2055 26.7504 28.0901 27.7243C30.0698 28.668 31.4391 30.3308 32.1979 32.7129L40.848 59.8684C41.6068 62.2505 41.4516 64.399 40.3823 66.3138C39.4083 68.1984 37.6827 69.5352 35.2053 70.3243C32.8233 71.0831 30.6423 70.9907 28.6625 70.0471C26.6828 69.1034 25.3135 67.4406 24.5547 65.0585ZM51.2906 52.2916L61.2366 28.658C61.9551 26.9598 62.6066 25.5454 63.1909 24.4146C63.8706 23.2536 64.0587 22.1966 63.7552 21.2438C63.2695 19.7193 62.0263 19.2757 60.0253 19.9131C58.7867 20.3077 58.0678 20.8515 57.8688 21.5446C57.6698 22.2377 57.7524 23.1559 58.1166 24.2993L53.8288 25.6651C52.1899 20.5199 53.8477 17.1581 58.8024 15.5798C60.9939 14.8818 62.8911 14.9071 64.494 15.656C66.1922 16.3744 67.36 17.7341 67.9974 19.7351C68.5133 21.3549 68.4445 22.9511 67.791 24.5236C67.1071 26.0009 66.3562 27.7619 65.5382 29.8066L56.7217 50.5616L51.2906 52.2916ZM63.4391 48.4218L70.0875 33.7099C71.4899 30.5345 72.5393 27.7339 73.2359 25.308C73.9022 22.7869 73.9014 20.4782 73.2337 18.382C72.0803 14.7612 70.074 12.2518 67.2148 10.8536C64.3252 9.36021 60.9271 9.2357 57.0206 10.4801C52.9234 11.7852 50.2061 13.9627 48.8687 17.0125C47.5009 19.967 47.4847 23.5404 48.8202 27.7329L44.5324 29.0987C42.8631 23.8581 42.9894 19.1476 44.9112 14.9671C46.9283 10.7563 50.5095 7.83135 55.6547 6.19238C60.5142 4.64447 64.9865 4.8466 69.0717 6.79877C73.1569 8.75094 75.9431 12.0615 77.4304 16.7303C78.2498 19.3029 78.3222 22.166 77.6475 25.3196C76.9425 28.3778 76.036 31.1329 74.9279 33.5849L69.1561 46.6007L63.4391 48.4218ZM54.3345 62.3418L52.8321 57.6253L86.1335 47.0175L87.6358 51.734L54.3345 62.3418ZM57.2027 71.346L55.7003 66.6295L89.0017 56.0218L90.504 60.7383L57.2027 71.346Z" fill="white"/>
</svg>
