<svg width="96" height="87" viewBox="0 0 96 87" fill="none" xmlns="http://www.w3.org/2000/svg">
<path d="M45.9934 59.0539L37.3433 31.8983C36.19 28.2776 34.0753 25.5927 30.9994 23.8438C27.9884 21.9693 24.2914 21.7301 19.9084 23.1262C15.5254 24.5224 12.6003 26.871 11.133 30.172C9.73058 33.3475 9.60607 36.7456 10.7594 40.3663L19.4095 67.5219C20.5325 71.0474 22.5995 73.7474 25.6105 75.6219C28.7168 77.4661 32.4614 77.6901 36.8444 76.294C41.2274 74.8978 44.1049 72.5644 45.477 69.2937C46.9443 65.9926 47.1164 62.5793 45.9934 59.0539ZM36.5604 62.0587L27.9103 34.9031C27.5764 33.855 26.9698 33.1037 26.0904 32.6491C25.3062 32.1643 24.2471 32.1343 22.9132 32.5592C21.5792 32.9841 20.685 33.6363 20.2305 34.5157C19.8712 35.3648 19.8585 36.3134 20.1924 37.3615L28.8425 64.5171C29.146 65.4699 29.705 66.2364 30.5196 66.8166C31.399 67.2711 32.5057 67.2859 33.8396 66.861C35.1736 66.4361 36.0202 65.7991 36.3794 64.95C36.8036 63.9753 36.8639 63.0115 36.5604 62.0587ZM15.1218 68.8877L6.4717 41.7321C4.95413 36.968 5.18873 32.4328 7.17548 28.1267C9.22717 23.6949 13.0162 20.5989 18.5426 18.8385C24.069 17.0781 28.9031 17.4274 33.0447 19.8863C37.2514 22.2196 40.1135 25.7684 41.631 30.5325L50.2811 57.6881C51.7987 62.4522 51.5316 67.0502 49.48 71.4819C47.4932 75.7881 43.7366 78.8213 38.2102 80.5817C32.6838 82.3421 27.8173 82.0556 23.6107 79.7223C19.469 77.2634 16.6394 73.6518 15.1218 68.8877ZM24.5548 65.8829L15.9047 38.7273C15.1459 36.3453 15.3011 34.1968 16.3704 32.2819C17.4397 30.3671 19.1653 29.0303 21.5474 28.2715C24.0247 27.4823 26.2057 27.5748 28.0902 28.5487C30.07 29.4924 31.4393 31.1552 32.198 33.5373L40.8481 60.6929C41.6069 63.0749 41.4517 65.2234 40.3824 67.1383C39.4085 69.0228 37.6828 70.3596 35.2055 71.1487C32.8234 71.9075 30.6425 71.8151 28.6627 70.8715C26.6829 69.9278 25.3136 68.265 24.5548 65.8829ZM44.1366 31.1512C42.4673 25.9107 42.8339 20.9662 45.2363 16.3177C47.6388 11.6692 51.6032 8.46482 57.1296 6.70444C62.9419 4.85302 68.0769 5.15889 72.5348 7.62205C77.0577 9.95958 80.0779 13.5104 81.5954 18.2746C82.3542 20.6566 82.6517 23.2381 82.4881 26.019L77.9589 24.1557C77.9673 23.5233 77.9454 22.7956 77.8932 21.9727C77.841 21.1497 77.6934 20.3571 77.4506 19.5948C76.2973 15.9741 74.0245 13.2871 70.6324 11.534C67.21 9.68556 63.1643 9.50495 58.4954 10.9922C54.1124 12.3883 51.0119 14.8453 49.1938 18.363C47.3454 21.7855 46.9978 25.3071 48.1512 28.9279L44.1366 31.1512ZM54.9989 27.6912C54.3311 25.5949 54.4842 23.6046 55.4582 21.7201C56.4971 19.7099 58.2076 18.3255 60.5897 17.5667C63.067 16.7775 65.248 16.87 67.1325 17.8439C69.1123 18.7876 70.4057 20.2122 71.0127 22.1178C71.1644 22.5943 71.2534 23.0382 71.2795 23.4497C71.4009 23.8308 71.4747 24.2271 71.5008 24.6386L67.0373 24.9584C67.1065 24.5166 67.05 24.0098 66.8679 23.4381C66.3519 21.8183 64.8076 21.4182 62.235 22.2376C60.9963 22.6322 60.1345 23.2216 59.6497 24.0057C59.2601 24.7595 59.1867 25.5176 59.4295 26.2798L54.9989 27.6912ZM76.7517 68.3047C71.2253 70.0651 66.1379 69.7441 61.4894 67.3416C56.841 64.9391 53.6821 61.1176 52.0128 55.8771L56.3005 54.5113C57.5145 58.3226 59.9584 61.2174 63.6322 63.1957C67.3059 65.174 71.239 65.4954 75.4314 64.1599C79.8145 62.7638 82.8846 60.2115 84.642 56.5032C86.4947 52.7646 86.814 48.9896 85.5999 45.1783C84.2948 41.0811 81.8834 38.1235 78.3657 36.3054C74.9128 34.3617 70.8996 34.1183 66.3261 35.5751L64.9603 31.2874C71.4395 29.2235 76.7651 29.4687 80.9372 32.0229C85.1092 34.5771 88.0451 38.5221 89.7447 43.858C91.4141 49.0985 91.0951 54.0279 88.7879 58.646C86.576 63.2337 82.564 66.4533 76.7517 68.3047ZM73.3372 57.5854C70.9551 58.3442 68.7742 58.2518 66.7944 57.3082C64.7843 56.2693 63.4302 54.6541 62.7321 52.4626L67.0198 51.0968C67.293 51.9543 67.8844 52.658 68.7942 53.2078C69.6737 53.6623 70.7327 53.6923 71.9714 53.2977C74.3535 52.5389 75.2756 50.9858 74.7377 48.6383C74.0093 46.3515 72.3587 45.6179 69.7861 46.4373L68.4203 42.1496C70.8977 41.3605 73.0938 41.5006 75.0086 42.5698C76.9884 43.5134 78.3274 45.081 79.0254 47.2725C79.7235 49.464 79.5531 51.5648 78.5142 53.575C77.5402 55.4595 75.8146 56.7963 73.3372 57.5854Z" fill="white"/>
</svg>
