<svg width="98" height="87" viewBox="0 0 98 87" fill="none" xmlns="http://www.w3.org/2000/svg">
<path d="M45.9934 59.7648L37.3433 32.6092C36.19 28.9885 34.0753 26.3037 30.9994 24.5547C27.9884 22.6802 24.2914 22.441 19.9084 23.8371C15.5254 25.2333 12.6003 27.5819 11.133 30.883C9.73058 34.0584 9.60607 37.4565 10.7594 41.0772L19.4095 68.2328C20.5325 71.7583 22.5995 74.4583 25.6105 76.3329C28.7168 78.1771 32.4614 78.4011 36.8444 77.0049C41.2274 75.6088 44.1049 73.2753 45.477 70.0046C46.9443 66.7035 47.1164 63.2903 45.9934 59.7648ZM36.5604 62.7696L27.9103 35.614C27.5764 34.5659 26.9698 33.8146 26.0904 33.3601C25.3062 32.8752 24.2471 32.8452 22.9132 33.2701C21.5792 33.6951 20.685 34.3472 20.2305 35.2267C19.8712 36.0758 19.8585 37.0244 20.1924 38.0725L28.8425 65.2281C29.146 66.1809 29.705 66.9474 30.5196 67.5275C31.399 67.982 32.5057 67.9968 33.8396 67.5719C35.1736 67.147 36.0202 66.51 36.3794 65.6609C36.8036 64.6862 36.8639 63.7224 36.5604 62.7696ZM15.1218 69.5986L6.4717 42.4431C4.95413 37.6789 5.18873 33.1438 7.17548 28.8376C9.22717 24.4059 13.0162 21.3098 18.5426 19.5494C24.069 17.7891 28.9031 18.1383 33.0447 20.5973C37.2514 22.9306 40.1135 26.4793 41.631 31.2434L50.2811 58.399C51.7987 63.1632 51.5316 67.7611 49.48 72.1929C47.4932 76.499 43.7366 79.5323 38.2102 81.2926C32.6838 83.053 27.8173 82.7666 23.6107 80.4332C19.469 77.9743 16.6394 74.3628 15.1218 69.5986ZM24.5548 66.5939L15.9047 39.4383C15.1459 37.0562 15.3011 34.9077 16.3704 32.9929C17.4397 31.078 19.1653 29.7412 21.5474 28.9824C24.0247 28.1933 26.2057 28.2857 28.0902 29.2597C30.07 30.2033 31.4393 31.8661 32.198 34.2482L40.8481 61.4038C41.6069 63.7859 41.4517 65.9343 40.3824 67.8492C39.4085 69.7337 37.6828 71.0705 35.2055 71.8597C32.8234 72.6184 30.6425 72.526 28.6627 71.5824C26.6829 70.6388 25.3136 68.9759 24.5548 66.5939ZM62.0977 40.3092L67.362 4.94312L72.0784 3.44073L66.9571 38.7613L62.0977 40.3092ZM50.6637 43.9514L55.928 8.58527L60.6445 7.08288L55.5232 42.4034L50.6637 43.9514ZM82.5004 64.8231L73.1219 35.3807L77.4096 34.0149L86.7881 63.4573L82.5004 64.8231ZM92.7909 61.5452L83.4124 32.1028L87.7001 30.737L97.0787 60.1794L92.7909 61.5452ZM51.4664 54.8729L50.1006 50.5852L69.3954 44.4391L70.7612 48.7268L51.4664 54.8729ZM54.7444 65.1635L53.3786 60.8757L72.6733 54.7296L74.0391 59.0173L54.7444 65.1635Z" fill="white"/>
</svg>
