<svg width="99" height="88" viewBox="0 0 99 88" fill="none" xmlns="http://www.w3.org/2000/svg">
<path d="M45.9934 59.7609L37.3433 32.6053C36.19 28.9846 34.0753 26.2998 30.9994 24.5508C27.9884 22.6763 24.2914 22.4371 19.9084 23.8332C15.5254 25.2294 12.6003 27.578 11.133 30.8791C9.73058 34.0545 9.60607 37.4526 10.7594 41.0733L19.4095 68.2289C20.5325 71.7544 22.5995 74.4544 25.6105 76.3289C28.7168 78.1731 32.4614 78.3972 36.8444 77.001C41.2274 75.6049 44.1049 73.2714 45.477 70.0007C46.9443 66.6996 47.1164 63.2864 45.9934 59.7609ZM36.5604 62.7657L27.9103 35.6101C27.5764 34.562 26.9698 33.8107 26.0904 33.3562C25.3062 32.8713 24.2471 32.8413 22.9132 33.2662C21.5792 33.6912 20.685 34.3433 20.2305 35.2228C19.8712 36.0719 19.8585 37.0205 20.1924 38.0686L28.8425 65.2241C29.146 66.177 29.705 66.9435 30.5196 67.5236C31.399 67.9781 32.5057 67.9929 33.8396 67.568C35.1736 67.1431 36.0202 66.5061 36.3794 65.657C36.8036 64.6823 36.8639 63.7185 36.5604 62.7657ZM15.1218 69.5947L6.4717 42.4391C4.95413 37.675 5.18873 33.1399 7.17548 28.8337C9.22717 24.402 13.0162 21.3059 18.5426 19.5455C24.069 17.7851 28.9031 18.1344 33.0447 20.5934C37.2514 22.9267 40.1135 26.4754 41.631 31.2395L50.2811 58.3951C51.7987 63.1592 51.5316 67.7572 49.48 72.189C47.4932 76.4951 43.7366 79.5284 38.2102 81.2887C32.6838 83.0491 27.8173 82.7626 23.6107 80.4293C19.469 77.9704 16.6394 74.3589 15.1218 69.5947ZM24.5548 66.59L15.9047 39.4344C15.1459 37.0523 15.3011 34.9038 16.3704 32.989C17.4397 31.0741 19.1653 29.7373 21.5474 28.9785C24.0247 28.1894 26.2057 28.2818 28.0902 29.2558C30.07 30.1994 31.4393 31.8622 32.198 34.2443L40.8481 61.3999C41.6069 63.782 41.4517 65.9304 40.3824 67.8453C39.4085 69.7298 37.6828 71.0666 35.2055 71.8557C32.8234 72.6145 30.6425 72.5221 28.6627 71.5785C26.6829 70.6349 25.3136 68.972 24.5548 66.59ZM46.8413 17.6154L45.4755 13.3277L78.2052 2.90207L79.571 7.18979L46.8413 17.6154ZM49.8461 27.0484L48.4803 22.7607L81.2099 12.3351L82.5757 16.6228L49.8461 27.0484ZM57.3581 50.6309L51.5306 32.3366L55.8183 30.9708L61.6458 49.2651L57.3581 50.6309ZM66.791 47.6261L60.9636 29.3319L65.2513 27.966L71.0788 46.2603L66.791 47.6261ZM57.7107 56.1859L61.9984 54.8201C63.1214 58.3456 65.1884 61.0456 68.1994 62.9201C71.3057 64.7644 75.0503 64.9884 79.4333 63.5922C83.8163 62.1961 86.6938 59.8626 88.0659 56.5919C89.5332 53.2908 89.7053 49.8776 88.5823 46.3521C87.5504 43.1125 85.7498 40.59 83.1807 38.7846C80.5812 36.8839 77.4428 36.2569 73.7656 36.9035L72.3998 32.6157C77.346 31.6699 81.6214 32.407 85.226 34.8271C88.9259 37.2169 91.4739 40.6033 92.87 44.9863C94.3876 49.7504 94.1205 54.3484 92.0689 58.7802C90.0821 63.0863 86.3255 66.1196 80.7991 67.8799C75.2727 69.6403 70.4062 69.3538 66.1996 67.0205C62.0579 64.5616 59.2283 60.9501 57.7107 56.1859ZM67.1437 53.1812L71.4314 51.8153C71.7349 52.7682 72.2939 53.5347 73.1085 54.1148C73.9879 54.5693 75.0946 54.5841 76.4285 54.1592C77.7625 53.7343 78.6091 53.0973 78.9683 52.2482C79.3925 51.2735 79.4528 50.3097 79.1493 49.3569C78.7244 48.0229 77.9921 47.2067 76.9525 46.9082L75.4956 42.3346C79.5151 42.1037 82.1623 43.9892 83.437 47.9911C84.1958 50.3732 84.0406 52.5216 82.9713 54.4365C81.9974 56.321 80.2717 57.6578 77.7944 58.4469C75.4123 59.2057 73.2314 59.1133 71.2516 58.1697C69.2718 57.2261 67.9025 55.5632 67.1437 53.1812Z" fill="white"/>
</svg>
