<svg width="15" height="12" viewBox="0 0 15 12" fill="none" xmlns="http://www.w3.org/2000/svg">
<path d="M0.145508 5.82515C0.145508 5.5301 0.385476 5.28626 0.696819 5.24766L0.783373 5.24234L13.5407 5.24234C13.893 5.24234 14.1786 5.50328 14.1786 5.82515C14.1786 6.1202 13.9386 6.36405 13.6272 6.40264L13.5407 6.40796L0.783373 6.40796C0.43109 6.40796 0.145508 6.14703 0.145508 5.82515Z" fill="white"/>
<path d="M7.94549 1.55679C7.69585 1.32968 7.69498 0.96067 7.94355 0.73258C8.16951 0.525226 8.52384 0.505719 8.77395 0.674517L8.84562 0.730805L13.9911 5.41191C14.2187 5.61899 14.2394 5.9439 14.0532 6.17242L13.9911 6.23787L8.84566 10.9198C8.59604 11.1469 8.19217 11.1461 7.94358 10.918C7.7176 10.7107 7.69774 10.3869 7.88354 10.1591L7.94545 10.0938L12.6368 5.82467L7.94549 1.55679Z" fill="white"/>
</svg>
