<svg width="306" height="247" viewBox="0 0 306 247" fill="none" xmlns="http://www.w3.org/2000/svg">
<path d="M281.717 22.4258V231.914C281.717 232.805 281.618 233.795 281.42 234.686C280.034 241.319 273.995 246.17 266.669 246.17H32.7272C24.4111 246.17 17.679 239.735 17.679 231.815V22.4258H281.717Z" fill="white"/>
<path d="M281.717 23.4158V14.5057C281.717 6.48651 274.886 0.150391 266.669 0.150391H32.7272C24.5101 0.150391 17.679 6.48651 17.679 14.5057V23.4158H281.717Z" fill="#2C4EFF"/>
<path d="M35.1051 13.9117C35.1051 15.6937 33.62 17.1787 31.739 17.1787C29.8579 17.1787 28.3729 15.6937 28.3729 13.9117C28.3729 12.1296 29.8579 10.6446 31.739 10.6446C33.521 10.6446 35.1051 12.1296 35.1051 13.9117ZM54.1134 13.9117C54.1134 15.6937 52.6284 17.1787 50.7474 17.1787C48.8663 17.1787 47.3813 15.6937 47.3813 13.9117C47.3813 12.1296 48.8663 10.6446 50.7474 10.6446C52.6284 10.6446 54.1134 12.1296 54.1134 13.9117ZM44.6092 13.9117C44.6092 15.6937 43.1242 17.1787 41.2432 17.1787C39.3621 17.1787 37.8771 15.6937 37.8771 13.9117C37.8771 12.1296 39.3621 10.6446 41.2432 10.6446C43.0252 10.6446 44.6092 12.1296 44.6092 13.9117Z" fill="white"/>
<path d="M50.2513 84.896C63.3191 84.896 73.9127 74.3024 73.9127 61.2346C73.9127 48.1667 63.3191 37.5731 50.2513 37.5731C37.1834 37.5731 26.5898 48.1667 26.5898 61.2346C26.5898 74.3024 37.1834 84.896 50.2513 84.896Z" fill="#617AFF"/>
<path opacity="0.1" d="M60.2507 54.1067C56.4887 50.3446 50.2515 50.3446 46.4895 54.1067C43.2224 57.3737 42.8264 62.3238 45.0044 65.9869L40.7474 70.244C39.8563 71.135 39.8563 72.62 40.7474 73.511C41.6384 74.4021 43.1234 74.4021 44.0144 73.511L48.1725 69.353C51.9346 71.729 56.9837 71.234 60.2507 67.9669C64.0128 64.1059 64.0128 57.8687 60.2507 54.1067ZM56.9837 64.6999C55.0036 66.6799 51.9346 66.6799 49.9545 64.9969L49.6575 64.6999L49.3605 64.4029C47.6775 62.3238 47.7765 59.3538 49.6575 57.3737C51.6376 55.3937 55.0036 55.3937 56.9837 57.3737C58.9637 59.3538 58.9637 62.6208 56.9837 64.6999Z" fill="black"/>
<path d="M45.1032 52.6217C48.8653 48.8596 55.1024 48.8596 58.8645 52.6217C62.6266 56.3837 62.6266 62.6209 58.8645 66.3829C55.1024 70.145 48.8653 70.145 45.1032 66.3829C41.3412 62.6209 41.3412 56.3837 45.1032 52.6217ZM48.3703 55.7897C46.3903 57.7698 46.3903 61.1358 48.3703 63.1159C50.3503 65.0959 53.7164 65.0959 55.6964 63.1159C57.6765 61.1358 57.6765 57.7698 55.6964 55.7897C53.7164 53.8097 50.3503 53.8097 48.3703 55.7897Z" fill="white"/>
<path d="M39.4606 71.9268C40.3516 72.8178 41.8366 72.8178 42.7276 71.9268L48.3707 66.2837C49.2617 65.3926 49.2617 63.9076 48.3707 63.0166C47.4797 62.1256 45.9947 62.1256 45.1037 63.0166L39.4606 68.6597C38.5695 69.6497 38.5695 71.0357 39.4606 71.9268Z" fill="white"/>
<path d="M139.255 46.9784C139.255 48.9585 138.463 50.8395 137.077 52.1265C135.79 53.4135 133.909 54.3046 131.929 54.3046H87.8728C83.8138 54.3046 80.5467 51.0375 80.5467 46.9784C80.5467 44.9984 81.3387 43.1174 82.7247 41.8303C84.0118 40.5433 85.8928 39.6523 87.8728 39.6523H131.929C135.988 39.7513 139.255 43.0184 139.255 46.9784Z" fill="#BDD6FF"/>
<path d="M182.517 68.6596C182.418 69.3526 181.725 69.8476 180.933 69.8476H83.4166C82.7236 69.8476 82.0306 69.3526 81.9316 68.6596C81.7336 67.7686 82.5256 66.9765 83.3176 66.9765H181.032C182.022 66.9765 182.715 67.7686 182.517 68.6596ZM92.7228 75.8867C92.7228 76.6787 92.0298 77.3717 91.2378 77.3717H83.4166C82.6246 77.3717 81.9316 76.6787 81.9316 75.8867C81.9316 75.0947 82.6246 74.4017 83.4166 74.4017H91.2378C92.1288 74.5007 92.7228 75.0947 92.7228 75.8867ZM82.0306 60.7394C82.1296 60.0464 82.8226 59.5514 83.5156 59.5514H181.032C181.824 59.5514 182.517 60.0464 182.616 60.8384C182.715 61.7295 182.022 62.5215 181.23 62.5215H83.5156C82.5256 62.4225 81.8326 61.6305 82.0306 60.7394Z" fill="#D2E4FF"/>
<path opacity="0.05" d="M281.719 39.8501V140.634H200.835C195.192 140.634 190.538 135.981 190.538 130.338V50.1463C190.538 44.5032 195.093 39.8501 200.835 39.8501H281.719Z" fill="black"/>
<path d="M295.38 136.575H204.893C199.25 136.575 194.596 131.922 194.596 126.279V46.0874C194.596 40.4443 199.25 35.7912 204.893 35.7912H295.38C301.024 35.7912 305.677 40.4443 305.677 46.0874V126.279C305.677 132.021 301.024 136.575 295.38 136.575Z" fill="#BDD6FF"/>
<path d="M250.138 90.242C262.549 90.242 272.611 80.1803 272.611 67.7686C272.611 55.3569 262.549 45.2952 250.138 45.2952C237.726 45.2952 227.664 55.3569 227.664 67.7686C227.664 80.1803 237.726 90.242 250.138 90.242Z" fill="#617AFF"/>
<path d="M231.525 101.627V111.725C231.525 112.517 230.832 113.21 230.04 113.21H209.547C208.755 113.21 208.062 112.517 208.062 111.725V101.627C208.062 100.835 208.755 100.142 209.547 100.142H230.04C230.832 100.241 231.525 100.835 231.525 101.627ZM263.206 101.627V111.725C263.206 112.517 262.513 113.21 261.721 113.21H241.227C240.435 113.21 239.742 112.517 239.742 111.725V101.627C239.742 100.835 240.435 100.142 241.227 100.142H261.721C262.513 100.241 263.206 100.835 263.206 101.627ZM294.985 101.627V111.725C294.985 112.517 294.292 113.21 293.5 113.21H273.007C272.215 113.21 271.522 112.517 271.522 111.725V101.627C271.522 100.835 272.215 100.142 273.007 100.142H293.5C294.292 100.241 294.985 100.835 294.985 101.627ZM208.953 118.359C209.052 117.963 209.448 117.666 209.844 117.666H211.329C211.824 117.666 212.22 118.062 212.22 118.557C212.22 119.052 211.824 119.448 211.329 119.448H209.745C209.25 119.349 208.854 118.854 208.953 118.359ZM231.03 122.814C231.129 123.309 230.733 123.804 230.139 123.804H220.437C219.942 123.804 219.546 123.408 219.546 122.913C219.546 122.418 219.942 122.022 220.437 122.022H230.04C230.535 122.121 230.931 122.418 231.03 122.814ZM215.586 118.458C215.586 117.963 215.982 117.567 216.477 117.567H221.922C222.417 117.567 222.813 117.963 222.813 118.458C222.813 118.953 222.417 119.349 221.922 119.349H216.477C215.982 119.349 215.586 118.953 215.586 118.458ZM225.387 118.458C225.387 117.963 225.783 117.567 226.278 117.567H230.139C230.535 117.567 230.931 117.864 231.03 118.26C231.129 118.755 230.733 119.25 230.139 119.25H226.278C225.783 119.349 225.387 118.953 225.387 118.458ZM208.953 122.814C209.052 122.418 209.448 122.121 209.844 122.121H216.477C216.972 122.121 217.368 122.517 217.368 123.012C217.368 123.507 216.972 123.903 216.477 123.903H209.844C209.25 123.903 208.854 123.408 208.953 122.814ZM241.029 118.359C241.128 117.963 241.524 117.666 241.92 117.666H243.406C243.901 117.666 244.297 118.062 244.297 118.557C244.297 119.052 243.901 119.448 243.406 119.448H241.821C241.326 119.349 240.93 118.854 241.029 118.359ZM263.008 122.814C263.107 123.309 262.711 123.804 262.117 123.804H252.415C251.92 123.804 251.524 123.408 251.524 122.913C251.524 122.418 251.92 122.022 252.415 122.022H262.018C262.612 122.121 263.008 122.418 263.008 122.814ZM247.564 118.458C247.564 117.963 247.96 117.567 248.455 117.567H253.9C254.395 117.567 254.791 117.963 254.791 118.458C254.791 118.953 254.395 119.349 253.9 119.349H248.455C247.96 119.349 247.564 118.953 247.564 118.458ZM257.464 118.458C257.464 117.963 257.86 117.567 258.355 117.567H262.216C262.612 117.567 263.008 117.864 263.107 118.26C263.206 118.755 262.81 119.25 262.216 119.25H258.355C257.86 119.349 257.464 118.953 257.464 118.458ZM241.029 122.814C241.128 122.418 241.524 122.121 241.92 122.121H248.554C249.049 122.121 249.445 122.517 249.445 123.012C249.445 123.507 249.049 123.903 248.554 123.903H241.92C241.326 123.903 240.93 123.408 241.029 122.814ZM273.106 118.359C273.205 117.963 273.601 117.666 273.997 117.666H275.482C275.977 117.666 276.373 118.062 276.373 118.557C276.373 119.052 275.977 119.448 275.482 119.448H273.898C273.403 119.349 273.007 118.854 273.106 118.359ZM295.084 122.814C295.183 123.309 294.787 123.804 294.193 123.804H284.491C283.996 123.804 283.6 123.408 283.6 122.913C283.6 122.418 283.996 122.022 284.491 122.022H294.094C294.688 122.121 294.985 122.418 295.084 122.814ZM279.64 118.458C279.64 117.963 280.036 117.567 280.531 117.567H285.976C286.471 117.567 286.867 117.963 286.867 118.458C286.867 118.953 286.471 119.349 285.976 119.349H280.531C280.036 119.349 279.64 118.953 279.64 118.458ZM289.54 118.458C289.54 117.963 289.936 117.567 290.431 117.567H294.292C294.688 117.567 295.084 117.864 295.183 118.26C295.282 118.755 294.886 119.25 294.292 119.25H290.431C289.936 119.349 289.54 118.953 289.54 118.458ZM273.106 122.814C273.205 122.418 273.601 122.121 273.997 122.121H280.63C281.125 122.121 281.521 122.517 281.521 123.012C281.521 123.507 281.125 123.903 280.63 123.903H273.997C273.403 123.903 273.007 123.408 273.106 122.814Z" fill="white"/>
<path d="M266.373 230.825H199.646C196.874 230.825 194.596 228.548 194.596 225.776V156.177C194.596 153.405 196.874 151.128 199.646 151.128H266.373C269.145 151.128 271.422 153.405 271.422 156.177V225.776C271.422 228.647 269.145 230.825 266.373 230.825Z" fill="#F2CB2A"/>
<path d="M214.694 199.342C214.694 202.708 211.922 205.48 208.556 205.48C205.19 205.48 202.418 202.708 202.418 199.342C202.418 195.976 205.19 193.204 208.556 193.204C212.021 193.204 214.694 195.976 214.694 199.342ZM214.694 215.974C214.694 219.34 211.922 222.113 208.556 222.113C205.19 222.113 202.418 219.34 202.418 215.974C202.418 212.608 205.19 209.836 208.556 209.836C212.021 209.836 214.694 212.608 214.694 215.974ZM214.694 182.71C214.694 186.076 211.922 188.848 208.556 188.848C205.19 188.848 202.418 186.076 202.418 182.71C202.418 179.344 205.19 176.572 208.556 176.572C212.021 176.572 214.694 179.344 214.694 182.71ZM214.694 166.077C214.694 169.444 211.922 172.216 208.556 172.216C205.19 172.216 202.418 169.444 202.418 166.077C202.418 162.711 205.19 159.939 208.556 159.939C212.021 159.84 214.694 162.612 214.694 166.077ZM220.535 217.459H230.039V219.142H220.535V217.459ZM234.593 217.459H242.018V219.142H234.593V217.459ZM245.483 167.464H249.84V169.147H245.483V167.464ZM234.593 200.827H242.018V202.51H234.593V200.827ZM220.535 162.909H263.601V164.592H220.535V162.909ZM220.535 179.542H263.601V181.225H220.535V179.542ZM220.535 196.174H263.601V197.857H220.535V196.174ZM220.535 212.905H263.601V214.588H220.535V212.905ZM220.535 200.827H230.039V202.51H220.535V200.827ZM234.593 167.464H242.018V169.147H234.593V167.464ZM245.483 184.195H249.84V185.878H245.483V184.195ZM220.535 167.464H230.039V169.147H220.535V167.464ZM245.483 200.827H249.84V202.51H245.483V200.827ZM245.483 217.459H249.84V219.142H245.483V217.459ZM234.593 184.195H242.018V185.878H234.593V184.195ZM220.535 184.195H230.039V185.878H220.535V184.195Z" fill="white"/>
<path d="M179.944 162.217V228.746C179.944 230.033 178.756 231.023 177.172 231.023H37.5796C36.0946 231.023 34.8076 230.033 34.8076 228.746V162.217C34.8076 160.93 35.9956 159.94 37.5796 159.94H177.172C178.756 159.841 179.944 160.93 179.944 162.217Z" fill="#D2E4FF"/>
<path d="M44.7076 172.315H170.143V172.81H44.7076V172.315ZM44.7076 182.314H170.143V182.809H44.7076V182.314ZM44.7076 192.313H170.143V192.808H44.7076V192.313ZM44.7076 202.312H170.143V202.807H44.7076V202.312ZM44.7076 212.212H170.143V212.707H44.7076V212.212ZM44.7076 222.212H170.143V222.707H44.7076V222.212Z" fill="#B5CFF4"/>
<path d="M148.66 168.453H155.194V222.508H148.66V168.453Z" fill="#6193F6"/>
<path d="M158.461 186.076H164.995V222.409H158.461V186.076Z" fill="#F2CB2A"/>
<path d="M115.791 198.451H122.325V222.41H115.791V198.451Z" fill="#6193F6"/>
<path d="M125.494 176.869H132.028V222.41H125.494V176.869Z" fill="#F2CB2A"/>
<path d="M82.8243 187.165H89.3584V222.41H82.8243V187.165Z" fill="#6193F6"/>
<path d="M92.6238 181.225H99.1579V222.509H92.6238V181.225Z" fill="#F2CB2A"/>
<path d="M49.9553 197.956H56.4894V222.41H49.9553V197.956Z" fill="#6193F6"/>
<path d="M59.6576 188.155H66.1917V222.41H59.6576V188.155Z" fill="#F2CB2A"/>
<path d="M177.965 144.198H133.117C131.335 144.198 129.85 142.713 129.85 140.931V96.0831C129.85 94.3011 131.335 92.8161 133.117 92.8161H177.965C179.747 92.8161 181.232 94.3011 181.232 96.0831V140.931C181.232 142.713 179.747 144.198 177.965 144.198Z" fill="#6193F6"/>
<path opacity="0.1" d="M179.251 117.566L170.935 125.289C168.856 121.625 165.292 118.952 161.035 117.962C159.847 117.665 158.659 117.566 157.471 117.566C155.293 117.566 153.115 118.061 151.234 118.853L157.57 130.536C157.768 130.932 157.669 131.328 157.273 131.526C157.174 131.625 157.075 131.625 156.976 131.625C156.679 131.625 156.481 131.526 156.283 131.229L149.947 119.447C147.472 120.833 145.393 122.912 144.007 125.289L135.69 117.566C138.067 114.299 141.037 111.527 144.601 109.646L140.938 102.914C140.74 102.518 140.839 102.122 141.235 101.924C141.631 101.726 142.027 101.825 142.225 102.221L145.888 108.953C149.353 107.27 153.313 106.28 157.471 106.28C159.55 106.28 161.629 106.577 163.609 106.973C170.044 108.557 175.588 112.319 179.251 117.566Z" fill="black"/>
<path d="M161.727 106.181C159.747 105.686 157.668 105.488 155.589 105.488C151.134 105.488 146.976 106.577 143.313 108.458C139.452 110.438 136.185 113.31 133.71 116.775L142.026 124.497C143.61 121.824 145.887 119.646 148.659 118.26C150.738 117.171 153.114 116.676 155.589 116.676C156.777 116.676 158.064 116.775 159.153 117.072C163.41 118.062 166.974 120.735 169.053 124.398L177.369 116.676C173.607 111.428 168.063 107.666 161.727 106.181Z" fill="white"/>
<path d="M177.272 116.577L168.956 124.299C166.877 120.636 163.313 117.963 159.056 116.973C157.868 116.676 156.68 116.577 155.492 116.577C153.017 116.577 150.641 117.171 148.562 118.161L148.463 118.062L143.216 108.26C146.879 106.379 151.037 105.29 155.492 105.29C157.571 105.29 159.65 105.587 161.63 105.983C168.065 107.666 173.609 111.428 177.272 116.577Z" fill="#FF7545"/>
<path d="M154.897 130.734C154.6 130.734 154.402 130.635 154.204 130.338L138.958 102.023C138.76 101.627 138.859 101.231 139.255 101.033C139.651 100.835 140.047 100.934 140.245 101.33L155.59 129.645C155.788 130.041 155.69 130.437 155.294 130.635C155.194 130.734 154.996 130.734 154.897 130.734Z" fill="#060405"/>
<path opacity="0.05" d="M124.603 100.934V143.901C124.603 147.069 122.028 149.742 118.761 149.742H17.7795V95.1922H118.86C122.028 95.1922 124.603 97.7663 124.603 100.934Z" fill="black"/>
<path d="M121.731 98.3601V141.327C121.731 144.495 119.157 147.168 115.89 147.168H6.69073C3.52267 147.168 0.849609 144.594 0.849609 141.327V98.3601C0.849609 95.1921 3.42367 92.618 6.69073 92.618H115.989C119.157 92.618 121.731 95.1921 121.731 98.3601Z" fill="#D2E4FF"/>
<path d="M30.4518 101.231V111.23C35.2039 111.23 39.164 115.091 39.164 119.943H49.1632C49.0642 109.547 40.748 101.231 30.4518 101.231Z" fill="white"/>
<path d="M49.0635 119.844C49.0635 130.14 40.7474 138.456 30.4512 138.456C25.4021 138.456 20.848 136.476 17.4819 133.209L24.5111 126.18C26.0951 127.665 28.1741 128.556 30.4512 128.556C35.2033 128.556 39.1633 124.695 39.1633 119.844H49.0635Z" fill="#F2CB2A"/>
<path d="M21.7397 119.844C21.7397 122.319 22.8287 124.596 24.5117 126.18L17.4826 133.209C14.0175 129.843 11.8395 125.091 11.8395 119.844C11.8395 109.547 20.1556 101.231 30.4518 101.231V111.23C25.6007 111.23 21.7397 115.091 21.7397 119.844Z" fill="#FF7545"/>
<path d="M101.535 113.607H58.2711C57.0831 113.607 56.1921 112.716 56.1921 111.528V107.073C56.1921 105.885 57.0831 104.994 58.2711 104.994H101.535C102.723 104.994 103.614 105.885 103.614 107.073V111.528C103.713 112.617 102.723 113.607 101.535 113.607ZM56.1921 119.844H110.94V123.012H56.1921V119.844ZM56.1921 126.774H110.94V129.942H56.1921V126.774ZM86.2886 133.704H89.4567V136.872H86.2886V133.704ZM56.1921 133.704H77.2795V136.872H56.1921V133.704Z" fill="white"/>
<path d="M254.955 62.9227C257.777 60.1002 257.777 55.5241 254.955 52.7016C252.132 49.8791 247.556 49.8791 244.734 52.7016C241.911 55.5241 241.911 60.1002 244.734 62.9227C247.556 65.7452 252.132 65.7452 254.955 62.9227Z" fill="white"/>
<path d="M251.048 68.0597H248.686C244.965 68.0597 241.595 69.5687 239.155 72.0066C238.038 73.1251 237.116 74.4384 236.445 75.8913C235.847 77.1864 236.111 78.7238 237.096 79.7553C239.206 81.9632 241.882 83.6242 244.893 84.5042C246.471 84.9687 248.139 85.2158 249.867 85.2158C251.595 85.2158 253.265 84.9687 254.843 84.5042C257.852 83.6244 260.528 81.964 262.638 79.7578C263.638 78.7115 263.879 77.1531 263.266 75.8415C261.12 71.2443 256.456 68.0597 251.048 68.0597Z" fill="white"/>
</svg>
