<svg width="298" height="277" viewBox="0 0 298 277" fill="none" xmlns="http://www.w3.org/2000/svg">
<g filter="url(#filter0_d_1_559)">
<path d="M94.5877 149.663H20.2526C15.9025 149.663 12.376 146.136 12.376 141.786V24.2878C12.376 19.9376 15.9025 16.4111 20.2526 16.4111H94.5877C98.9378 16.4111 102.464 19.9376 102.464 24.2878V141.786C102.464 146.136 98.9378 149.663 94.5877 149.663Z" fill="white"/>
<path d="M94.5877 17.2049C98.4932 17.2049 101.671 20.3822 101.671 24.2877V141.786C101.671 145.692 98.4932 148.869 94.5877 148.869H20.2527C16.3471 148.869 13.1698 145.692 13.1698 141.786V24.2877C13.1698 20.3822 16.3471 17.2049 20.2527 17.2049H94.5877ZM94.5877 16.4111H20.2527C15.9025 16.4111 12.376 19.9376 12.376 24.2877V141.786C12.376 146.136 15.9025 149.663 20.2527 149.663H94.5877C98.9378 149.663 102.464 146.136 102.464 141.786V24.2877C102.464 19.9376 98.9378 16.4111 94.5877 16.4111Z" fill="#CEDEF2"/>
<path d="M69.0184 55.5438C75.4233 49.1389 75.4233 38.7546 69.0184 32.3498C62.6136 25.9449 52.2293 25.9449 45.8244 32.3498C39.4196 38.7546 39.4196 49.1389 45.8244 55.5438C52.2293 61.9486 62.6136 61.9486 69.0184 55.5438Z" fill="#7830E3"/>
<path d="M61.2534 40.4641C63.3801 38.3374 63.3802 34.8892 61.2534 32.7624C59.1266 30.6357 55.6785 30.6357 53.5517 32.7624C51.4249 34.8892 51.4249 38.3374 53.5517 40.4641C55.6785 42.5909 59.1266 42.5909 61.2534 40.4641Z" fill="white"/>
<path d="M58.3101 44.335H56.53C53.7263 44.335 51.1869 45.472 49.3486 47.3089C48.5066 48.1518 47.812 49.1413 47.3066 50.2361C46.856 51.212 47.0546 52.3704 47.7971 53.1476C49.3867 54.8114 51.4033 56.0629 53.6722 56.726C54.8607 57.076 56.1179 57.2622 57.42 57.2622C58.7221 57.2622 59.9807 57.076 61.1692 56.726C63.4365 56.063 65.4533 54.812 67.043 53.1495C67.7968 52.3612 67.978 51.1869 67.5165 50.1986C65.8989 46.7346 62.3847 44.335 58.3101 44.335Z" fill="white"/>
<path d="M25.5885 90.1363C26.3858 90.1363 27.0322 89.4899 27.0322 88.6926C27.0322 87.8954 26.3858 87.249 25.5885 87.249C24.7912 87.249 24.1449 87.8954 24.1449 88.6926C24.1449 89.4899 24.7912 90.1363 25.5885 90.1363Z" fill="#E8EFF9"/>
<path d="M25.5885 96.6238C26.3858 96.6238 27.0322 95.9775 27.0322 95.1802C27.0322 94.3829 26.3858 93.7366 25.5885 93.7366C24.7912 93.7366 24.1449 94.3829 24.1449 95.1802C24.1449 95.9775 24.7912 96.6238 25.5885 96.6238Z" fill="#E8EFF9"/>
<path d="M25.5885 103.111C26.3858 103.111 27.0322 102.465 27.0322 101.668C27.0322 100.87 26.3858 100.224 25.5885 100.224C24.7912 100.224 24.1449 100.87 24.1449 101.668C24.1449 102.465 24.7912 103.111 25.5885 103.111Z" fill="#E8EFF9"/>
<path d="M25.5885 109.599C26.3858 109.599 27.0322 108.952 27.0322 108.155C27.0322 107.358 26.3858 106.711 25.5885 106.711C24.7912 106.711 24.1449 107.358 24.1449 108.155C24.1449 108.952 24.7912 109.599 25.5885 109.599Z" fill="#E8EFF9"/>
<path d="M25.5885 116.086C26.3858 116.086 27.0322 115.44 27.0322 114.642C27.0322 113.845 26.3858 113.199 25.5885 113.199C24.7912 113.199 24.1449 113.845 24.1449 114.642C24.1449 115.44 24.7912 116.086 25.5885 116.086Z" fill="#E8EFF9"/>
<path d="M73.8322 90.1365H31.9588C31.5601 90.1365 31.1992 89.975 30.938 89.7137C30.6767 89.4524 30.5151 89.0916 30.5151 88.6929C30.5151 88.3086 30.6653 87.9593 30.9102 87.7006C31.1734 87.4227 31.5458 87.2493 31.9588 87.2493H73.8322C74.1772 87.2493 74.494 87.3703 74.7423 87.5722C75.0678 87.837 75.2758 88.2406 75.2758 88.6929C75.2758 89.0916 75.1142 89.4524 74.853 89.7137C74.5918 89.975 74.2308 90.1365 73.8322 90.1365ZM89.5515 96.6239H31.6598C31.3437 96.6239 31.0575 96.4623 30.8504 96.2011C30.6432 95.9398 30.5151 95.5789 30.5151 95.1803C30.5151 94.796 30.6342 94.4467 30.8284 94.188C31.037 93.91 31.3323 93.7367 31.6598 93.7367H89.5515C89.8251 93.7367 90.0762 93.8577 90.2731 94.0596C90.5312 94.3243 90.6961 94.728 90.6961 95.1803C90.6961 95.5789 90.568 95.9398 90.3609 96.2011C90.1538 96.4623 89.8676 96.6239 89.5515 96.6239ZM89.5515 103.111H31.6598C31.3437 103.111 31.0575 102.95 30.8504 102.688C30.6432 102.427 30.5151 102.066 30.5151 101.668C30.5151 101.283 30.6342 100.934 30.8284 100.675C31.037 100.397 31.3323 100.224 31.6598 100.224H89.5515C89.8251 100.224 90.0762 100.345 90.2731 100.547C90.5312 100.812 90.6961 101.215 90.6961 101.668C90.6961 102.066 90.568 102.427 90.3609 102.688C90.1538 102.95 89.8676 103.111 89.5515 103.111ZM89.5515 109.599H31.6598C31.3437 109.599 31.0575 109.437 30.8504 109.176C30.6432 108.915 30.5151 108.554 30.5151 108.155C30.5151 107.771 30.6342 107.421 30.8284 107.163C31.037 106.885 31.3323 106.711 31.6598 106.711H89.5515C89.8251 106.711 90.0762 106.832 90.2731 107.034C90.5312 107.299 90.6961 107.703 90.6961 108.155C90.6961 108.554 90.568 108.915 90.3609 109.176C90.1538 109.437 89.8676 109.599 89.5515 109.599ZM61.3014 116.086H31.6598C31.3437 116.086 31.0575 115.925 30.8504 115.663C30.6432 115.402 30.5151 115.041 30.5151 114.642C30.5151 114.258 30.6342 113.909 30.8284 113.65C31.037 113.372 31.3323 113.199 31.6598 113.199H61.3014C61.575 113.199 61.8261 113.32 62.023 113.522C62.2811 113.787 62.446 114.19 62.446 114.642C62.446 115.041 62.3179 115.402 62.1108 115.663C61.9036 115.925 61.6175 116.086 61.3014 116.086Z" fill="#E8EFF9"/>
<path d="M71.0086 69.9542H43.8325C43.4338 69.9542 43.073 69.7926 42.8117 69.5313C42.5504 69.2701 42.3889 68.9092 42.3889 68.5105C42.3889 68.1262 42.5391 67.7769 42.784 67.5182C43.0471 67.2403 43.4196 67.0669 43.8325 67.0669H71.0086C71.3536 67.0669 71.6703 67.1879 71.9187 67.3899C72.2442 67.6546 72.4522 68.0583 72.4522 68.5105C72.4522 68.9092 72.2906 69.2701 72.0294 69.5313C71.7681 69.7926 71.4072 69.9542 71.0086 69.9542ZM76.3648 75.7681H38.4763C38.0776 75.7681 37.7167 75.6065 37.4555 75.3452C37.1942 75.084 37.0327 74.7231 37.0327 74.3244C37.0327 73.9401 37.1828 73.5908 37.4277 73.3321C37.6909 73.0542 38.0633 72.8808 38.4763 72.8808H76.3648C76.7098 72.8808 77.0266 73.0018 77.2749 73.2038C77.6004 73.4685 77.8084 73.8722 77.8084 74.3244C77.8084 74.7231 77.6468 75.084 77.3856 75.3452C77.1243 75.6065 76.7634 75.7681 76.3648 75.7681ZM89.7445 130.454H25.0966C24.7805 130.454 24.4944 130.293 24.2872 130.032C24.0801 129.77 23.952 129.409 23.952 129.011C23.952 128.626 24.0711 128.277 24.2652 128.018C24.4739 127.74 24.7692 127.567 25.0966 127.567H89.7445C90.018 127.567 90.2692 127.688 90.4661 127.89C90.7242 128.155 90.8891 128.558 90.8891 129.011C90.8891 129.409 90.761 129.77 90.5538 130.032C90.3467 130.293 90.0606 130.454 89.7445 130.454ZM74.7033 138.528H25.0966C24.7805 138.528 24.4944 138.366 24.2872 138.105C24.0801 137.844 23.952 137.483 23.952 137.084C23.952 136.7 24.0711 136.351 24.2652 136.092C24.4739 135.814 24.7692 135.641 25.0966 135.641H74.7033C74.9769 135.641 75.228 135.762 75.4249 135.964C75.683 136.228 75.8479 136.632 75.8479 137.084C75.8479 137.483 75.7198 137.844 75.5127 138.105C75.3056 138.366 75.0194 138.528 74.7033 138.528Z" fill="#E8EFF9"/>
<path d="M215.479 241.634H43.2497C38.8996 241.634 35.3731 238.108 35.3731 233.758V170.631C35.3731 166.281 38.8996 162.755 43.2497 162.755H215.479C219.83 162.755 223.356 166.281 223.356 170.631V233.758C223.356 238.108 219.83 241.634 215.479 241.634Z" fill="white"/>
<path d="M215.479 163.549C219.385 163.549 222.562 166.726 222.562 170.632V233.758C222.562 237.663 219.385 240.841 215.479 240.841H43.2497C39.3442 240.841 36.1669 237.663 36.1669 233.758V170.632C36.1669 166.726 39.3442 163.549 43.2497 163.549H215.479ZM215.479 162.755H43.2497C38.8996 162.755 35.3731 166.281 35.3731 170.632V233.758C35.3731 238.108 38.8996 241.634 43.2497 241.634H215.479C219.83 241.634 223.356 238.108 223.356 233.758V170.632C223.356 166.281 219.83 162.755 215.479 162.755Z" fill="#CEDEF2"/>
<path d="M101.327 205.082H48.8073C48.4086 205.082 48.0477 204.92 47.7865 204.659C47.5252 204.398 47.3636 204.037 47.3636 203.638C47.3636 203.254 47.5138 202.905 47.7587 202.646C48.0219 202.368 48.3943 202.195 48.8073 202.195H101.327C101.672 202.195 101.989 202.316 102.237 202.518C102.562 202.782 102.77 203.186 102.77 203.638C102.77 204.037 102.609 204.398 102.348 204.659C102.086 204.92 101.725 205.082 101.327 205.082ZM117.046 211.569H48.5083C48.1922 211.569 47.906 211.408 47.6989 211.146C47.4918 210.885 47.3636 210.524 47.3636 210.126C47.3636 209.741 47.4827 209.392 47.6769 209.133C47.8855 208.855 48.1808 208.682 48.5083 208.682H117.046C117.32 208.682 117.571 208.803 117.768 209.005C118.026 209.27 118.191 209.673 118.191 210.126C118.191 210.524 118.063 210.885 117.856 211.146C117.648 211.408 117.362 211.569 117.046 211.569ZM117.046 218.057H48.5083C48.1922 218.057 47.906 217.895 47.6989 217.634C47.4918 217.373 47.3636 217.012 47.3636 216.613C47.3636 216.229 47.4827 215.879 47.6769 215.621C47.8855 215.343 48.1808 215.169 48.5083 215.169H117.046C117.32 215.169 117.571 215.29 117.768 215.492C118.026 215.757 118.191 216.161 118.191 216.613C118.191 217.012 118.063 217.373 117.856 217.634C117.648 217.895 117.362 218.057 117.046 218.057ZM117.046 224.544H48.5083C48.1922 224.544 47.906 224.382 47.6989 224.121C47.4918 223.86 47.3636 223.499 47.3636 223.1C47.3636 222.716 47.4827 222.367 47.6769 222.108C47.8855 221.83 48.1808 221.657 48.5083 221.657H117.046C117.32 221.657 117.571 221.778 117.768 221.98C118.026 222.244 118.191 222.648 118.191 223.1C118.191 223.499 118.063 223.86 117.856 224.121C117.648 224.382 117.362 224.544 117.046 224.544ZM88.796 231.031H48.5083C48.1922 231.031 47.906 230.87 47.6989 230.609C47.4918 230.347 47.3636 229.986 47.3636 229.588C47.3636 229.203 47.4827 228.854 47.6769 228.595C47.8855 228.318 48.1808 228.144 48.5083 228.144H88.796C89.0696 228.144 89.3208 228.265 89.5176 228.467C89.7757 228.732 89.9406 229.136 89.9406 229.588C89.9406 229.986 89.8125 230.347 89.6054 230.609C89.3983 230.87 89.1121 231.031 88.796 231.031Z" fill="#E8EFF9"/>
<path d="M194.504 205.082H131.982C131.584 205.082 131.223 204.92 130.962 204.659C130.7 204.398 130.539 204.037 130.539 203.638C130.539 203.254 130.689 202.905 130.934 202.646C131.197 202.368 131.569 202.195 131.982 202.195H194.504C194.849 202.195 195.166 202.316 195.414 202.518C195.74 202.782 195.948 203.186 195.948 203.638C195.948 204.037 195.786 204.398 195.525 204.659C195.264 204.92 194.903 205.082 194.504 205.082ZM210.223 211.569H131.683C131.367 211.569 131.081 211.408 130.874 211.146C130.667 210.885 130.539 210.524 130.539 210.126C130.539 209.741 130.658 209.392 130.852 209.133C131.061 208.855 131.356 208.682 131.683 208.682H210.223C210.497 208.682 210.748 208.803 210.945 209.005C211.203 209.27 211.368 209.673 211.368 210.126C211.368 210.524 211.24 210.885 211.033 211.146C210.826 211.408 210.54 211.569 210.223 211.569ZM210.223 218.057H131.683C131.367 218.057 131.081 217.895 130.874 217.634C130.667 217.373 130.539 217.012 130.539 216.613C130.539 216.229 130.658 215.879 130.852 215.621C131.061 215.343 131.356 215.169 131.683 215.169H210.223C210.497 215.169 210.748 215.29 210.945 215.492C211.203 215.757 211.368 216.161 211.368 216.613C211.368 217.012 211.24 217.373 211.033 217.634C210.826 217.895 210.54 218.057 210.223 218.057ZM210.223 224.544H131.683C131.367 224.544 131.081 224.382 130.874 224.121C130.667 223.86 130.539 223.499 130.539 223.1C130.539 222.716 130.658 222.367 130.852 222.108C131.061 221.83 131.356 221.657 131.683 221.657H210.223C210.497 221.657 210.748 221.778 210.945 221.98C211.203 222.244 211.368 222.648 211.368 223.1C211.368 223.499 211.24 223.86 211.033 224.121C210.826 224.382 210.54 224.544 210.223 224.544ZM181.973 231.031H131.683C131.367 231.031 131.081 230.87 130.874 230.609C130.667 230.347 130.539 229.986 130.539 229.588C130.539 229.203 130.658 228.854 130.852 228.595C131.061 228.318 131.356 228.144 131.683 228.144H181.973C182.247 228.144 182.498 228.265 182.695 228.467C182.953 228.732 183.118 229.136 183.118 229.588C183.118 229.986 182.99 230.347 182.783 230.609C182.576 230.87 182.289 231.031 181.973 231.031Z" fill="#E8EFF9"/>
<path d="M62.2427 193.058C67.8145 190.837 70.5313 184.52 68.3107 178.948C66.0901 173.377 59.7731 170.66 54.2012 172.88C48.6293 175.101 45.9126 181.418 48.1332 186.99C50.3537 192.562 56.6708 195.279 62.2427 193.058Z" fill="#7830E3"/>
<path d="M58.811 183.226H57.6322C55.7756 183.226 54.094 183.979 52.8767 185.195C52.3192 185.754 51.8592 186.409 51.5245 187.134C51.2261 187.78 51.3577 188.547 51.8493 189.062C52.9019 190.163 54.2373 190.992 55.7398 191.431C56.5268 191.663 57.3593 191.786 58.2216 191.786C59.0838 191.786 59.9172 191.663 60.7042 191.431C62.2056 190.992 63.5412 190.164 64.5938 189.063C65.093 188.541 65.213 187.763 64.9074 187.109C63.8362 184.815 61.5092 183.226 58.811 183.226ZM63.0519 181.719C62.2528 179.836 61.7461 177.402 61.7461 177.402L61.7459 177.402C61.4156 175.751 59.9583 174.507 58.21 174.507C56.4618 174.507 55.0045 175.751 54.6742 177.402L54.674 177.402C54.674 177.402 54.1673 179.836 53.3682 181.719H58.21H63.0519Z" fill="white"/>
<path d="M103.15 181.506H75.9744C75.5757 181.506 75.2148 181.344 74.9536 181.083C74.6923 180.822 74.5307 180.461 74.5307 180.062C74.5307 179.678 74.6809 179.328 74.9258 179.07C75.189 178.792 75.5614 178.618 75.9744 178.618H103.15C103.495 178.618 103.812 178.739 104.061 178.941C104.386 179.206 104.594 179.61 104.594 180.062C104.594 180.461 104.432 180.822 104.171 181.083C103.91 181.344 103.549 181.506 103.15 181.506ZM113.863 187.32H75.9744C75.5757 187.32 75.2148 187.158 74.9536 186.897C74.6923 186.635 74.5307 186.275 74.5307 185.876C74.5307 185.492 74.6809 185.142 74.9258 184.884C75.189 184.606 75.5614 184.432 75.9744 184.432H113.863C114.208 184.432 114.525 184.553 114.773 184.755C115.098 185.02 115.306 185.424 115.306 185.876C115.306 186.275 115.145 186.635 114.884 186.897C114.622 187.158 114.261 187.32 113.863 187.32Z" fill="#E8EFF9"/>
<path d="M133.755 183.711L132.633 184.301C132.13 184.566 131.541 184.138 131.637 183.578L131.851 182.328C131.89 182.106 131.816 181.879 131.654 181.721L130.746 180.836C130.339 180.439 130.564 179.747 131.127 179.665L132.381 179.483C132.605 179.451 132.798 179.31 132.898 179.107L133.459 177.971C133.711 177.461 134.438 177.461 134.69 177.971L135.251 179.107C135.351 179.31 135.544 179.451 135.768 179.483L137.022 179.665C137.585 179.747 137.81 180.439 137.402 180.836L136.495 181.721C136.333 181.879 136.259 182.106 136.297 182.328L136.512 183.578C136.608 184.138 136.019 184.566 135.516 184.301L134.394 183.711C134.194 183.606 133.955 183.606 133.755 183.711ZM146.882 183.711L145.76 184.301C145.257 184.566 144.668 184.138 144.764 183.578L144.979 182.328C145.017 182.106 144.943 181.879 144.781 181.721L143.874 180.836C143.466 180.439 143.691 179.747 144.254 179.665L145.508 179.483C145.732 179.451 145.925 179.31 146.025 179.107L146.586 177.971C146.838 177.461 147.565 177.461 147.817 177.971L148.378 179.107C148.478 179.31 148.671 179.451 148.895 179.483L150.149 179.665C150.712 179.747 150.937 180.439 150.53 180.836L149.622 181.721C149.46 181.879 149.386 182.106 149.425 182.328L149.639 183.578C149.735 184.138 149.146 184.566 148.643 184.301L147.521 183.711C147.321 183.606 147.082 183.606 146.882 183.711ZM160.009 183.711L158.888 184.301C158.384 184.566 157.795 184.138 157.892 183.578L158.106 182.328C158.144 182.106 158.07 181.879 157.908 181.721L157.001 180.836C156.593 180.439 156.818 179.747 157.381 179.665L158.636 179.483C158.859 179.451 159.052 179.31 159.152 179.107L159.713 177.971C159.965 177.461 160.693 177.461 160.944 177.971L161.505 179.107C161.605 179.31 161.799 179.451 162.022 179.483L163.276 179.665C163.839 179.747 164.064 180.439 163.657 180.836L162.749 181.721C162.588 181.879 162.514 182.106 162.552 182.328L162.766 183.578C162.862 184.138 162.274 184.566 161.77 184.301L160.648 183.711C160.448 183.606 160.209 183.606 160.009 183.711ZM173.137 183.711L172.015 184.301C171.511 184.566 170.923 184.138 171.019 183.578L171.233 182.328C171.271 182.106 171.198 181.879 171.036 181.721L170.128 180.836C169.721 180.439 169.946 179.747 170.509 179.665L171.763 179.483C171.986 179.451 172.18 179.31 172.28 179.107L172.841 177.971C173.092 177.461 173.82 177.461 174.072 177.971L174.633 179.107C174.733 179.31 174.926 179.451 175.15 179.483L176.404 179.665C176.967 179.747 177.192 180.439 176.784 180.836L175.877 181.721C175.715 181.879 175.641 182.106 175.679 182.328L175.893 183.578C175.99 184.138 175.401 184.566 174.897 184.301L173.776 183.711C173.576 183.606 173.337 183.606 173.137 183.711ZM186.264 183.711L185.142 184.301C184.639 184.566 184.05 184.138 184.146 183.578L184.36 182.328C184.399 182.106 184.325 181.879 184.163 181.721L183.255 180.836C182.848 180.439 183.073 179.747 183.636 179.665L184.89 179.483C185.114 179.451 185.307 179.31 185.407 179.107L185.968 177.971C186.22 177.461 186.947 177.461 187.199 177.971L187.76 179.107C187.86 179.31 188.053 179.451 188.277 179.483L189.531 179.665C190.094 179.747 190.319 180.439 189.911 180.836L189.004 181.721C188.842 181.879 188.768 182.106 188.806 182.328L189.021 183.578C189.117 184.138 188.528 184.566 188.025 184.301L186.903 183.711C186.703 183.606 186.464 183.606 186.264 183.711Z" fill="#FFCA28"/>
<path d="M192.782 149.663H118.447C114.097 149.663 110.57 146.137 110.57 141.786V24.288C110.57 19.9379 114.097 16.4114 118.447 16.4114H192.782C197.132 16.4114 200.659 19.9379 200.659 24.288V141.786C200.659 146.137 197.132 149.663 192.782 149.663Z" fill="white"/>
<path d="M192.782 17.2051C196.688 17.2051 199.865 20.3825 199.865 24.288V141.786C199.865 145.692 196.688 148.869 192.782 148.869H118.447C114.542 148.869 111.364 145.692 111.364 141.786V24.288C111.364 20.3825 114.542 17.2051 118.447 17.2051H192.782ZM192.782 16.4114H118.447C114.097 16.4114 110.57 19.9379 110.57 24.288V141.786C110.57 146.137 114.097 149.663 118.447 149.663H192.782C197.132 149.663 200.659 146.137 200.659 141.786V24.288C200.659 19.9379 197.132 16.4114 192.782 16.4114Z" fill="#CEDEF2"/>
<path d="M167.214 55.544C173.618 49.1392 173.618 38.7549 167.214 32.35C160.809 25.9452 150.424 25.9452 144.02 32.35C137.615 38.7549 137.615 49.1392 144.02 55.544C150.424 61.9489 160.809 61.9489 167.214 55.544Z" fill="#7830E3"/>
<path d="M156.505 44.3353H154.725C151.921 44.3353 149.382 45.4723 147.544 47.3092C146.702 48.1521 146.007 49.1417 145.502 50.2364C145.051 51.2123 145.25 52.3708 145.992 53.148C147.582 54.8117 149.598 56.0632 151.867 56.7263C153.056 57.0763 154.313 57.2625 155.615 57.2625C156.917 57.2625 158.176 57.0763 159.364 56.7263C161.631 56.0634 163.648 54.8123 165.238 53.1498C165.992 52.3615 166.173 51.1872 165.711 50.1989C164.094 46.7349 160.58 44.3353 156.505 44.3353ZM162.91 42.0597C161.703 39.2165 160.938 35.5399 160.938 35.5399L160.937 35.5398C160.438 33.0464 158.238 31.1677 155.598 31.1677C152.958 31.1677 150.757 33.0464 150.258 35.5398L150.258 35.5399C150.258 35.5399 149.493 39.2165 148.286 42.0597H155.598H162.91Z" fill="white"/>
<path d="M123.783 90.1365C124.58 90.1365 125.227 89.4902 125.227 88.6929C125.227 87.8956 124.58 87.2493 123.783 87.2493C122.986 87.2493 122.34 87.8956 122.34 88.6929C122.34 89.4902 122.986 90.1365 123.783 90.1365Z" fill="#E8EFF9"/>
<path d="M123.783 96.6241C124.58 96.6241 125.227 95.9777 125.227 95.1804C125.227 94.3831 124.58 93.7368 123.783 93.7368C122.986 93.7368 122.34 94.3831 122.34 95.1804C122.34 95.9777 122.986 96.6241 123.783 96.6241Z" fill="#E8EFF9"/>
<path d="M123.783 103.111C124.58 103.111 125.227 102.465 125.227 101.668C125.227 100.87 124.58 100.224 123.783 100.224C122.986 100.224 122.34 100.87 122.34 101.668C122.34 102.465 122.986 103.111 123.783 103.111Z" fill="#E8EFF9"/>
<path d="M123.783 109.599C124.58 109.599 125.227 108.953 125.227 108.155C125.227 107.358 124.58 106.712 123.783 106.712C122.986 106.712 122.34 107.358 122.34 108.155C122.34 108.953 122.986 109.599 123.783 109.599Z" fill="#E8EFF9"/>
<path d="M123.783 116.086C124.58 116.086 125.227 115.44 125.227 114.643C125.227 113.845 124.58 113.199 123.783 113.199C122.986 113.199 122.34 113.845 122.34 114.643C122.34 115.44 122.986 116.086 123.783 116.086Z" fill="#E8EFF9"/>
<path d="M172.027 90.1368H130.153C129.755 90.1368 129.394 89.9752 129.133 89.7139C128.871 89.4527 128.71 89.0918 128.71 88.6931C128.71 88.3088 128.86 87.9595 129.105 87.7009C129.368 87.4229 129.74 87.2495 130.153 87.2495H172.027C172.372 87.2495 172.689 87.3706 172.937 87.5725C173.262 87.8372 173.47 88.2409 173.47 88.6931C173.47 89.0918 173.309 89.4527 173.048 89.7139C172.786 89.9752 172.425 90.1368 172.027 90.1368ZM187.746 96.6242H129.854C129.538 96.6242 129.252 96.4626 129.045 96.2014C128.838 95.9401 128.71 95.5792 128.71 95.1805C128.71 94.7962 128.829 94.4469 129.023 94.1883C129.232 93.9103 129.527 93.7369 129.854 93.7369H187.746C188.02 93.7369 188.271 93.8579 188.468 94.0599C188.726 94.3246 188.891 94.7283 188.891 95.1805C188.891 95.5792 188.763 95.9401 188.556 96.2014C188.348 96.4626 188.062 96.6242 187.746 96.6242ZM187.746 103.112H129.854C129.538 103.112 129.252 102.95 129.045 102.689C128.838 102.427 128.71 102.067 128.71 101.668C128.71 101.284 128.829 100.934 129.023 100.676C129.232 100.398 129.527 100.224 129.854 100.224H187.746C188.02 100.224 188.271 100.345 188.468 100.547C188.726 100.812 188.891 101.216 188.891 101.668C188.891 102.067 188.763 102.427 188.556 102.689C188.348 102.95 188.062 103.112 187.746 103.112ZM187.746 109.599H129.854C129.538 109.599 129.252 109.437 129.045 109.176C128.838 108.915 128.71 108.554 128.71 108.155C128.71 107.771 128.829 107.422 129.023 107.163C129.232 106.885 129.527 106.712 129.854 106.712H187.746C188.02 106.712 188.271 106.833 188.468 107.035C188.726 107.299 188.891 107.703 188.891 108.155C188.891 108.554 188.763 108.915 188.556 109.176C188.348 109.437 188.062 109.599 187.746 109.599ZM159.496 116.086H129.854C129.538 116.086 129.252 115.925 129.045 115.664C128.838 115.402 128.71 115.041 128.71 114.643C128.71 114.258 128.829 113.909 129.023 113.65C129.232 113.372 129.527 113.199 129.854 113.199H159.496C159.77 113.199 160.021 113.32 160.218 113.522C160.476 113.787 160.641 114.19 160.641 114.643C160.641 115.041 160.513 115.402 160.305 115.664C160.098 115.925 159.812 116.086 159.496 116.086Z" fill="#E8EFF9"/>
<path d="M169.203 69.9544H142.027C141.628 69.9544 141.267 69.7928 141.006 69.5316C140.745 69.2703 140.583 68.9094 140.583 68.5108C140.583 68.1264 140.733 67.7772 140.978 67.5185C141.241 67.2405 141.614 67.0671 142.027 67.0671H169.203C169.548 67.0671 169.865 67.1882 170.113 67.3901C170.439 67.6548 170.647 68.0585 170.647 68.5108C170.647 68.9094 170.485 69.2703 170.224 69.5316C169.963 69.7928 169.602 69.9544 169.203 69.9544ZM174.559 75.7683H136.671C136.272 75.7683 135.911 75.6067 135.65 75.3455C135.389 75.0842 135.227 74.7233 135.227 74.3247C135.227 73.9403 135.377 73.5911 135.622 73.3324C135.885 73.0544 136.258 72.881 136.671 72.881H174.559C174.904 72.881 175.221 73.0021 175.469 73.204C175.795 73.4687 176.003 73.8724 176.003 74.3247C176.003 74.7233 175.841 75.0842 175.58 75.3455C175.319 75.6067 174.958 75.7683 174.559 75.7683ZM187.939 130.455H123.291C122.975 130.455 122.689 130.293 122.482 130.032C122.274 129.771 122.146 129.41 122.146 129.011C122.146 128.627 122.265 128.277 122.46 128.019C122.668 127.741 122.964 127.567 123.291 127.567H187.939C188.212 127.567 188.464 127.688 188.66 127.89C188.919 128.155 189.083 128.559 189.083 129.011C189.083 129.41 188.955 129.771 188.748 130.032C188.541 130.293 188.255 130.455 187.939 130.455ZM172.898 138.528H123.291C122.975 138.528 122.689 138.367 122.482 138.105C122.274 137.844 122.146 137.483 122.146 137.084C122.146 136.7 122.265 136.351 122.46 136.092C122.668 135.814 122.964 135.641 123.291 135.641H172.898C173.171 135.641 173.422 135.762 173.619 135.964C173.877 136.229 174.042 136.632 174.042 137.084C174.042 137.483 173.914 137.844 173.707 138.105C173.5 138.367 173.214 138.528 172.898 138.528Z" fill="#E8EFF9"/>
<path d="M219.937 123.951C218.03 126.032 214.753 126.038 212.84 123.963C203.021 113.311 188.013 97.4453 186.783 96.8187C184.035 95.4207 182.142 93.2223 181.865 92.8356C181.704 92.6107 178.708 91.6403 176.017 90.3534C175.998 90.3446 175.981 90.3371 175.962 90.3282C175.301 90.0074 175.677 89.0077 176.386 89.2013L182.118 90.779L175.381 85.9081C174.787 85.1445 175.682 84.12 176.52 84.6074L183.139 88.4593L177.379 82.1724C176.99 81.3484 178.025 80.5944 178.689 81.2177L185.032 87.1698L181.145 79.711C180.909 78.8173 182.113 78.2915 182.609 79.0698C184.186 81.5507 185.909 84.2777 186.237 84.866C186.864 85.9952 188.202 87.4144 188.473 87.1285C188.149 86.31 187.978 85.0693 187.891 83.7665C187.823 82.7304 189.296 82.4621 189.604 83.4541C190.734 87.0836 191.719 91.416 192.024 92.0542C192.373 92.7785 192.522 94.8323 195.179 96.9439C202.374 102.662 209.12 107.165 215.683 113.578C218.734 108.1 222.421 104.353 222.421 104.353L230.035 112.93L219.937 123.951Z" fill="#FFC5CD"/>
<path d="M247.408 100.493C247.408 100.493 246.666 101.336 245.467 102.674C240.908 107.755 229.725 119.973 227.513 120.106C226.553 120.163 224.955 119.015 223.265 117.375C222.608 116.74 221.939 116.03 221.286 115.288C218.718 112.371 216.427 108.954 216.344 107.563C216.183 104.906 224.842 96.0276 226.462 94.053C228.081 92.0803 231.874 86.9081 237.145 84.0906L247.408 100.493Z" fill="#5777FA"/>
<path d="M245.467 102.674C240.908 107.755 229.725 119.973 227.513 120.105C226.554 120.163 224.955 119.015 223.265 117.375C227.701 111.148 231.312 96.3855 231.312 96.3855L244.468 98.8173L245.467 102.674Z" fill="#435BDB"/>
<path d="M228.19 257.753L222.418 260.695L225.844 265.387L235.98 262.221C235.98 262.221 234.977 260.171 235.028 259.433C235.079 258.696 228.19 257.753 228.19 257.753Z" fill="#FFC5CD"/>
<path d="M235.313 239.935V260.657H235.307L227.812 260.318L227.163 258.279L227.844 257.942L227.842 257.93L227.217 252.788L226.904 250.223L225.729 240.558L235.313 239.935Z" fill="#FFC5CD"/>
<path d="M237.528 266.394L210.904 266.409C212.204 264.169 215.983 263.409 217.882 262.951C220.347 262.356 223.973 258.276 223.973 258.276C225.756 258.871 226.04 261.847 226.04 261.847C226.04 261.847 226.522 262.44 230.205 262.497C233.888 262.554 234.397 260.638 235.644 260.6C236.444 260.574 237.528 266.394 237.528 266.394Z" fill="#5777FA"/>
<path d="M237.528 266.409V268.258C237.528 268.581 237.266 268.843 236.944 268.843H210.516C210.347 267.877 210.514 267.077 210.904 266.409H237.528ZM219.743 264.649C219.658 264.649 219.573 264.612 219.513 264.542L217.865 262.579C217.758 262.452 217.774 262.263 217.901 262.156C218.029 262.049 218.218 262.066 218.325 262.193L219.973 264.155C220.08 264.282 220.063 264.472 219.936 264.578C219.88 264.626 219.811 264.649 219.743 264.649ZM221.824 263.787C221.738 263.787 221.653 263.751 221.594 263.68L219.946 261.718C219.839 261.591 219.855 261.401 219.982 261.295C220.11 261.188 220.299 261.205 220.405 261.332L222.054 263.294C222.161 263.421 222.144 263.611 222.017 263.717C221.961 263.764 221.892 263.787 221.824 263.787Z" fill="#2E234F"/>
<path d="M235.313 249.703V252.641C234.522 252.833 233.22 253.029 231.132 253.075C229.294 253.114 228.046 252.97 227.217 252.788L226.904 250.223L235.313 249.703Z" fill="#D6798E"/>
<path d="M269.008 257.753L263.236 260.695L266.662 265.387L276.799 262.221C276.799 262.221 275.795 260.171 275.846 259.433C275.897 258.696 269.008 257.753 269.008 257.753Z" fill="#FFC5CD"/>
<path d="M276.133 260.655V260.657H276.127C276.127 260.657 276.127 260.657 276.125 260.657L268.63 260.318L267.981 258.279V258.277L266.192 253.348L265.389 251.132L261.552 240.558L271.536 240.099L273.412 248.488L274.051 251.343L276.133 260.655Z" fill="#FFC5CD"/>
<path d="M278.345 266.394L251.721 266.409C253.021 264.169 256.799 263.409 258.699 262.951C261.164 262.356 264.79 258.276 264.79 258.276C266.573 258.871 266.857 261.847 266.857 261.847C266.857 261.847 267.339 262.44 271.022 262.497C274.704 262.554 275.214 260.638 276.461 260.6C277.261 260.574 278.345 266.394 278.345 266.394Z" fill="#5777FA"/>
<path d="M278.346 266.409V268.259C278.346 268.581 278.084 268.843 277.762 268.843H251.334C251.165 267.878 251.332 267.077 251.722 266.409H278.346ZM260.561 264.649C260.476 264.649 260.391 264.613 260.331 264.542L258.683 262.579C258.576 262.452 258.593 262.263 258.72 262.156C258.847 262.05 259.036 262.066 259.143 262.193L260.791 264.156C260.898 264.283 260.881 264.472 260.754 264.579C260.698 264.626 260.63 264.649 260.561 264.649ZM262.642 263.788C262.557 263.788 262.471 263.751 262.412 263.681L260.764 261.718C260.657 261.591 260.673 261.402 260.8 261.295C260.928 261.188 261.117 261.205 261.224 261.332L262.872 263.294C262.979 263.421 262.962 263.611 262.835 263.717C262.779 263.765 262.71 263.788 262.642 263.788Z" fill="#2E234F"/>
<path d="M274.05 251.343C273.252 251.721 271.947 252.242 270.017 252.725C268.308 253.152 267.045 253.304 266.191 253.348L265.387 251.132L273.411 248.488L274.05 251.343Z" fill="#D6798E"/>
<path d="M245.218 186.445C241.932 195.202 239.286 202.683 239.286 204.088C239.288 207.798 239.379 248.787 238.453 250.297C238.325 250.505 237.941 250.691 237.373 250.853C233.835 251.85 223.133 251.864 222.419 250.297C221.589 248.476 216.514 208.344 216.514 202.404C216.514 196.462 229.844 137.685 229.844 137.685L252.893 137.865L257.755 154.24C257.755 154.24 250.62 172.062 245.218 186.445Z" fill="#2E234F"/>
<path d="M239.286 204.088C239.288 207.798 239.379 248.787 238.453 250.297C238.324 250.505 237.94 250.691 237.373 250.853C234.461 225.62 234.585 208.424 235.184 203.667C236.121 196.232 243.637 186.29 243.637 186.29L245.218 186.445C241.931 195.202 239.286 202.683 239.286 204.088Z" fill="#1F1938"/>
<path d="M273.875 149.272C273.875 149.272 266.827 196.822 267.294 203.07C267.761 209.318 277.714 245.591 277.256 247.658C276.798 249.724 263.898 253.518 261.817 251.782C259.736 250.046 245.102 216.069 243.649 205.819C242.196 195.57 241.45 137.685 241.45 137.685L264.09 138.041C270.041 138.134 274.598 143.365 273.875 149.272Z" fill="#2E234F"/>
<path d="M242.109 162.756C242.058 162.756 242.007 162.737 241.969 162.699L240.702 161.465C239.542 160.335 238.857 158.822 238.772 157.205L238.362 149.353C238.357 149.242 238.441 149.148 238.552 149.143C238.662 149.138 238.756 149.222 238.762 149.332L239.172 157.184C239.252 158.7 239.894 160.119 240.982 161.178L242.248 162.412C242.327 162.489 242.329 162.616 242.252 162.695C242.213 162.735 242.161 162.755 242.109 162.756Z" fill="#1F1938"/>
<path d="M242.759 192.56C242.65 192.561 242.561 192.474 242.558 192.364L241.727 154.247C241.724 154.136 241.812 154.045 241.922 154.042C242.031 154.038 242.125 154.128 242.127 154.238L242.959 192.356C242.961 192.466 242.874 192.558 242.763 192.56C242.762 192.56 242.76 192.56 242.759 192.56Z" fill="#1F1938"/>
<path d="M275.749 152.862C273.43 154.765 246.857 157.034 241.782 156.844C236.707 156.655 225.854 154.25 224.477 151.31C224.465 151.283 224.451 151.253 224.439 151.221C224.414 151.156 224.388 151.081 224.362 150.998C223.988 149.68 224.538 147.359 225.389 144.5C225.739 143.317 226.141 142.04 226.551 140.705C227.688 136.991 228.875 132.82 229.15 128.906C229.786 119.902 229.853 90.1985 231.374 88.4454C233.565 85.9227 239.382 81.5004 249.495 80.6951C257.914 80.0244 265.403 82.462 268.511 86.0453C268.937 86.5341 269.463 87.6322 270.039 89.1518C272.316 95.1371 275.385 107.676 276.163 115.446C276.996 123.782 278.07 150.958 275.749 152.862Z" fill="#5777FA"/>
<path d="M260.844 69.2187C259.065 72.4589 255.566 73.9563 253.029 72.5633C250.491 71.1702 249.876 67.4142 251.655 64.1739C253.434 60.9337 256.933 59.4363 259.471 60.8293C262.008 62.2224 262.623 65.9785 260.844 69.2187ZM244.38 58.858C243.189 61.3549 240.2 62.4134 237.703 61.2224C235.206 60.0314 234.147 57.0418 235.338 54.545C236.529 52.0481 239.519 50.9896 242.016 52.1806C244.513 53.3716 245.571 56.3612 244.38 58.858Z" fill="#2E234F"/>
<path d="M255.505 81.1236C255.345 83.9928 249.663 89.7752 246.954 88.8775C244.247 87.9819 243.546 85.5706 244.018 83.5754C244.054 83.4222 244.082 83.2415 244.101 83.0373C244.326 80.614 243.393 75.0629 243.393 75.0629C243.393 75.0629 244.575 73.5987 246.169 71.7852C249.213 68.3178 254.066 63.2872 254.731 65.0581C255.745 67.7555 255.663 78.2545 255.505 81.1236Z" fill="#FFC5CD"/>
<path d="M252.716 74.438C252.716 74.438 250.548 81.4028 244.101 83.0372C244.326 80.6139 243.393 75.0628 243.393 75.0628C243.393 75.0628 244.575 73.5986 246.169 71.7852L252.716 74.438Z" fill="#D6798E"/>
<path d="M255.398 71.3296C253.967 74.3716 245.243 80.4374 242.546 80.0026C239.851 79.5678 237.118 73.8773 236.675 72.5609C236.229 71.2465 236.514 63.1815 236.442 61.7463C236.442 61.7304 236.441 61.7126 236.439 61.6969C236.424 61.3667 236.417 61.0462 236.418 60.7335C236.419 57.9637 237.012 55.8324 237.625 54.37C238.245 52.8903 239.658 51.8911 241.26 51.8082C250.365 51.3372 253.75 55.3331 255.874 59.1452C258.168 63.2635 255.398 71.3296 255.398 71.3296Z" fill="#FFC5CD"/>
<path d="M245.867 65.5995C245.888 66.5538 245.544 67.3353 245.099 67.3449C244.654 67.3544 244.277 66.5885 244.257 65.6341C244.236 64.6797 244.58 63.8983 245.025 63.8887C245.469 63.8791 245.847 64.6451 245.867 65.5995ZM237.671 65.7553C237.689 66.5912 237.367 67.2762 236.953 67.2851C236.538 67.294 236.187 66.6235 236.169 65.7875C236.151 64.9515 236.473 64.2666 236.887 64.2577C237.302 64.2487 237.653 64.9192 237.671 65.7553ZM247.298 62.1217C247.371 62.2333 247.255 62.3721 247.133 62.3192C246.65 62.1111 245.808 61.7859 245.252 61.7808C244.433 61.7732 243.669 61.9282 243.577 61.7664C243.485 61.6047 243.882 60.7271 245.345 60.8342C246.347 60.9075 246.991 61.6567 247.298 62.1217ZM238.024 61.9517C237.91 62.0926 237.219 61.8304 236.439 61.6968C236.424 61.3666 236.417 61.0462 236.418 60.7334C236.424 60.7333 236.432 60.7351 236.438 60.735C237.898 60.8758 238.141 61.8086 238.024 61.9517Z" fill="#2E234F"/>
<path d="M238.679 71.7699C238.363 71.7767 238.085 71.7013 237.902 71.4895C237.42 70.9304 238.067 68.5227 238.962 65.4332C239.189 64.6519 239.384 63.9771 239.459 63.6208C239.482 63.5138 239.587 63.4456 239.694 63.4678C239.801 63.4903 239.869 63.5952 239.846 63.7022C239.769 64.073 239.571 64.7544 239.342 65.5434C238.849 67.2464 237.822 70.79 238.202 71.2309C238.585 71.6741 240.082 71.0137 240.747 70.6246C240.841 70.5694 240.963 70.6009 241.018 70.6954C241.073 70.7897 241.042 70.9108 240.947 70.966C240.771 71.069 239.574 71.7506 238.679 71.7699Z" fill="#D6798E"/>
<path d="M242.99 75.0713C242.595 75.0798 242.209 74.9585 241.837 74.7086C241.194 74.2774 240.782 73.5864 240.635 73.3094C240.598 73.2429 240.579 73.1995 240.579 73.1995C240.557 73.1481 240.557 73.0894 240.58 73.0383C240.603 72.9873 240.646 72.948 240.699 72.9309L245.654 71.3393C245.713 71.3212 245.777 71.3315 245.828 71.3676C245.878 71.4035 245.908 71.4608 245.91 71.5225C245.912 71.5613 245.933 72.4837 245.464 73.3964C245.04 74.2203 244.36 74.7618 243.443 75.0055C243.291 75.0462 243.14 75.0681 242.99 75.0713ZM241.046 73.235C241.205 73.5086 241.558 74.0451 242.058 74.38C242.472 74.6582 242.903 74.7396 243.341 74.6232C244.146 74.4092 244.741 73.9357 245.112 73.2153C245.39 72.6759 245.476 72.1212 245.503 71.8031L241.046 73.235Z" fill="#EA5F61"/>
<path d="M245.712 71.5283C245.712 71.5283 245.739 72.428 245.288 73.3058C244.965 73.9323 244.394 74.5479 243.392 74.8142C242.832 74.9638 242.344 74.8109 241.948 74.5442C241.341 74.1374 240.942 73.4657 240.81 73.2165C240.776 73.1563 240.76 73.1192 240.76 73.1192L245.68 71.5384L245.712 71.5283Z" fill="#911E26"/>
<path d="M245.68 71.5386C245.185 71.972 243.789 73.1307 242.765 73.4224C241.904 73.6667 241.182 73.4079 240.81 73.2167C240.776 73.1565 240.76 73.1194 240.76 73.1194L245.68 71.5386Z" fill="white"/>
<path d="M245.289 73.3059C244.966 73.9325 244.394 74.5481 243.392 74.8144C242.833 74.964 242.345 74.811 241.948 74.5444C242.319 74.2123 242.952 73.715 243.611 73.5294C244.18 73.37 244.826 73.3185 245.289 73.3059Z" fill="#CB4B51"/>
<path d="M247.334 55.1014C245.517 58.9091 240.958 60.5234 237.15 58.7071C233.343 56.8908 231.728 52.3316 233.545 48.5238C235.361 44.7161 239.92 43.1018 243.728 44.9181C247.536 46.7344 249.15 51.2936 247.334 55.1014Z" fill="#2E234F"/>
<path d="M255.883 56.9524C254.438 59.9817 250.811 61.266 247.782 59.821C244.753 58.376 243.469 54.7489 244.914 51.7196C246.359 48.6904 249.986 47.4061 253.015 48.851C256.044 50.2961 257.328 53.9232 255.883 56.9524Z" fill="#2E234F"/>
<path d="M254.304 52.221C252.894 55.1771 249.355 56.4304 246.399 55.0203C243.443 53.6102 242.189 50.0707 243.599 47.1146C245.009 44.1585 248.549 42.9051 251.505 44.3152C254.461 45.7254 255.715 49.2649 254.304 52.221Z" fill="#2E234F"/>
<path d="M261.117 55.1725C260.106 57.2908 257.57 58.1888 255.452 57.1784C253.334 56.168 252.436 53.6318 253.446 51.5136C254.457 49.3954 256.993 48.4974 259.111 49.5078C261.229 50.5182 262.127 53.0544 261.117 55.1725Z" fill="#2E234F"/>
<path d="M257.016 50.5583C256.454 51.737 255.042 52.2368 253.863 51.6745C252.685 51.1122 252.185 49.7008 252.747 48.522C253.309 47.3432 254.721 46.8435 255.9 47.4057C257.078 47.9681 257.578 49.3794 257.016 50.5583ZM261.453 63.5003C259.01 65.732 255.613 65.9905 253.866 64.0778C252.118 62.1649 252.682 58.8051 255.124 56.5735C257.567 54.3418 260.964 54.0833 262.711 55.9961C264.459 57.9089 263.895 61.2687 261.453 63.5003Z" fill="#2E234F"/>
<path d="M257.478 62.7107C259.161 63.6737 258.459 67.5802 256.212 68.7831C255.564 69.1304 253.801 66.5657 254.139 65.0584C254.478 63.5511 255.488 61.5721 257.478 62.7107Z" fill="#FFC5CD"/>
<path d="M253.073 59.7932C253.073 59.7932 249.691 64.7881 254.301 66.7383C254.301 66.7383 254.003 64.1851 254.978 63.1304L253.073 59.7932Z" fill="#2E234F"/>
<path d="M255.038 65.8478C255.029 65.848 255.021 65.8477 255.012 65.8468C254.904 65.8352 254.825 65.7379 254.836 65.6292C254.966 64.4036 255.299 63.5924 255.825 63.2183C256.209 62.945 256.548 63.0138 256.586 63.0226C256.692 63.0475 256.758 63.1538 256.734 63.2602C256.709 63.3658 256.603 63.4315 256.499 63.4086C256.485 63.4063 256.283 63.3719 256.041 63.5504C255.751 63.7646 255.374 64.3064 255.23 65.6708C255.219 65.7709 255.136 65.8457 255.038 65.8478Z" fill="#D6798E"/>
<path d="M275.749 152.862C273.43 154.765 246.857 157.035 241.782 156.845C236.707 156.655 225.854 154.251 224.477 151.31C224.465 151.283 224.451 151.253 224.439 151.221C224.414 151.156 224.388 151.081 224.362 150.998C223.988 149.68 224.538 147.359 225.389 144.5C225.739 143.317 226.141 142.04 226.551 140.705C247.387 142.395 275.329 123.2 275.499 122.773C275.67 122.346 275.575 119.72 275.153 119.491C274.73 119.261 273.013 120.686 271.7 120.273C270.387 119.86 261.544 106.014 258.62 95.2428L270.039 89.1519C272.316 95.1372 275.385 107.676 276.163 115.446C276.996 123.782 278.07 150.958 275.749 152.862Z" fill="#435BDB"/>
<path d="M188.906 93.327L193.885 88.5894L183.451 77.6227L178.472 82.3604L188.906 93.327Z" fill="#EA7C32"/>
<path d="M184.585 95.8114L227.782 141.213L228.498 141.966L230.844 144.428L231.557 145.18L238.105 152.059C241.092 155.202 246.059 155.325 249.199 152.335C252.342 149.348 252.465 144.381 249.475 141.238L242.93 134.359L242.214 133.61L239.872 131.145L239.156 130.392L195.959 84.9902C194.404 83.3557 191.815 83.2913 190.181 84.8464L184.729 90.0334C183.095 91.5886 183.03 94.1768 184.585 95.8114Z" fill="#FB9550"/>
<path d="M250.29 151.045C249.983 151.504 249.617 151.937 249.198 152.336C246.059 155.326 241.093 155.202 238.104 152.058L231.556 145.179L230.845 144.428L228.499 141.966L227.784 141.213L184.585 95.8106C183.032 94.1769 183.096 91.5894 184.729 90.0338L185.863 88.9551C184.893 90.4978 185.052 92.5587 186.364 93.9394L229.563 139.342L230.278 140.095L232.624 142.557L233.335 143.308L239.883 150.187C242.662 153.11 247.151 153.423 250.29 151.045Z" fill="#DD722A"/>
<path opacity="0.5" d="M182.193 78.6783C196.665 64.2063 196.665 40.7425 182.193 26.2704C167.721 11.7984 144.257 11.7984 129.785 26.2704C115.313 40.7425 115.313 64.2063 129.785 78.6783C144.257 93.1503 167.721 93.1503 182.193 78.6783Z" fill="white"/>
<path d="M114.305 50.9277C113.742 73.531 131.607 92.3073 154.21 92.8698C176.813 93.4323 195.593 75.5678 196.156 52.9645C196.718 30.3612 178.85 11.5815 156.247 11.019C133.644 10.4566 114.867 28.3244 114.305 50.9277ZM118.182 51.0242C118.691 30.5639 135.69 14.3906 156.15 14.8997C176.611 15.4088 192.784 32.4077 192.275 52.8679C191.766 73.3282 174.767 89.5015 154.307 88.9924C133.846 88.4833 117.673 71.4844 118.182 51.0242Z" fill="#FB9550"/>
<path d="M230.844 144.428L231.557 145.18L242.931 134.359L242.214 133.61L230.844 144.428Z" fill="#EA7C32"/>
<path d="M239.156 130.392L227.783 141.213L228.499 141.966L239.872 131.145L239.156 130.392Z" fill="#EA7C32"/>
<path d="M291.027 125.715C279.111 132.413 259.387 142.942 258.384 144.138C256.404 146.502 253.837 147.853 253.398 148.036C253.143 148.142 251.525 150.844 249.666 153.177C249.653 153.194 249.642 153.208 249.63 153.225C249.168 153.797 248.279 153.206 248.626 152.559L251.451 147.328L245.192 152.799C244.314 153.206 243.517 152.104 244.18 151.396L249.42 145.812L242 150.013C241.11 150.207 240.607 149.03 241.364 148.522L248.588 143.677L240.447 145.79C239.523 145.82 239.281 144.528 240.151 144.22C242.923 143.24 245.967 142.173 246.614 141.986C247.855 141.628 249.538 140.643 249.32 140.315C248.45 140.447 247.203 140.335 245.914 140.127C244.889 139.96 244.958 138.466 245.994 138.388C249.784 138.101 254.227 138.115 254.918 137.96C255.702 137.783 257.737 138.099 260.391 135.984C267.578 130.257 280.4 121.132 281.886 120.399C281.155 119.616 280.498 118.895 279.907 118.23C278.816 117.001 277.954 115.969 277.274 115.111C275.175 112.46 274.817 111.475 274.817 111.475L283.811 104.746L286.873 109.595L288.546 112.246L292.75 118.906C294.229 121.25 293.445 124.357 291.027 125.715Z" fill="#FFC5CD"/>
<path d="M288.546 112.246C287.913 113.142 286.721 114.454 284.569 115.756C282.571 116.966 280.974 117.754 279.907 118.23C278.816 117.001 277.954 115.968 277.274 115.111L286.872 109.595L288.546 112.246Z" fill="#D6798E"/>
<path d="M261.238 81.8479C271.558 84.9143 275.532 86.5579 277.274 89.1518C279.017 91.7457 289.245 105.737 289.402 108.355C289.558 110.974 277.239 118.446 275.027 118.056C272.814 117.667 259.655 98.6819 258.62 95.2427C255.949 86.3616 261.238 81.8479 261.238 81.8479Z" fill="#5777FA"/>
<path d="M22.2041 184.382H9.74548C7.07823 184.382 4.91602 182.219 4.91602 179.552V167.094C4.91602 164.426 7.07823 162.264 9.74548 162.264H22.2041C24.8713 162.264 27.0335 164.426 27.0335 167.094V179.552C27.0335 182.219 24.8713 184.382 22.2041 184.382Z" fill="#FFD54F"/>
<path d="M18.9512 171.638C19.6266 169.989 18.8369 168.104 17.1874 167.429C15.5378 166.753 13.6531 167.543 12.9778 169.193C12.3024 170.842 13.0921 172.727 14.7416 173.402C16.3911 174.078 18.2759 173.288 18.9512 171.638Z" fill="white"/>
<path d="M16.5018 174.991H15.4468C13.7854 174.991 12.2805 175.665 11.1911 176.754C10.4547 177.491 9.90845 178.418 9.6322 179.455L22.3161 179.457C22.3168 179.456 22.317 179.455 22.3167 179.454C21.6305 176.884 19.2871 174.991 16.5018 174.991Z" fill="white"/>
<path d="M227.8 24.2441H213.747C212.247 24.2441 211.028 25.464 211.028 26.9634V41.0163C211.028 42.5158 212.247 43.7356 213.747 43.7356H227.8C229.299 43.7356 230.519 42.5158 230.519 41.0163V26.9634C230.519 25.464 229.299 24.2441 227.8 24.2441Z" fill="#4ED066"/>
<path d="M218.914 39.2846C218.589 39.2846 218.284 39.1304 218.09 38.869L215.501 35.3646C215.165 34.9095 215.261 34.268 215.716 33.9317C216.171 33.5954 216.813 33.6917 217.149 34.1468L218.914 36.5357L224.396 29.1108C224.732 28.6558 225.374 28.559 225.829 28.8952C226.284 29.2313 226.381 29.8727 226.045 30.328L219.739 38.8687C219.546 39.1302 219.24 39.2845 218.914 39.2846C218.915 39.2846 218.914 39.2846 218.914 39.2846Z" fill="white"/>
</g>
<defs>
<filter id="filter0_d_1_559" x="0.916016" y="11.0061" width="296.582" height="265.837" filterUnits="userSpaceOnUse" color-interpolation-filters="sRGB">
<feFlood flood-opacity="0" result="BackgroundImageFix"/>
<feColorMatrix in="SourceAlpha" type="matrix" values="0 0 0 0 0 0 0 0 0 0 0 0 0 0 0 0 0 0 127 0" result="hardAlpha"/>
<feOffset dy="4"/>
<feGaussianBlur stdDeviation="2"/>
<feComposite in2="hardAlpha" operator="out"/>
<feColorMatrix type="matrix" values="0 0 0 0 0 0 0 0 0 0 0 0 0 0 0 0 0 0 0.25 0"/>
<feBlend mode="normal" in2="BackgroundImageFix" result="effect1_dropShadow_1_559"/>
<feBlend mode="normal" in="SourceGraphic" in2="effect1_dropShadow_1_559" result="shape"/>
</filter>
</defs>
</svg>
