<svg width="362" height="240" viewBox="0 0 362 240" fill="none" xmlns="http://www.w3.org/2000/svg">
<g clip-path="url(#clip0_1_324)">
<path d="M27.6589 67.3984C27.6052 67.1298 26.9615 64.1752 22.4192 64.6765C22.4192 64.6765 24.6725 64.6228 25.2089 65.5361C25.2089 65.5361 23.528 64.5512 22.3477 65.1063C21.1674 65.6793 20.7561 67.9356 20.8634 68.6518C20.9528 69.3681 21.9722 71.5527 22.7948 71.6422C23.0988 71.678 23.4385 71.6064 23.7426 71.499C23.5816 71.8571 23.4207 72.2511 23.2955 72.6808C22.0258 76.6561 24.4221 80.0046 25.8885 79.3779C26.8363 78.984 27.3549 80.6135 27.3549 80.6135L35.7598 71.5169C35.724 71.5348 31.1818 64.8019 27.6589 67.3984Z" fill="#2C3A64"/>
<path d="M38.6032 176.969L36.5645 177.739C36.5645 177.739 27.6947 165.419 26.6038 154.586C26.4071 152.652 26.4786 150.772 26.8899 149.053C26.8899 149.053 26.8005 148.551 26.6575 147.674C26.5859 147.262 26.4965 146.778 26.4071 146.205C26.121 144.558 25.7276 142.284 25.2626 139.705C24.2254 133.778 22.8663 126.186 21.8112 120.617L22.3656 120.438L28.3206 118.522L29.5545 114.6L33.9894 113.436C33.9894 113.436 34.973 115.37 35.8671 124.538C36.028 125.738 36.1711 127.063 36.2963 128.496C36.6361 132.883 36.6718 138.327 35.8671 144.558C35.6704 146.152 35.4021 147.799 35.0803 149.482C34.8478 150.718 34.812 152.401 34.9014 154.353C35.3485 163.181 38.6032 176.969 38.6032 176.969Z" fill="#2B478B"/>
<path d="M36.2784 128.478L26.6575 147.638C26.5859 147.226 26.4965 146.743 26.4071 146.17C26.121 144.522 25.7275 142.248 25.2626 139.67C24.2254 133.743 22.8663 126.15 21.8112 120.581L22.3656 120.402L28.3206 118.486L29.5545 114.565L33.9894 113.401C33.9894 113.401 34.973 115.335 35.8671 124.503C36.0102 125.72 36.1532 127.046 36.2784 128.478Z" fill="#233862"/>
<path d="M32.0402 115.872L31.8256 113.956C28.0881 114.941 18.1095 111.18 18.1095 111.18C18.1095 111.18 14.4793 114.368 14.9621 121.996C15.1946 125.72 15.6238 141.55 16.0529 146.241C16.2139 147.943 16.3569 149.142 16.4106 149.626C16.4285 149.769 16.3748 149.912 16.3033 150.038C15.6595 151.148 15.1051 152.294 14.676 153.476C10.3304 165.061 15.3376 179.315 15.3376 179.315L16.6431 178.796C16.6431 178.796 19.4864 162.912 21.8112 155.911C22.2046 154.729 22.5802 153.78 22.9199 153.225C23.9214 151.595 24.8692 148.945 25.7096 145.776C27.3191 139.795 28.6067 132.024 29.465 126.007C29.5902 126.025 32.0402 115.872 32.0402 115.872Z" fill="#2B478B"/>
<path d="M33.2562 100.149C33.292 100.257 33.3099 100.346 33.3635 100.454C34.8299 104.572 37.4229 108.888 39.1933 110.464C40.3557 111.502 43.5567 112.595 46.2749 113.365C48.081 113.902 49.6905 114.278 50.3522 114.439C50.5668 114.493 50.6919 114.511 50.6919 114.511L51.2999 112.72C51.2999 112.72 49.8872 111.843 48.1705 110.679C45.7742 109.049 42.7877 106.9 42.2155 105.987C40.8922 103.838 40.0159 97.3023 38.8714 92.8794C38.8178 92.6466 38.7641 92.4138 38.6926 92.181C38.6568 92.0199 38.6032 91.8587 38.5674 91.6976C38.5495 91.6617 38.5495 91.608 38.5316 91.5722C38.478 91.3931 38.4243 91.2141 38.3707 91.0708C38.3707 91.0529 38.3528 91.035 38.3528 91.0171C38.1203 90.2829 37.5838 89.2623 37.5838 89.2623C37.2441 88.743 36.8864 88.4923 36.493 88.5818C36.493 88.5818 35.9565 88.743 35.277 89.2085C35.1339 89.2981 34.9908 89.4234 34.8299 89.5488C34.7226 89.6025 34.6511 89.692 34.5616 89.7636C34.0252 90.2471 33.4529 90.9097 33.0237 91.8229C32.7018 92.5034 32.4336 93.3092 32.3084 94.2761C32.0759 95.8698 32.5051 97.9649 33.2562 100.149Z" fill="#FFB27D"/>
<path d="M35.277 92.6466C34.1861 93.345 32.8449 93.918 31.1639 94.2582C24.8692 95.5296 22.6159 90.1576 21.8112 86.5046C22.6875 86.0391 23.4922 85.9495 23.9572 85.9137C24.4042 85.8779 24.8871 85.8421 25.2805 85.8421C25.9958 85.3228 27.1045 83.1382 27.4443 79.718L27.7304 79.8076L32.6303 81.2938C32.6303 81.2938 32.3621 82.8517 32.2011 84.3379C32.0759 85.5019 32.0402 86.6121 32.2548 86.8807C32.6303 86.9702 32.8628 87.0418 32.8628 87.0418C32.9343 87.1672 34.2934 89.5667 35.277 92.6466Z" fill="#FFB27D"/>
<path d="M32.6303 81.2939C32.6303 81.2939 32.3621 82.8517 32.2011 84.338C29.4114 83.9799 28.1954 81.276 27.7304 79.8076L32.6303 81.2939Z" fill="#ED985F"/>
<path d="M33.4171 82.7981C33.4171 82.7981 26.7826 82.243 27.1939 78.1245C27.6052 74.006 27.0151 71.1409 31.2712 71.32C35.5273 71.499 36.1889 73.1464 36.3857 74.5611C36.5824 75.9757 35.1517 82.8339 33.4171 82.7981Z" fill="#FFB27D"/>
<path d="M38.6747 92.1991C38.6389 92.038 38.5853 91.8768 38.5495 91.7157C38.5316 91.6798 38.5316 91.6261 38.5137 91.5903C38.4601 91.4112 38.4064 91.2322 38.3528 91.0889C38.3528 91.071 38.3349 91.0531 38.3349 91.0352C38.1024 90.301 37.5659 89.2804 37.5659 89.2804C37.3335 88.9043 37.0831 88.582 36.8149 88.4566C36.6003 88.3313 35.4558 87.6508 32.8806 87.042C32.9522 87.1853 34.7047 91.2143 34.4186 92.1812C34.1146 93.1482 25.5666 91.3933 25.0301 90.7845C24.6009 90.301 24.1717 87.4539 24.0287 86.3437C23.9929 86.0751 23.975 85.896 23.975 85.896C23.975 85.896 20.8813 85.9318 19.2718 86.863C19.2718 86.863 20.166 88.2239 20.6309 89.7996C20.6846 89.9429 20.7203 90.1041 20.7561 90.2473C20.8276 90.5696 20.8992 90.892 20.9171 91.2143C20.9528 91.644 20.7919 92.038 20.5058 92.4498C20.2375 92.8259 19.862 93.2198 19.4328 93.6496C19.1467 93.9182 18.8427 94.2047 18.5386 94.527C18.789 96.4251 19.3791 99.5409 19.5043 102.925C19.5401 103.785 19.3791 104.626 19.0394 105.414C18.9142 105.719 18.7354 106.023 18.5565 106.31C17.0544 108.584 14.4614 113.042 15.5165 115.442C15.9099 117.788 36.1711 118.003 35.3842 115.478C35.3842 115.478 36.2784 100.669 37.3871 96.9623C37.4229 96.819 37.4586 96.6937 37.4944 96.5684C37.7984 95.1537 37.5302 93.7928 37.1904 92.5931C37.6911 92.3782 38.2634 92.2529 38.6747 92.1991Z" fill="#FF9843"/>
<path d="M36.4214 72.2511C35.5273 70.9081 34.7226 71.1051 34.2576 71.4274C30.842 69.0816 28.2132 71.7855 28.2132 71.7855C27.48 74.7043 25.1732 76.1906 25.1732 76.1906C25.1732 76.1906 26.2998 77.0501 29.161 76.6203C30.0373 76.495 30.842 75.9578 31.5752 75.2952C30.2698 77.068 28.5888 78.2856 28.5888 78.2856C32.058 77.0859 33.8642 72.5913 34.043 72.1078C34.4186 72.5197 35.1339 73.3792 35.2948 74.185C35.5273 75.2773 35.4558 77.444 36.0817 77.444C36.0817 77.4261 37.7626 74.2566 36.4214 72.2511Z" fill="#2C3A64"/>
<path d="M29.322 111.449C25.4056 111.968 21.5072 108.387 19.0215 105.432C19.3612 104.644 19.5222 103.803 19.4864 102.943C19.3612 99.5588 18.7711 96.443 18.5208 94.5449C18.8248 94.2405 19.1288 93.954 19.4149 93.6675C19.8441 93.2378 20.2196 92.8617 20.4879 92.4678C24.4757 97.4279 34.6332 110.733 29.322 111.449Z" fill="#ED7D2B"/>
<path d="M56.8436 115.352C55.9673 115.603 54.644 116.695 52.8378 115.728C51.5503 115.048 50.1733 114.511 49.4938 114.26C49.2255 114.171 49.0646 114.117 49.0646 114.117L50.066 112.022C50.066 112.022 50.0839 112.04 50.1554 112.058C50.6204 112.219 53.0346 113.042 54.2148 112.917C55.5381 112.774 57.541 114.582 57.541 114.582C57.541 114.582 57.7198 115.102 56.8436 115.352Z" fill="#FFB27D"/>
<path d="M22.9021 180.389H12.6194C12.6194 180.389 12.3691 178.814 12.9056 177.632C13.4242 176.486 14.2289 175.966 14.0322 174.588C14.6938 175.268 15.7489 176.02 17.2332 175.823C17.412 176.128 18.4135 177.703 19.0215 178.133C19.701 178.617 22.6875 178.438 22.9021 180.389Z" fill="#233862"/>
<path d="M44.9873 180.389H34.7047C34.7047 180.389 34.3113 178.742 34.9908 177.632C35.581 176.647 35.3664 176.074 34.9193 175.268C35.3843 175.465 35.9923 175.626 36.6539 175.59C37.1725 175.555 37.709 175.322 38.1919 175.053C38.6389 175.555 40.5345 177.703 41.1246 178.133C41.7863 178.617 44.7727 178.438 44.9873 180.389Z" fill="#233862"/>
<path d="M31.8434 80.4165C31.8434 80.4165 31.9329 80.9716 33.2741 80.9716C33.2741 80.9716 34.4007 80.9716 34.4007 80.3807C34.4007 80.3628 33.3456 79.8793 31.8434 80.4165Z" fill="white"/>
<path d="M42.9129 112.792C42.9129 112.792 43.7892 112.756 44.4329 112.416C45.0767 112.076 47.1511 112.631 46.9544 112.899C46.7577 113.168 45.5774 112.828 45.4701 112.989C45.3628 113.15 44.9337 113.347 44.9337 113.347L42.9129 112.792Z" fill="#FFB27D"/>
<path d="M95.9175 144.863H55.2163C49.3686 144.863 44.6296 140.117 44.6296 134.262V93.5063C44.6296 87.6508 49.3686 82.9055 55.2163 82.9055H95.9175C101.765 82.9055 106.504 87.6508 106.504 93.5063V134.262C106.486 140.117 101.765 144.863 95.9175 144.863Z" fill="white"/>
<path d="M98.4747 98.162V128.406C98.4747 129.302 98.3317 130.161 98.0455 130.967C97.0977 133.725 94.6478 135.784 91.6793 136.196C91.3395 136.249 90.9818 136.267 90.6242 136.267H60.4201C57.0224 136.267 54.1254 134.101 53.0345 131.074C52.7305 130.251 52.5696 129.355 52.5696 128.424V98.162C52.5696 93.8286 56.0746 90.301 60.4201 90.301H90.6242C94.9697 90.301 98.4747 93.8286 98.4747 98.162Z" fill="#ECEAFF"/>
<path d="M71.579 111.162C71.579 111.162 71.4181 115.89 70.8279 118.021L66.0353 121.351L84.0612 124.055L79.7693 118.11C79.7693 118.11 78.4639 111.753 79.1434 109.407C79.823 107.062 71.579 111.162 71.579 111.162Z" fill="#FFB27D"/>
<path d="M71.5611 111.807C71.5611 111.807 72.9917 115.245 75.6741 115.173C78.3566 115.102 78.9646 112.058 78.9646 112.058L71.5611 111.807Z" fill="#ED985F"/>
<path d="M69.9516 109.031C69.9516 109.031 69.0754 104.698 68.4853 103.391C67.8772 102.084 67.3765 96.2103 74.0826 95.9238C74.0826 95.9238 76.6577 96.2282 78.0704 95.3687C78.0704 95.3687 78.0704 96.2282 77.7128 96.5326C77.7128 96.5326 80.0375 95.9775 81.8437 98.0009C83.6677 100.024 80.6277 107.098 80.7886 108.763L69.9516 109.031Z" fill="#B64C41"/>
<path d="M75.3523 113.848C73.403 113.812 69.8265 111.216 69.8265 108.011V102.997C69.8265 101.815 70.6491 100.866 71.6505 100.866H79.0719C80.0733 100.866 80.8959 101.833 80.8959 102.997V107.724C80.8959 111.091 77.5876 113.884 75.3523 113.848Z" fill="#FFB27D"/>
<path d="M69.8265 105.665C69.8265 105.665 69.8443 102.657 72.2228 102.191C74.6012 101.725 79.9481 103.659 80.6992 101.457C81.4503 99.2543 70.3808 99.2901 69.8265 100.705C69.2721 102.101 69.8265 105.665 69.8265 105.665Z" fill="#B64C41"/>
<path d="M86.6721 119.453C86.1535 119.256 85.9031 119.238 85.9031 119.238C83.936 118.737 82.0941 118.397 80.3595 118.182C80.1627 118.164 79.966 118.128 79.7693 118.11C78.5891 119.686 77.6413 120.402 76.6398 120.904C76.4252 121.011 76.1928 121.118 75.9603 121.208C75.7636 121.298 75.5669 121.369 75.3523 121.459C75.084 121.423 74.8337 121.351 74.5833 121.262C74.4403 121.208 74.2972 121.154 74.1541 121.083C72.2407 120.187 70.81 118.056 70.81 118.003C70.5418 118.038 70.2914 118.056 70.0411 118.092C67.7878 118.379 66.2499 118.791 65.5883 119.005C65.4452 119.023 60.5453 119.704 53.0167 131.075C54.1075 134.101 57.0045 136.267 60.4023 136.267H90.6063C90.964 136.267 91.3216 136.25 91.6614 136.196C94.6299 135.802 97.062 133.725 98.0277 130.967C92.3588 122.336 88.2994 120.044 86.6721 119.453Z" fill="#2F5196"/>
<path d="M71.0783 116.857C71.0783 116.857 70.2736 117.197 70.059 118.092C70.059 118.092 73.2779 121.405 75.3702 121.459L71.0783 116.857Z" fill="#EE9849"/>
<path d="M75.3702 121.459L79.519 116.696C79.519 116.696 80.3774 117.251 80.3595 118.182C80.3595 118.182 77.1406 121.584 75.3702 121.459Z" fill="#EE9849"/>
<path d="M77.2121 136.267H73.0633C73.5461 130.698 74.1541 125.183 74.4403 122.605C74.4939 122.085 74.5476 121.674 74.5654 121.423C74.5654 121.387 74.5654 121.333 74.5833 121.297C74.5833 121.28 74.5833 121.262 74.5833 121.244C74.6012 121.136 74.6012 121.083 74.6012 121.083H75.0125L75.6742 121.065H75.9424C75.9424 121.065 75.9424 121.101 75.9603 121.19C75.9603 121.226 75.9603 121.297 75.9782 121.369C75.9782 121.423 75.9782 121.477 75.9961 121.548C76.014 121.853 76.0676 122.3 76.1034 122.855C76.3358 125.559 76.7829 130.913 77.2121 136.267Z" fill="#EE9849"/>
<path d="M73.7786 119.775C73.7786 119.775 75.692 119.578 76.8544 119.704C77.0869 119.722 77.2121 119.972 77.1048 120.187C76.7829 120.778 76.1212 121.799 75.4238 121.799C74.4402 121.781 72.9202 119.829 73.7786 119.775Z" fill="#E58638"/>
<path d="M48.9573 115.012C48.4208 115.746 46.9723 116.875 45.1304 116.015C43.8071 115.406 42.3943 114.958 41.6969 114.744C41.4286 114.672 41.2677 114.618 41.2677 114.618L42.144 112.469C42.144 112.469 42.1618 112.487 42.2334 112.505C42.7162 112.631 45.0946 112.649 46.4001 113.347C47.9201 114.171 49.5832 114.135 48.9573 115.012Z" fill="#FFB27D"/>
<path d="M42.9844 112.792L42.6089 114.815C42.6089 114.815 41.9294 114.744 40.8206 114.636C40.4987 114.6 40.302 114.564 40.302 114.564C39.4258 114.475 38.3707 114.332 37.2262 114.171H37.2083C35.2412 113.884 33.0416 113.508 31.1639 113.042C29.8406 112.702 28.6961 112.326 27.9092 111.914C27.8198 111.878 27.7662 111.825 27.6768 111.771C25.7633 110.625 23.2955 106.954 21.2568 102.961C20.9707 102.406 20.7025 101.851 20.4521 101.314C19.5043 99.308 18.7175 97.3383 18.181 95.6013C17.8591 94.5806 17.6266 93.6316 17.5193 92.8437C17.4836 92.5751 17.4478 92.3065 17.4299 92.0558C17.412 91.9125 17.412 91.7693 17.412 91.6439C18.181 90.9635 19.9693 89.6921 22.4013 89.8354C22.455 89.9249 22.5086 90.0144 22.5444 90.104C23.5995 92.02 24.744 94.509 25.817 96.998C26.425 98.3589 26.9972 99.7198 27.5695 100.973C27.8914 101.743 28.2311 102.46 28.5351 103.104C29.1253 104.358 29.6439 105.36 30.091 106.005C30.3771 106.417 31.1282 106.954 32.1296 107.545C33.8642 108.584 36.3678 109.819 38.5495 110.804C39.4615 111.216 40.302 111.592 41.0173 111.914C42.2334 112.469 42.9844 112.792 42.9844 112.792Z" fill="#FFB27D"/>
<path d="M22.598 90.1398C19.5579 89.5847 17.4835 92.0916 17.4835 92.0916C17.1259 87.6329 19.3076 86.8271 19.3076 86.8271C20.1481 86.3794 21.3104 87.8298 22.598 90.1398Z" fill="#FF9843"/>
<path d="M359.939 156.52H314.052C313.283 156.52 312.657 155.893 312.657 155.123V148.856C312.657 148.086 313.283 147.459 314.052 147.459H359.939C360.708 147.459 361.334 148.086 361.334 148.856V155.123C361.334 155.893 360.708 156.52 359.939 156.52Z" fill="#EE9849"/>
<path d="M324.442 156.52L323.87 161.82L315.5 238.658C315.483 238.926 315.286 239.123 315.071 239.123C314.642 239.123 314.302 238.675 314.356 238.156L320.973 159.492L321.223 156.52H324.442Z" fill="#EFCBAB"/>
<path d="M324.442 156.52L323.87 161.82C323.476 159.707 320.973 159.492 320.973 159.492L321.223 156.52H324.442Z" fill="#CCA07F"/>
<path d="M358.92 239.123C358.687 239.123 358.509 238.926 358.491 238.658L350.104 161.82L349.746 158.507L349.531 156.52H352.75L353.001 159.492L353.197 161.82L359.635 238.174C359.689 238.675 359.349 239.123 358.92 239.123Z" fill="#EFCBAB"/>
<path d="M353.197 161.82C352.375 159.295 349.746 158.507 349.746 158.507L349.531 156.52H352.75L353.001 159.492L353.197 161.82Z" fill="#CCA07F"/>
<path d="M47.9022 186.209H1.4606C0.852585 186.209 0.333984 185.707 0.333984 185.081V181.517C0.333984 180.908 0.834703 180.389 1.4606 180.389H47.9022C48.5102 180.389 49.0288 180.891 49.0288 181.517V185.081C49.0288 185.707 48.5102 186.209 47.9022 186.209Z" fill="#EE9849"/>
<path d="M12.1367 186.209L11.5644 189.611L3.17737 238.818C3.15949 238.998 2.96278 239.123 2.74818 239.123C2.31899 239.123 1.97922 238.836 2.03287 238.514L8.66739 188.107L8.91775 186.209H12.1367Z" fill="#EFCBAB"/>
<path d="M12.1366 186.209L11.5644 189.611C11.171 188.25 8.66736 188.107 8.66736 188.107L8.91772 186.209H12.1366Z" fill="#CCA07F"/>
<path d="M46.6144 239.123C46.3819 239.123 46.2031 238.998 46.1852 238.818L37.816 189.593L37.4584 187.48L37.2438 186.209H40.4627L40.713 188.107L40.9097 189.593L47.3476 238.496C47.3833 238.836 47.0435 239.123 46.6144 239.123Z" fill="#EFCBAB"/>
<path d="M40.8922 189.593C40.0696 187.982 37.4408 187.48 37.4408 187.48L37.2262 186.209H40.4451L40.6955 188.107L40.8922 189.593Z" fill="#CCA07F"/>
<path d="M118.575 69.8336H77.4446C71.5433 69.8336 66.7507 65.0346 66.7507 59.1254V17.9401C66.7507 12.0309 71.5433 7.23193 77.4446 7.23193H118.575C124.476 7.23193 129.269 12.0309 129.269 17.9401V59.1254C129.269 65.0525 124.476 69.8336 118.575 69.8336Z" fill="white"/>
<path d="M121.168 22.6495V53.2162C121.168 53.9145 121.079 54.5771 120.918 55.2217C120.274 57.7107 118.45 59.7163 116.107 60.6295C116.018 60.6653 115.928 60.7011 115.839 60.737C115.034 61.0235 114.158 61.1667 113.246 61.1667H82.72C82.3266 61.1667 81.9153 61.1309 81.5397 61.0772C79.0719 60.7011 76.9617 59.197 75.7994 57.1019C75.1556 55.9559 74.7979 54.6308 74.7979 53.2341V22.6495C74.7979 18.2624 78.3566 14.699 82.7379 14.699H113.264C117.627 14.699 121.168 18.2624 121.168 22.6495Z" fill="#ECEAFF"/>
<path d="M95.381 34.11C95.381 34.11 95.238 38.2643 94.7194 40.1266L90.5169 43.0633L106.361 45.4449L102.588 40.2161C102.588 40.2161 101.443 34.6292 102.051 32.57C102.624 30.5107 95.381 34.11 95.381 34.11Z" fill="#FFB27D"/>
<path d="M95.3632 34.6829C95.3632 34.6829 96.6149 37.7091 98.9755 37.6375C101.336 37.5658 101.872 34.8977 101.872 34.8977L95.3632 34.6829Z" fill="#ED985F"/>
<path d="M93.9504 32.2297C93.9504 32.2297 93.1814 28.4156 92.6628 27.2696C92.1263 26.1235 91.6793 20.9664 97.5806 20.6978C97.5806 20.6978 99.8338 20.9664 101.086 20.2144C101.086 20.2144 101.086 20.9664 100.782 21.235C100.782 21.235 102.82 20.7516 104.412 22.5243C106.003 24.2971 103.357 30.5107 103.482 31.979L93.9504 32.2297Z" fill="#2C3A64"/>
<path d="M103.553 26.9293V31.0836C103.553 31.782 103.393 32.4445 103.124 33.0533C102.659 34.1098 101.873 35.0231 100.996 35.614C100.227 36.1512 99.4047 36.4735 98.6894 36.4556C98.0814 36.4377 97.2766 36.1512 96.5077 35.6319C95.4705 34.9335 94.469 33.8591 94.0577 32.6057V32.5878L94.0398 32.5341C93.9147 32.1401 93.8431 31.7462 93.8431 31.3343V26.9293C93.8431 25.8907 94.5584 25.0491 95.4347 25.0491H101.962C102.838 25.0491 103.553 25.8907 103.553 26.9293Z" fill="#FFB27D"/>
<path d="M107.953 41.2188C107.953 41.2188 104.233 40.413 102.57 40.216C101.104 42.1678 100.048 42.705 98.7072 43.2243C96.5434 42.9199 94.7194 40.1802 94.7194 40.1265C92.3588 40.3772 90.7852 40.8785 90.1235 41.0755C89.9804 41.0934 84.2043 41.8992 75.7815 57.1557C76.9618 59.2508 79.054 60.7728 81.5219 61.131C82.6127 60.1998 84.9375 58.1585 86.7615 56.5827C86.7436 57.102 86.7437 57.5675 86.7437 57.9615C86.7794 59.0538 86.8152 60.1461 86.8331 61.2205H109.812C109.777 60.6654 109.741 60.1461 109.705 59.6268C109.634 58.051 109.544 56.6006 109.491 55.2755C109.491 55.2576 109.491 55.2576 109.491 55.2397C109.491 55.2218 109.491 55.2039 109.491 55.2039C109.83 55.4904 110.224 55.8306 110.653 56.2066C110.742 56.2783 110.832 56.3499 110.921 56.4394C110.993 56.511 111.082 56.5648 111.154 56.6364C111.261 56.7259 111.368 56.8155 111.476 56.9229C111.672 57.102 111.869 57.2631 112.066 57.4422C112.155 57.5138 112.245 57.6033 112.334 57.675C112.388 57.7108 112.423 57.7645 112.477 57.8003C112.531 57.854 112.584 57.8899 112.638 57.9436C112.674 57.9794 112.727 58.0152 112.763 58.051C112.87 58.1406 112.96 58.2301 113.049 58.3017C113.139 58.3733 113.21 58.445 113.282 58.5166C113.353 58.5703 113.407 58.624 113.478 58.6957C113.711 58.9105 113.961 59.1075 114.194 59.3045C114.283 59.3761 114.373 59.4656 114.462 59.5373C114.551 59.6268 114.641 59.6984 114.73 59.7701C114.802 59.8238 114.855 59.8775 114.927 59.9312C114.963 59.9491 114.981 59.9849 115.016 60.0028C115.106 60.0924 115.213 60.164 115.302 60.2356C115.392 60.3252 115.481 60.3968 115.571 60.4684C115.606 60.5042 115.642 60.5221 115.678 60.5579C115.714 60.5938 115.75 60.6296 115.785 60.6475C115.875 60.6117 115.964 60.5759 116.054 60.54C118.414 59.6268 120.22 57.6213 120.864 55.1322C113.031 41.6127 107.953 41.2188 107.953 41.2188Z" fill="#F99746"/>
<path d="M93.8431 29.2751C93.8431 29.2751 93.861 26.6249 95.9533 26.213C98.0456 25.8012 102.731 27.5023 103.393 25.5684C104.054 23.6345 94.326 23.6703 93.8431 24.9059C93.3603 26.1414 93.8431 29.2751 93.8431 29.2751Z" fill="#2C3A64"/>
<path d="M89.5692 61.149H86.851C86.8331 60.0567 86.7973 58.9823 86.7616 57.89C86.7437 57.4782 86.7616 57.0126 86.7794 56.5112C86.7794 56.4038 86.7794 56.2784 86.7973 56.1531C86.8152 56.1889 86.8689 56.2784 86.9404 56.368C87.3338 57.0484 88.4425 58.8928 89.5692 61.149Z" fill="#ED7D2B"/>
<path d="M100.996 33.7876V35.6141C100.227 36.1513 99.4046 36.4736 98.6893 36.4557C98.0813 36.4378 97.2766 36.1513 96.5076 35.632V33.7876C96.5076 32.7669 97.3481 31.9253 98.3674 31.9253H99.1364C100.174 31.9253 100.996 32.7669 100.996 33.7876Z" fill="#2C3A64"/>
<path d="M116.107 60.6296C116.018 60.6654 115.928 60.7013 115.839 60.7371C115.803 60.7013 115.767 60.6834 115.732 60.6475C115.696 60.6117 115.66 60.5938 115.624 60.558C115.535 60.4864 115.446 60.3968 115.356 60.3252C115.267 60.2536 115.177 60.1641 115.07 60.0924C115.034 60.0745 115.016 60.0387 114.981 60.0208C114.909 59.9671 114.855 59.9134 114.784 59.8596C114.694 59.788 114.605 59.6985 114.516 59.6269C114.426 59.5552 114.337 59.4657 114.247 59.3941C114.015 59.1971 113.782 58.9822 113.532 58.7852C113.461 58.7315 113.407 58.6778 113.335 58.6062C113.264 58.5346 113.174 58.4629 113.103 58.3913C113.013 58.3018 112.906 58.2122 112.817 58.1406C112.781 58.1048 112.727 58.069 112.692 58.0332C112.638 57.9794 112.584 57.9257 112.531 57.8899C112.477 57.8541 112.423 57.8004 112.388 57.7646C112.298 57.675 112.209 57.6034 112.119 57.5318C111.923 57.3527 111.726 57.1916 111.529 57.0125C111.422 56.923 111.315 56.8155 111.207 56.726C111.136 56.6544 111.046 56.5827 110.975 56.529C110.885 56.4574 110.796 56.3679 110.707 56.2962C110.277 55.9202 109.884 55.58 109.544 55.2935L109.526 55.2755C109.526 55.2755 109.526 55.2755 109.544 55.2576C109.759 55.0965 111.744 53.7893 112.996 56.0097C113.836 57.496 115.249 59.4836 116.107 60.6296Z" fill="#ED7D2B"/>
<path d="M103.124 33.0535C102.248 35.059 100.192 36.4915 98.6894 36.4557C97.2409 36.4378 94.7731 34.8083 94.0399 32.6058V32.5879V32.5342C94.0399 32.5342 95.5957 33.8593 96.615 33.1967H100.925C100.907 33.1967 102.033 33.8414 103.124 33.0535Z" fill="#2C3A64"/>
<path d="M99.2259 33.5727H98.2959C98.0814 33.5727 97.8131 33.2325 97.8131 33.0176C97.8131 33.0176 98.0814 32.8027 98.2959 32.8027H99.2259C99.4404 32.8027 99.7445 32.9818 99.7981 33.1071C99.7981 33.1071 99.6729 33.5727 99.2259 33.5727Z" fill="#FFB27D"/>
<path d="M193.379 68.5623H152.248C146.347 68.5623 141.554 63.7633 141.554 57.8541V16.6689C141.554 10.7597 146.347 5.96069 152.248 5.96069H193.379C199.28 5.96069 204.073 10.7597 204.073 16.6689V57.8541C204.055 63.7633 199.28 68.5623 193.379 68.5623Z" fill="white"/>
<path d="M195.972 21.3605V51.9271C195.972 53.8789 195.274 55.6696 194.094 57.0484C192.646 58.7674 190.464 59.8598 188.032 59.8598H157.506C155.503 59.8598 153.679 59.1256 152.284 57.89C150.621 56.4396 149.584 54.2908 149.584 51.9092V21.3605C149.584 16.9733 153.142 13.4099 157.524 13.4099H188.05C192.413 13.4278 195.972 16.9733 195.972 21.3605Z" fill="#ECEAFF"/>
<path d="M169.523 41.8636C169.523 41.8636 164.552 41.6129 164.409 38.7299C164.266 35.847 160.153 33.7519 161.351 31.4419C162.817 28.6127 161.476 25.8909 163.318 23.9749C165.356 21.8798 167.914 23.0079 169.273 21.7902C170.632 20.5726 173.1 19.4445 175.55 20.9486C178 22.4528 179.859 21.647 181.469 23.0974C183.239 24.709 182.578 26.7325 184.026 27.8248C185.367 28.8276 184.813 31.5852 183.686 33.8235C182.864 35.4351 184.741 36.9393 181.522 38.8016C180.181 39.5715 180.467 41.5055 176.408 41.8457C174.584 42.0248 170.596 41.1652 169.523 41.8636Z" fill="#2C3A64"/>
<path d="M169.684 39.3208C169.684 39.3208 169.541 43.8154 168.969 45.8389L164.409 49.0083L181.54 51.569L177.463 45.9105C177.463 45.9105 176.229 39.876 176.873 37.6555C177.517 35.4351 169.684 39.3208 169.684 39.3208Z" fill="#B56F40"/>
<path d="M169.648 39.9297C169.648 39.9297 171.007 43.1887 173.547 43.1171C176.104 43.0454 176.676 40.1625 176.676 40.1625L169.648 39.9297Z" fill="#99592E"/>
<path d="M173.261 41.8636C171.419 41.8277 168.003 39.3745 168.003 36.3125V31.5493C168.003 30.4391 168.772 29.5259 169.72 29.5259H176.766C177.713 29.5259 178.482 30.4391 178.482 31.5493V36.0439C178.518 39.2492 175.389 41.8994 173.261 41.8636Z" fill="#B56F40"/>
<path d="M183.275 47.0744C181.201 46.5551 179.251 46.1433 177.445 45.9284C175.854 48.0414 174.709 48.5965 173.261 49.1874C170.918 48.8651 168.951 45.9105 168.951 45.8389C166.412 46.1075 164.695 46.6447 163.997 46.8595C163.801 46.8775 159.241 47.5937 152.284 57.9975C153.679 59.233 155.503 59.9672 157.506 59.9672H160.653H163.193H184.813C184.813 59.9493 184.813 59.9135 184.813 59.8956H188.032C190.464 59.8956 192.628 58.8033 194.094 57.0842C189.212 48.6681 183.275 47.0744 183.275 47.0744Z" fill="#B64C41"/>
<path d="M168.021 33.4833C168.021 33.4833 169.309 29.5617 173.511 30.1705C177.713 30.7794 178.071 31.6747 178.518 32.7312C178.965 33.7698 179.824 28.9171 179.824 28.9171L174.87 27.4487C174.87 27.4487 168.879 28.1292 168.432 29.132C168.003 30.1347 168.003 30.1347 168.003 30.1347L168.021 33.4833Z" fill="#2C3A64"/>
<path d="M178.071 34.0026C177.839 33.7161 177.445 33.5549 177.016 33.5549H174.781C174.351 33.5549 174.065 33.6803 173.904 33.9131C173.833 34.0205 173.797 34.1459 173.779 34.2891C173.404 34.1996 173.046 34.2354 172.796 34.307C172.778 34.1638 172.742 34.0384 172.67 33.9131C172.51 33.6803 172.206 33.5549 171.794 33.5549H169.559C169.112 33.5549 168.736 33.7161 168.504 34.0026C168.289 34.2712 168.218 34.6114 168.289 34.9875C168.54 36.2588 169.988 36.42 170.721 36.42C170.954 36.42 171.097 36.4021 171.133 36.4021C171.812 36.4021 172.295 36.0081 172.635 35.1844C172.688 35.0412 172.796 34.7726 172.796 34.504C173.028 34.4324 173.404 34.3786 173.779 34.4861C173.797 34.7726 173.887 35.0412 173.94 35.1844C174.28 36.0081 174.763 36.4021 175.442 36.4021C175.478 36.4021 175.621 36.42 175.854 36.42C176.587 36.42 178.035 36.2588 178.286 35.0054C178.339 34.6114 178.268 34.2712 178.071 34.0026ZM172.617 34.5398C172.599 34.7905 172.51 35.0233 172.456 35.1307C172.134 35.9007 171.705 36.2588 171.079 36.2588H171.061C171.061 36.2588 170.453 36.3305 169.827 36.2051C169.005 36.044 168.522 35.6142 168.379 34.9696C168.307 34.6293 168.379 34.3428 168.557 34.11C168.772 33.8593 169.112 33.7161 169.505 33.7161H171.741C172.116 33.7161 172.366 33.8235 172.492 34.0205C172.563 34.1279 172.581 34.2354 172.599 34.3607C172.492 34.3965 172.42 34.4324 172.402 34.4324C172.366 34.4503 172.331 34.504 172.366 34.5577C172.384 34.5935 172.42 34.6114 172.438 34.6114C172.456 34.6114 172.456 34.6114 172.474 34.6114C172.51 34.5756 172.545 34.5577 172.617 34.5398ZM178.125 34.9517C178 35.5963 177.499 36.0081 176.676 36.1872C176.05 36.3126 175.442 36.2409 175.442 36.2409C174.834 36.2409 174.387 35.8828 174.065 35.1128C174.03 35.0054 173.94 34.7726 173.904 34.5219C173.94 34.5398 173.994 34.5577 174.03 34.5756C174.065 34.5935 174.119 34.5756 174.155 34.5398C174.173 34.504 174.155 34.4503 174.119 34.4145C174.047 34.3786 173.976 34.3428 173.904 34.3249C173.904 34.1996 173.94 34.0921 174.012 34.0026C174.137 33.8056 174.405 33.6982 174.763 33.6982H176.998C177.392 33.6982 177.749 33.8414 177.946 34.0921C178.125 34.3249 178.196 34.6293 178.125 34.9517Z" fill="#2C3A64"/>
<path d="M278.018 67.0939L237.156 62.3666C231.29 61.6861 227.088 56.3858 227.767 50.5124L232.488 9.59571C233.168 3.72233 238.461 -0.485732 244.327 0.194721L285.189 4.92208C291.055 5.60253 295.257 10.9029 294.578 16.7763L289.857 57.693C289.177 63.5663 283.884 67.7744 278.018 67.0939Z" fill="white"/>
<path d="M285.994 20.5189L282.489 50.8885C282.346 52.0704 281.952 53.1627 281.38 54.1296C280.468 55.6159 279.109 56.744 277.499 57.3708C276.587 57.7289 275.586 57.9259 274.549 57.9079C274.263 57.9079 273.977 57.89 273.69 57.8542L260.833 56.368L258.293 56.0815L249.978 55.1145L248.905 54.9892L243.361 54.3445C240.375 54.0043 237.961 52.0346 236.906 49.4202C236.834 49.259 236.78 49.08 236.709 48.9009C236.476 48.2025 236.351 47.4863 236.333 46.7163C236.315 46.3223 236.333 45.9284 236.387 45.5165L239.892 15.1469C240.393 10.7956 244.327 7.6619 248.672 8.16328L279.002 11.673C283.365 12.2281 286.494 16.1676 285.994 20.5189Z" fill="#ECEAFF"/>
<path d="M273.154 27.5202C273.154 27.5023 273.154 27.4665 273.136 27.4486C273.047 26.8935 272.921 26.3384 272.814 25.8012C273.494 21.4678 271.831 19.6055 270.382 18.6564C269.613 17.1344 268.773 16.0779 268.004 15.7197C266.573 15.0572 264.928 15.1109 263.801 15.2721C264.069 14.9498 264.642 14.7886 264.642 14.7886C263.926 14.7349 262.406 15.5765 262.406 15.5765C252.213 12.604 251.891 27.2695 252.392 30.636C252.875 34.0024 249.459 35.3991 244.541 38.497C240.089 41.3083 237.674 44.3346 236.387 46.752C236.405 47.504 236.548 48.2382 236.762 48.9366C236.923 48.7933 237.084 48.6859 237.245 48.6322C237.227 48.668 237.12 48.9903 236.959 49.4559C238.014 52.0702 240.428 54.0221 243.415 54.3802L248.959 55.0248L250.031 55.1502L258.347 56.1171C259.223 54.8816 260.171 53.5923 261.155 52.3209C263.551 49.2231 266.18 46.1789 268.469 43.9585C269.22 43.2243 269.935 42.5797 270.597 42.0604C270.615 42.0425 270.65 42.0246 270.668 42.0067C270.99 41.4337 271.24 40.7711 271.455 40.0907C272.152 37.7807 272.296 35.2201 272.296 34.9694C272.296 37.351 272.081 38.9984 271.813 40.1444C271.705 40.5921 271.58 40.9681 271.473 41.2725C271.759 40.9502 272.027 40.5921 272.26 40.1981C273.959 37.2256 273.977 32.2297 273.154 27.5202Z" fill="#163560"/>
<path d="M269.023 42.9199C269.059 42.9378 265.679 44.2271 263.336 43.296C261.155 42.4185 260.01 39.3207 260.046 39.3207C261.029 39.249 261.459 37.9598 262.084 32.3013L262.514 32.4445L269.613 34.7187C269.613 34.7187 269.184 36.9928 268.934 39.1416C268.719 40.9323 268.63 42.6692 269.023 42.9199Z" fill="#FFB27D"/>
<path d="M259.974 18.7997C259.974 18.7997 263.247 14.6633 268.075 17.9223C268.075 17.9223 265.411 17.6895 259.974 18.7997Z" fill="#BC3F3F"/>
<path d="M269.613 34.7007C269.613 34.7007 269.184 36.9749 268.934 39.1237C264.874 38.5328 263.157 34.5754 262.514 32.4087L269.613 34.7007Z" fill="#EF9E67"/>
<path d="M270.758 35.99C270.758 35.99 261.119 36.957 260.6 30.9403C260.082 24.9237 258.49 20.9842 264.624 20.1068C270.758 19.2294 272.152 21.4319 272.814 23.4016C273.476 25.3714 273.243 35.5781 270.758 35.99Z" fill="#FFB27D"/>
<path d="M269.023 19.6055C269.023 19.6055 266.967 26.8935 262.997 28.2902C259.027 29.669 257.167 28.7379 257.167 28.7379C257.167 28.7379 260.064 25.9982 260.35 21.6289C260.368 21.611 266.734 16.4002 269.023 19.6055Z" fill="#163560"/>
<path d="M268.415 20.2321C268.415 20.2321 270.525 21.6468 271.133 23.133C271.741 24.6193 272.224 27.7708 273.136 27.5739C273.136 27.5739 274.728 22.5958 272.26 20.071C269.631 17.4029 268.415 20.2321 268.415 20.2321Z" fill="#163560"/>
<path d="M277.285 42.4364C276.283 41.1829 274.245 40.5203 272.224 40.1801C272.081 40.1622 271.938 40.1264 271.795 40.1085C271.67 40.0906 271.544 40.0727 271.419 40.0548C270.579 39.9473 269.756 39.8936 269.077 39.8578C268.969 39.7145 268.916 39.625 268.898 39.5892L260.743 38.9267H260.654C260.654 38.9267 260.654 38.9267 260.636 38.9267H260.618C260.01 38.855 251.552 38.0134 249.924 41.0038C248.851 42.9556 248.833 46.6802 249.334 50.8346C249.173 52.2313 249.048 53.6638 248.941 55.0068L250.014 55.1322L258.329 56.0991L260.868 56.3856L273.726 57.8719C274.012 57.9077 274.298 57.9256 274.585 57.9256C275.622 57.9256 276.605 57.7465 277.535 57.3884C279.145 56.7617 280.504 55.6156 281.416 54.1473C280.146 49.0618 278.59 44.0838 277.285 42.4364Z" fill="#BC3F3F"/>
<path d="M283.687 145.077H242.574C236.673 145.077 231.898 140.296 231.898 134.387V93.2017C231.898 87.2925 236.673 82.5115 242.574 82.5115H283.687C289.588 82.5115 294.363 87.2925 294.363 93.2017V134.369C294.363 140.278 289.588 145.077 283.687 145.077Z" fill="white"/>
<path d="M286.28 97.9112V128.46C286.28 129.23 286.173 129.964 285.976 130.662C285.064 133.85 282.185 136.231 278.751 136.393C278.626 136.393 278.501 136.41 278.358 136.41H247.832C247.778 136.41 247.725 136.41 247.671 136.41C247.617 136.41 247.564 136.41 247.51 136.41C244.059 136.267 241.162 133.921 240.232 130.734C240.017 130.018 239.91 129.266 239.91 128.478V97.9112C239.91 93.524 243.451 89.9785 247.832 89.9785H278.34C282.721 89.9785 286.28 93.524 286.28 97.9112Z" fill="#ECEAFF"/>
<path d="M258.526 112.057C258.526 112.057 258.347 117.483 257.65 119.918L252.16 123.75L272.85 126.848L267.914 120.026C267.914 120.026 266.43 112.738 267.199 110.052C267.986 107.366 258.526 112.057 258.526 112.057Z" fill="#FFB27D"/>
<path d="M258.49 112.81C258.49 112.81 260.117 116.749 263.211 116.659C266.287 116.57 267.002 113.078 267.002 113.078L258.49 112.81Z" fill="#ED985F"/>
<path d="M256.666 109.622C256.666 109.622 255.665 104.644 254.985 103.14C254.288 101.636 253.715 94.9028 261.405 94.5626C261.405 94.5626 264.356 94.9028 265.983 93.918C265.983 93.918 265.983 94.9028 265.572 95.2431C265.572 95.2431 268.236 94.5984 270.311 96.9263C272.403 99.2362 268.916 107.366 269.095 109.264L256.666 109.622Z" fill="#2C3A64"/>
<path d="M262.871 115.155C260.636 115.119 256.523 112.147 256.523 108.458V102.71C256.523 101.367 257.453 100.257 258.615 100.257H267.127C268.272 100.257 269.22 101.367 269.22 102.71V108.136C269.202 111.986 265.429 115.191 262.871 115.155Z" fill="#FFB27D"/>
<path d="M256.523 105.754C256.523 105.754 256.541 102.298 259.277 101.761C262.013 101.224 268.129 103.444 269.005 100.919C269.881 98.3946 257.167 98.4483 256.541 100.042C255.879 101.671 256.523 105.754 256.523 105.754Z" fill="#2C3A64"/>
<path d="M276.802 136.393H247.832C247.778 136.393 247.725 136.393 247.671 136.393C248.404 129.749 249.978 121.745 251.23 121.208C251.23 121.208 251.373 121.154 251.659 121.064C252.32 120.868 253.715 120.474 255.736 120.169H255.754C256.344 120.08 256.97 119.99 257.667 119.918C257.667 120.008 260.046 123.482 262.871 123.876C264.624 123.177 266.001 122.587 267.932 120.026C268.558 120.098 269.22 120.187 269.881 120.294C271.491 120.545 273.19 120.885 274.978 121.333C275.193 121.387 275.407 121.441 275.604 121.494C275.693 121.512 275.765 121.53 275.854 121.566C275.854 121.566 275.872 121.655 275.926 122.175C276.015 123.357 276.283 126.759 276.802 136.393Z" fill="#739AF0"/>
<path d="M251.462 121.118H251.444C251.337 121.136 251.194 121.19 250.997 121.243C250.979 121.243 250.979 121.243 250.961 121.261C250.943 121.261 250.943 121.261 250.943 121.261C250.926 121.261 250.926 121.261 250.926 121.261C249.406 121.799 245.579 123.732 240.232 130.698C241.162 133.886 244.059 136.249 247.51 136.375C247.564 136.375 247.617 136.375 247.671 136.375C247.725 136.375 247.778 136.375 247.832 136.375H250.711H255.521C255.611 131.468 255.665 127.206 255.7 124.27C255.718 122.98 255.736 121.942 255.736 121.243C255.736 120.527 255.754 120.151 255.754 120.151H255.736C254.216 120.348 252.356 120.849 251.462 121.118Z" fill="#2B478B"/>
<path d="M275.836 121.566C275.443 121.423 275.175 121.369 275.049 121.333C274.03 121.082 271.723 120.509 269.863 120.294C269.863 120.33 269.863 121.226 269.881 122.748C269.881 123.733 269.899 124.968 269.917 126.419C269.935 129.122 269.989 132.56 270.024 136.393H275.514H278.34C278.465 136.393 278.608 136.393 278.733 136.375C282.185 136.213 285.046 133.832 285.958 130.644C280.969 124.109 277.41 122.157 275.836 121.566Z" fill="#2B478B"/>
<path d="M268.254 105.486C267.986 105.163 267.557 104.984 267.056 104.984H264.552C264.069 104.984 263.748 105.128 263.569 105.396C263.479 105.522 263.444 105.665 263.426 105.808C262.996 105.701 262.603 105.754 262.317 105.826C262.299 105.665 262.263 105.522 262.174 105.396C261.995 105.128 261.655 104.984 261.19 104.984H258.687C258.186 104.984 257.757 105.163 257.489 105.486C257.256 105.772 257.167 106.166 257.256 106.596C257.542 108.011 259.17 108.19 259.992 108.19C260.243 108.19 260.421 108.172 260.457 108.172C261.226 108.172 261.763 107.742 262.156 106.793C262.228 106.632 262.335 106.327 262.353 106.023C262.621 105.951 263.032 105.88 263.461 106.005C263.479 106.327 263.587 106.632 263.658 106.793C264.052 107.724 264.588 108.172 265.357 108.172C265.393 108.172 265.572 108.19 265.822 108.19C266.645 108.19 268.272 108.011 268.558 106.596C268.576 106.148 268.504 105.772 268.254 105.486ZM262.138 106.077C262.102 106.363 262.013 106.614 261.959 106.739C261.602 107.599 261.101 108.011 260.421 108.011H260.403C260.403 108.011 259.724 108.082 259.009 107.939C258.079 107.742 257.524 107.276 257.381 106.56C257.31 106.184 257.381 105.844 257.578 105.593C257.81 105.307 258.204 105.146 258.651 105.146H261.155C261.566 105.146 261.852 105.253 262.013 105.486C262.084 105.593 262.12 105.736 262.138 105.88C262.013 105.916 261.924 105.951 261.924 105.969C261.87 105.987 261.852 106.059 261.87 106.095C261.888 106.13 261.924 106.148 261.959 106.148C261.977 106.148 261.995 106.148 261.995 106.148C262.013 106.13 262.067 106.095 262.138 106.077ZM268.326 106.56C268.182 107.294 267.628 107.76 266.698 107.939C265.983 108.082 265.321 108.011 265.303 108.011H265.285C264.588 108.011 264.105 107.599 263.748 106.739C263.694 106.632 263.604 106.345 263.569 106.059C263.622 106.077 263.658 106.095 263.712 106.13C263.765 106.148 263.819 106.13 263.837 106.095C263.855 106.041 263.837 105.987 263.801 105.969C263.73 105.933 263.64 105.898 263.569 105.862C263.587 105.736 263.622 105.593 263.694 105.486C263.837 105.271 264.123 105.146 264.552 105.146H267.056C267.503 105.146 267.896 105.307 268.129 105.593C268.343 105.844 268.397 106.166 268.326 106.56Z" fill="#B64C41"/>
<path d="M183.615 152.598H135.921C129.072 152.598 123.529 147.047 123.529 140.189V92.4498C123.529 85.5916 129.072 80.0405 135.921 80.0405H183.597C190.446 80.0405 195.99 85.5916 195.99 92.4498V140.189C196.008 147.047 190.446 152.598 183.615 152.598Z" fill="white"/>
<path d="M186.619 97.8935V133.331C186.619 137.199 184.241 140.493 180.879 141.872C180.682 141.944 180.485 142.033 180.271 142.087C179.377 142.374 178.411 142.535 177.427 142.535H142.037C136.959 142.535 132.845 138.416 132.845 133.331V97.8935C132.845 92.808 136.959 88.6895 142.037 88.6895H177.427C182.506 88.6895 186.619 92.808 186.619 97.8935Z" fill="#ECEAFF"/>
<path d="M160.027 98.0905C159.044 97.8577 157.881 97.804 156.54 97.9831C156.54 97.9831 154.144 98.2158 151.891 99.7379C150.102 100.956 147.509 103.57 150.406 110.75L151.783 113.222C151.318 118.594 149.137 118.594 149.137 118.594C149.137 118.594 150.102 119.059 150.567 119.059C150.567 119.059 151.247 118.808 151.372 118.432C151.372 118.432 151.247 119.023 151.068 119.202C151.068 119.202 154.806 119.561 156.665 118.146C157.685 117.376 158.793 115.585 159.509 113.741L162.334 113.938C162.37 115.156 161.923 116.534 160.582 118.003C160.582 118.003 164.069 118.343 165.231 117.376C165.231 117.376 164.999 117.842 164.784 118.056C164.784 118.056 168.683 118.2 170.274 116.982C171.866 115.782 170.829 95.8522 160.027 98.0905Z" fill="#233862"/>
<path d="M173.511 142.535H145.971C145.632 140.386 145.435 138.398 145.56 136.482C145.721 134.083 146.776 131.916 148.028 130.143C150.067 127.278 152.606 125.488 152.606 125.488C152.606 125.488 152.678 125.47 152.785 125.452C152.982 125.416 153.321 125.362 153.679 125.327C154.019 125.148 154.162 123.894 154.198 122.426C154.215 122.014 154.215 121.602 154.215 121.172C154.215 120.814 154.215 120.438 154.198 120.08C154.198 119.919 154.198 119.74 154.18 119.579C154.18 119.525 154.18 119.489 154.18 119.435C154.18 119.364 154.18 119.292 154.18 119.22C154.18 119.167 154.18 119.113 154.18 119.059C154.18 118.97 154.18 118.898 154.18 118.809C154.18 118.701 154.18 118.594 154.162 118.486C154.162 118.468 154.162 118.45 154.162 118.415C154.162 118.307 154.162 118.218 154.144 118.128C154.144 118.021 154.126 117.895 154.126 117.788V117.698C154.126 117.519 154.108 117.376 154.108 117.233C154.108 117.197 154.108 117.161 154.108 117.125C154.108 117.09 154.108 117.036 154.108 117C154.108 116.964 154.108 116.928 154.108 116.893C154.108 116.767 154.09 116.678 154.09 116.588C154.09 116.57 154.09 116.552 154.09 116.534C154.09 116.516 154.09 116.499 154.09 116.481C154.09 116.409 154.09 116.355 154.09 116.355L158.74 115.442L161.923 114.815L162.298 114.744L162.388 114.726C162.388 115.926 162.442 117.036 162.567 118.039C162.656 118.898 162.799 119.668 162.96 120.384C163.532 122.963 164.444 124.503 165.088 124.754C165.106 124.771 165.124 124.771 165.16 124.771C168.289 125.47 173.118 133.707 173.511 142.535Z" fill="#D9935C"/>
<path d="M154.054 116.409C154.054 116.409 154.233 118.88 154.233 121.208C158.615 121.083 160.939 117.071 161.887 114.851L154.054 116.409Z" fill="#CB7D45"/>
<path d="M152.588 118.612C152.588 118.612 162.96 118.791 162.978 112.308C162.978 105.844 164.337 101.493 157.703 101.117C151.086 100.741 149.78 103.194 149.262 105.361C148.725 107.509 149.888 118.397 152.588 118.612Z" fill="#D9935C"/>
<path d="M152.964 100.956C152.964 100.956 155.807 108.548 160.17 109.676C164.534 110.804 166.429 109.622 166.429 109.622C166.429 109.622 163.085 106.954 162.388 102.317C162.388 102.317 155.11 97.3385 152.964 100.956Z" fill="#233862"/>
<path d="M153.679 101.564C153.679 101.564 151.551 103.266 151.032 104.913C150.514 106.56 150.281 109.963 149.298 109.837C149.298 109.837 147.152 104.68 149.566 101.761C152.105 98.6635 153.679 101.564 153.679 101.564Z" fill="#233862"/>
<path d="M153.286 101.833C153.286 101.833 155.306 109.784 160.814 112.326C160.814 112.326 155.306 107.438 154.841 102.191C154.376 96.9445 153.286 101.833 153.286 101.833Z" fill="#233862"/>
<path d="M179.52 138.613C179.341 138.184 179.162 137.772 179.001 137.36C178.912 137.163 178.822 136.948 178.751 136.751C178.751 136.733 178.751 136.733 178.751 136.733C176.354 131.039 174.459 126.723 174.262 126.419C173.726 125.506 166.411 124.61 165.356 124.628C164.587 124.628 164.158 122.05 163.979 120.635C163.926 120.241 163.497 120.044 163.175 120.259C163.103 120.313 163.014 120.366 162.942 120.42C162.853 120.474 162.746 120.546 162.656 120.599C162.567 120.653 162.459 120.725 162.37 120.778C162.298 120.814 162.245 120.85 162.173 120.886C162.102 120.922 162.03 120.957 161.959 121.011C161.887 121.047 161.834 121.083 161.762 121.119C161.69 121.154 161.637 121.19 161.565 121.226C161.494 121.262 161.44 121.298 161.369 121.315C161.315 121.333 161.261 121.369 161.208 121.387C161.118 121.423 161.011 121.477 160.921 121.512C160.85 121.548 160.778 121.566 160.707 121.602C160.653 121.62 160.617 121.638 160.564 121.656C160.296 121.763 160.027 121.853 159.759 121.942C157.524 122.676 155.449 122.748 154.251 122.462C154.215 122.462 154.198 122.444 154.162 122.444C153.554 122.282 152.999 122.838 153.125 123.446C153.286 124.181 153.321 124.986 152.91 125.38C151.05 125.792 146.544 126.956 145.685 128.55C145.077 129.696 145.024 136.5 144.702 142.535H145.417H154.09H177.445C178.447 142.535 179.394 142.374 180.289 142.087C180.485 142.016 180.7 141.944 180.897 141.872C180.414 140.762 179.967 139.67 179.52 138.613Z" fill="#F99746"/>
<path d="M169.595 142.535H165.195C166.304 140.69 167.359 139.347 167.985 139.276C168.504 139.222 169.076 140.601 169.595 142.535Z" fill="#ED7D2B"/>
<path d="M165.339 124.61C165.339 124.61 159.866 128.084 155.735 127.26C155.735 127.26 154.734 126.634 156.111 126.007C157.399 125.416 160.385 123.661 159.741 121.942C160.886 121.566 162.048 121.029 163.157 120.259C163.479 120.044 163.926 120.241 163.962 120.635C164.14 122.032 164.57 124.61 165.339 124.61Z" fill="#ED7D2B"/>
<path d="M222.116 143.717C222.116 143.717 230.45 152.258 230.861 155.535C231.272 158.83 226.837 163.969 226.837 163.969L222.116 143.717Z" fill="#ED7D2B"/>
<path d="M218.397 234.163C218.397 234.163 218.111 238.801 217.217 238.872C217.091 238.872 212.674 238.872 212.674 238.872L207.023 238.837C207.023 238.837 207.059 237.476 208.704 237.189C210.35 236.903 213.121 235.739 214.123 233.554C215.178 231.262 218.397 234.163 218.397 234.163Z" fill="#163560"/>
<path d="M230.986 234.163C230.986 234.163 230.7 238.801 229.806 238.872C229.681 238.872 225.264 238.872 225.264 238.872L219.613 238.837C219.613 238.837 219.649 237.476 221.294 237.189C222.939 236.903 225.711 235.739 226.712 233.554C227.767 231.262 230.986 234.163 230.986 234.163Z" fill="#163560"/>
<path d="M212.138 184.293C212.138 184.293 213.622 193.766 219.13 210.562C224.638 227.358 225.389 234.646 225.389 234.646L231.308 234.485C231.308 234.485 231.362 216.113 228.822 207.661C226.283 199.209 228.268 177.202 228.268 177.202L212.138 184.293Z" fill="#163560"/>
<path d="M209.259 177.721C209.259 177.721 209.044 191.993 211.512 209.505C213.98 227.018 213.139 234.449 213.139 234.449L219.041 234.646C219.041 234.646 222.563 217.116 221.562 208.359C220.561 199.603 226.39 178.276 226.39 178.276L209.259 177.721Z" fill="#1C468A"/>
<path d="M220.686 144.343L217.538 146.402L212.996 145.561C213.068 145.185 213.354 143.663 213.64 142.284C213.658 142.194 213.676 142.123 213.694 142.033C213.926 140.851 214.123 139.849 214.123 139.849L218.361 137.968L219.953 137.27C219.953 137.288 219.827 138.577 219.81 138.756C219.506 142.087 220.686 144.343 220.686 144.343Z" fill="#FFB27D"/>
<path d="M214.159 143.305C214.248 143.269 219.631 141.675 220.221 141.872C220.811 142.069 221.151 143.197 221.151 143.197L212.335 145.185C212.352 145.185 213.032 143.77 214.159 143.305Z" fill="#ED7D2B"/>
<path d="M228.662 179.494C227.75 183.666 212.549 184.168 208.633 180.371C208.186 179.942 208.168 177.936 208.329 175.232C208.651 169.95 209.706 161.981 209.759 157.916C209.777 155.947 210.046 153.941 210.403 152.115C211.172 148.229 212.335 145.185 212.335 145.185C212.335 145.185 219.756 142.785 221.151 143.197C227.839 145.167 229.574 175.322 228.662 179.494Z" fill="#FF9843"/>
<path d="M208.347 175.214C208.669 169.932 209.724 161.963 209.777 157.898C209.795 155.929 210.063 153.923 210.421 152.097L214.892 151.309C214.892 151.327 219.255 169.18 208.347 175.214Z" fill="#ED7D2B"/>
<path d="M210.761 167.855C210.761 167.855 211.065 168.589 210.421 169.072C209.777 169.556 209.366 170.362 209.509 170.935C209.652 171.508 211.065 172.457 211.548 172.313C212.031 172.152 213.014 171.4 212.925 171.096C212.835 170.791 213.586 168.41 212.406 167.496C211.226 166.565 210.761 167.855 210.761 167.855Z" fill="#FFB27D"/>
<path d="M215.75 144.11C215.75 144.11 211.405 144.934 207.935 150.037C204.466 155.159 202.177 158.955 202.821 160.799C203.465 162.644 209.277 169.036 210.296 169.036C211.297 169.036 212.925 168.302 213.014 166.655C213.014 166.655 208.919 160.495 209.724 159.582C210.063 159.188 215.053 155.141 215.75 156.967C216.93 160.029 215.75 144.11 215.75 144.11Z" fill="#FF9843"/>
<path d="M219.488 138.828C218.558 140.404 215.088 141.783 213.64 142.284C213.658 142.194 213.676 142.123 213.694 142.033C213.926 140.851 214.123 139.849 214.123 139.849L218.361 137.969C219.309 137.969 219.881 138.183 219.488 138.828Z" fill="#FCA56B"/>
<path d="M212.513 139.598C212.513 139.598 219.345 141.729 220.614 137.449C221.884 133.169 223.619 130.555 219.291 129.015C214.981 127.475 213.64 128.854 212.871 130.179C212.12 131.504 210.779 138.935 212.513 139.598Z" fill="#FFB27D"/>
<path d="M213.157 129.767C213.157 129.767 213.586 134.745 214.624 134.53C215.661 134.315 216.591 134.154 216.43 135.658C216.287 137.163 215.571 139.544 218.754 139.813C221.92 140.081 225.765 131.236 224.888 129.678C222.385 125.201 209.527 124.306 213.157 129.767Z" fill="#163560"/>
<path d="M332.668 50.2796C332.668 50.2796 329.538 53.9863 325.568 52.4284C325.568 52.4284 324.71 50.3513 324.71 48.8292C324.71 48.6501 324.71 48.4532 324.71 48.292C324.692 46.573 324.638 45.606 324.638 45.606C324.817 45.5344 330.719 43.0991 330.719 43.314C330.593 47.9518 332.668 50.2796 332.668 50.2796Z" fill="#FFB27D"/>
<path d="M330.111 44.4062C329.538 45.4627 327.589 47.522 324.71 48.2741C324.692 46.555 324.638 45.5881 324.638 45.5881C324.782 45.5522 330.272 44.1018 330.111 44.4062Z" fill="#ED975D"/>
<path d="M323.387 45.4269C323.387 45.4269 330.021 46.9847 330.933 42.8304C331.845 38.6761 333.312 36.0796 329.109 34.9157C324.907 33.7517 323.744 35.1485 323.101 36.4556C322.457 37.7807 321.688 44.9076 323.387 45.4269Z" fill="#FFB27D"/>
<path d="M330.701 43.9586C330.79 44.0123 332.221 44.46 334.921 39.0701C335.35 38.2285 335.636 36.402 334.653 34.7725C333.669 33.1609 330.164 31.8895 327.249 31.3344C324.334 30.7793 323.637 32.4267 322.958 34.0741C322.242 35.8111 320.15 37.2257 320.15 37.2257C322.654 38.6224 325.694 36.6169 326.731 36.9571C327.786 37.2794 328.144 38.9447 328.233 39.464C328.304 40.0012 328.43 40.431 329.753 39.9654C331.076 39.4999 330.343 41.8277 330.146 42.2754C330.129 42.2933 329.95 43.4751 330.701 43.9586Z" fill="#A9453D"/>
<path d="M347.779 147.459H351.802C352.643 147.459 353.573 146.617 353.805 145.078C354.038 143.538 355.772 142.696 356.148 141.425C356.523 140.153 354.61 138.38 354.61 138.38L354.288 137.969L353.948 137.539L350.765 138.291C350.765 138.291 350.694 139.043 350.64 140.01C350.604 140.708 350.586 141.514 350.622 142.212C350.712 143.896 350.157 145.722 348.655 146.044C347.153 146.367 347.779 147.459 347.779 147.459Z" fill="#2C3A64"/>
<path d="M319.828 147.459H330.468C330.576 147.441 330.647 147.423 330.701 147.388C331.416 147.029 331.184 144.308 331.112 143.466C331.094 143.305 331.076 143.215 331.076 143.215C331.076 143.215 327.339 140.225 326.82 142.517C326.802 142.589 326.784 142.66 326.767 142.732C326.123 144.881 323.208 145.848 321.527 146.134C320.239 146.331 319.917 147.083 319.828 147.459Z" fill="#2C3A64"/>
<path d="M321.974 86.0034C321.974 86.0034 322.546 93.1124 323.208 101.636C324.12 113.239 325.211 127.475 325.318 130.179C325.497 134.871 326.248 142.356 326.248 142.356C326.248 142.356 328.018 144.128 331.577 143.394C331.577 143.394 334.742 132.704 335.654 121.369C335.672 121.19 335.69 120.993 335.69 120.814C336.531 109.3 337.836 85.0186 337.836 85.0186L321.974 86.0034Z" fill="#2B478B"/>
<path d="M321.974 86.0034C321.974 86.0034 322.546 93.1124 323.208 101.636L335.654 121.369C335.672 121.19 335.69 120.993 335.69 120.814C336.531 109.3 337.836 85.0186 337.836 85.0186L321.974 86.0034Z" fill="#233862"/>
<path d="M324.567 86.8451C324.567 86.8451 334.814 112.559 341.556 124.646C348.297 136.733 350.39 140.099 350.39 140.099C350.39 140.099 354.252 138.559 354.592 137.503C354.592 137.503 352.017 114.171 347.511 108.476C344.953 105.271 341.967 95.6194 341.824 92.2529C341.681 88.8865 340.912 82.2073 340.912 82.2073L324.567 86.8451Z" fill="#2B478B"/>
<path d="M347.94 82.1713L348.047 83.8187C348.047 83.8187 346.956 86.7554 350.014 88.2596C350.014 88.2596 351.32 88.7789 351.373 87.7761C351.427 86.7733 351.266 87.1494 351.373 85.6989C351.481 84.2664 350.908 82.9055 349.961 82.4578L349.192 81.5625L347.94 82.1713Z" fill="#FFB27D"/>
<path d="M349.12 83.371C347.993 83.7292 347.797 83.6575 347.797 83.6575C347.797 83.6575 342.271 73.594 341.717 72.6808C341.162 71.7675 330.003 61.3996 330.003 61.3996L332.865 50.6914C332.865 50.6914 345.561 67.1476 346.92 69.5113C349.192 73.4149 350.515 82.4757 350.515 82.4757C350.515 82.4757 350.014 83.0845 349.12 83.371Z" fill="#1E3D70"/>
<path d="M319.81 65.5899C319.846 67.7924 319.971 70.2635 320.15 72.7704C320.168 72.9137 320.168 73.0748 320.186 73.2181C320.293 74.776 320.418 76.3339 320.543 77.8559C320.597 78.4647 320.651 79.0736 320.722 79.6645L320.74 79.7361C320.74 79.951 320.776 80.2017 320.794 80.4166C321.348 86.1109 321.938 90.6054 322.045 90.6771C322.171 90.7666 322.314 90.8024 322.475 90.7845C323.959 90.6054 328.412 90.9278 332.06 90.1399C335.136 89.4952 337.782 88.2597 340.59 86.5944C340.965 86.3795 341.806 85.7886 341.734 85.3588C341.663 84.8753 341.538 84.1949 341.377 83.3174C340.822 80.2912 339.875 75.0804 339.553 68.9742C339.481 67.8461 339.392 66.718 339.285 65.6078C338.981 62.7427 338.48 60.003 337.8 57.5856C336.548 53.091 334.724 49.635 332.418 48.292C332.114 48.1309 330.504 49.1516 329.02 50.1185C327.643 50.9959 326.194 51.2466 324.799 51.1213L323.566 52.5001C322.063 54.237 320.472 56.5649 320.043 59.8597C320.007 60.1104 319.989 60.3611 319.953 60.6297C319.81 61.9906 319.774 63.6918 319.81 65.5899Z" fill="#2A4E96"/>
<path d="M319.81 65.5897C319.846 67.7922 319.971 70.2634 320.15 72.7703C320.168 72.9135 320.168 73.0747 320.186 73.218C328.698 67.8818 330.021 58.1047 330.021 58.1047C325.837 58.2838 322.493 59.2508 319.935 60.6296C319.81 61.9905 319.774 63.6916 319.81 65.5897Z" fill="#1E3D70"/>
<path d="M294.649 56.1889L293.093 55.3831C293.093 55.3831 292.092 52.0703 288.354 52.5538C288.354 52.5538 286.834 52.8582 287.478 53.8073C288.122 54.7563 288.015 54.3087 288.873 55.6696C289.749 57.0305 291.162 57.9079 292.306 57.7467L293.612 58.087L294.649 56.1889Z" fill="#ED975D"/>
<path d="M293.129 56.6185C293.576 55.4367 294.256 55.5083 294.256 55.5083C294.256 55.5083 306.917 58.6599 308.061 58.8031C309.206 58.9464 321.706 53.9146 321.706 53.9146C321.706 53.9146 326.623 51.6942 328.93 53.7176C330.933 55.4725 331.023 57.6929 330.558 59.5552C330.003 61.7756 328.126 63.423 325.855 63.7095C320.758 64.3542 310.583 65.5897 308.437 65.2853C303.698 64.6228 292.932 58.4092 292.932 58.4092C292.932 58.4092 292.771 57.5497 293.129 56.6185Z" fill="#2A4E96"/>
<path d="M114.462 151.38C114.462 151.38 114.82 147.441 110.438 147.441C110.438 147.441 111.762 147.799 112.459 148.515C112.459 148.515 109.669 146.868 106.611 149.393C103.571 151.918 105.467 158.257 104.537 159.456C103.607 160.656 100.013 160.907 100.442 164.792C100.889 168.678 111.887 173.549 111.172 176.772C111.172 176.772 115.481 170.433 112.405 167.532C112.405 167.532 113.908 168.947 114.069 170.63C114.069 170.63 114.48 167.335 112.388 166.297C110.546 165.365 109.026 161.963 109.187 161.354C109.347 160.763 114.462 151.38 114.462 151.38Z" fill="#2C3A64"/>
<path d="M110.492 169.86C109.812 166.601 105.592 165.581 103.589 168.249C103.232 168.732 102.981 169.287 102.892 169.968C102.445 173.674 108.346 188.752 109.187 190.113C110.724 192.602 119.809 201.125 119.809 201.125L121.49 200.105C121.49 200.105 115.052 189.199 114.051 188.179C112.906 186.997 111.78 176.056 110.492 169.86Z" fill="#ED985F"/>
<path d="M109.508 167.837C109.508 167.837 110.796 169.18 111.386 170.773C111.386 170.773 109.33 176.665 104.537 177.417C104.537 177.435 108.328 167.837 109.508 167.837Z" fill="#AA413E"/>
<path d="M113.228 150.825C113.282 150.593 108.024 153.207 107.774 153.494C105.306 156.233 106.003 159.797 107.416 159.832C108.328 159.85 108.149 161.355 108.149 161.355L118.217 157.093C118.217 157.093 117.001 150.02 113.228 150.825Z" fill="#2C3A64"/>
<path d="M102.159 236.365L99.9769 236.043C99.9769 236.043 92.645 230.206 91.5541 219.318C91.4468 218.208 91.4111 217.08 91.5005 215.952C91.5184 215.827 91.5005 215.683 91.4289 215.576C91.1965 215.218 90.6063 214.304 89.8195 213.033C89.0326 211.762 87.7093 209.38 86.2429 206.694C83.5963 201.859 80.5204 196.093 79.4654 194.249C76.1034 188.376 77.7307 184.436 77.7307 184.436C77.7307 184.436 87.1192 183.505 89.6943 181.249L90.6242 182.681C90.6242 182.681 92.6629 191.688 92.5556 191.742C92.6629 192.046 92.7523 192.369 92.8596 192.673C94.469 197.633 96.3109 203.829 97.3124 208.879C97.8846 211.726 98.1708 214.197 98.0098 215.88C97.9562 216.453 98.0277 217.349 98.1707 218.441C99.0649 224.923 102.159 236.365 102.159 236.365Z" fill="#2B478B"/>
<path d="M106.719 239.123H97.6164C97.6164 239.123 97.4018 237.726 97.8668 236.688C98.3138 235.685 98.9755 235.649 97.9562 234.055C98.5284 234.646 100.388 234.897 101.712 234.718C101.873 234.987 102.749 236.741 103.285 237.117C103.893 237.547 106.54 237.404 106.719 239.123Z" fill="#233862"/>
<path d="M92.8238 192.673C92.037 197.06 90.1593 204.366 86.225 206.694C83.5784 201.859 80.5026 196.093 79.4475 194.249C76.0855 188.376 77.7128 184.436 77.7128 184.436C77.7128 184.436 87.1013 183.505 89.6764 181.249L90.6063 182.681C90.6063 182.681 92.645 191.688 92.5377 191.742C92.6271 192.046 92.7344 192.369 92.8238 192.673Z" fill="#233862"/>
<path d="M86.4575 185.117L86.4933 183.415C83.0956 183.845 74.7979 179.351 74.7979 179.351C74.7979 179.351 71.2571 181.714 70.7743 188.465C70.5418 191.76 69.0397 205.673 68.8787 209.846C68.8251 211.35 68.7893 212.424 68.7893 212.854C68.7893 212.979 68.7178 213.105 68.6463 213.212C67.9488 214.107 67.3408 215.056 66.8043 216.023C61.6362 225.657 64.3365 238.747 64.3365 238.747L65.5347 238.443C65.5347 238.443 69.9159 224.869 72.7593 218.996C73.2421 217.993 73.6892 217.223 74.0469 216.775C75.1198 215.468 76.2464 213.248 77.3731 210.58C79.4832 205.53 81.5398 198.869 82.9883 193.712C83.0956 193.73 86.4575 185.117 86.4575 185.117Z" fill="#2B478B"/>
<path d="M106.29 173.746C100.746 172.475 104.287 164.667 104.609 164.811C105.378 164.649 107.059 163.306 108.579 160.674L108.775 160.853L112.173 163.844C112.173 163.844 111.386 165.007 110.724 166.136C110.206 167.031 109.759 167.908 109.83 168.213C110.116 168.428 107.774 174.086 106.29 173.746Z" fill="#FFB27D"/>
<path d="M112.173 163.843C112.173 163.843 111.386 165.007 110.724 166.135C108.614 164.828 108.614 162.214 108.775 160.853L112.173 163.843Z" fill="#ED985F"/>
<path d="M112.28 165.33C112.28 165.33 107.148 162.465 108.972 159.295C110.796 156.126 111.368 153.601 114.73 155.302C118.092 157.003 118.021 158.579 117.663 159.779C117.305 160.996 113.657 165.992 112.28 165.33Z" fill="#FFB27D"/>
<path d="M118.521 157.934C118.289 156.52 117.574 156.394 117.073 156.484C115.177 153.35 112.084 154.568 112.084 154.568C110.42 156.645 108.042 157.003 108.042 157.003C108.042 157.003 108.632 158.113 111.1 158.794C111.851 159.009 112.709 158.883 113.532 158.597C111.833 159.546 110.045 159.904 110.045 159.904C113.282 160.208 116.358 157.236 116.679 156.914C116.823 157.379 117.091 158.328 116.93 159.044C116.715 159.994 115.875 161.73 116.393 161.945C116.375 161.963 118.879 160.047 118.521 157.934Z" fill="#2C3A64"/>
<path d="M71.5611 239.123H62.4588C62.4588 239.123 62.2442 237.726 62.7092 236.688C63.1562 235.685 63.8715 235.219 63.7106 234.002C64.2829 234.593 65.2306 235.273 66.554 235.094C66.7149 235.363 67.5912 236.759 68.1277 237.135C68.7178 237.547 71.3823 237.404 71.5611 239.123Z" fill="#233862"/>
<path d="M106.933 179.924C105.771 180.335 104.126 180.55 102.445 180.747C100.048 181.016 97.5806 181.195 96.293 181.696C95.8281 181.893 95.5062 182.126 95.3989 182.413C94.8445 184.096 92.3588 186.71 92.3588 186.71C76.5147 185.994 74.78 179.351 74.78 179.351C85.4382 166.941 103.482 163.342 103.482 163.342C103.482 163.342 104.769 162.787 108.024 165.383C110.188 167.102 109.902 167.765 109.902 167.765C109.902 167.765 110.385 178.724 106.933 179.924Z" fill="#C65447"/>
<path d="M102.445 180.747C100.048 181.016 97.5806 181.195 96.293 181.696C95.7566 173.782 99.4941 167.837 99.4941 167.837C99.4941 167.837 101.926 177.757 102.445 180.747Z" fill="#AA413E"/>
<path d="M173.261 238.873H129.412C123.117 238.873 118.021 233.769 118.021 227.466V183.559C118.021 177.256 123.117 172.152 129.412 172.152H173.261C179.555 172.152 184.652 177.256 184.652 183.559V227.466C184.652 233.769 179.555 238.873 173.261 238.873Z" fill="white"/>
<path d="M176.032 188.573V221.145C176.032 223.383 175.174 225.407 173.761 226.911C172.223 228.576 170.024 229.615 167.574 229.615H135.027C132.524 229.615 130.27 228.522 128.715 226.785C127.373 225.281 126.569 223.312 126.569 221.145V188.573C126.569 183.899 130.36 180.103 135.027 180.103H167.556C172.241 180.121 176.032 183.899 176.032 188.573Z" fill="#D2E4FF"/>
<path d="M144.934 204.635C144.934 204.635 140.213 196.058 144.541 192.279C148.869 188.483 156.504 190.757 157.899 192.279C159.294 193.801 161.172 198.153 157.291 204.33L144.934 204.635Z" fill="#2C3A64"/>
<path d="M146.884 208.162C146.884 208.162 146.705 213.463 146.043 215.826L140.678 219.569L160.85 222.595L156.04 215.934C156.04 215.934 154.591 208.825 155.342 206.211C156.111 203.596 146.884 208.162 146.884 208.162Z" fill="#B56F40"/>
<path d="M146.866 208.897C146.866 208.897 148.457 212.747 151.462 212.657C154.466 212.568 155.145 209.165 155.145 209.165L146.866 208.897Z" fill="#99592E"/>
<path d="M151.104 211.171C148.922 211.135 144.916 208.234 144.916 204.635V199.03C144.916 197.723 145.828 196.648 146.955 196.648H155.253C156.361 196.648 157.291 197.723 157.291 199.03V204.312C157.291 208.091 153.607 211.224 151.104 211.171Z" fill="#B56F40"/>
<path d="M173.761 226.929C172.223 228.594 170.024 229.633 167.574 229.633H135.027C132.524 229.633 130.27 228.54 128.715 226.803C135.689 217.528 140.106 216.937 140.231 216.919C141.054 216.668 143.057 216.077 146.061 215.773C146.061 215.845 148.404 219.283 151.158 219.659C152.874 218.978 154.144 218.316 156.022 215.827C158.15 216.077 160.492 216.561 162.942 217.188V217.17C162.924 217.17 167.055 218.208 173.761 226.929Z" fill="#74ACBE"/>
<path d="M144.934 201.304C144.934 201.304 146.436 196.684 151.39 197.401C156.344 198.117 156.773 199.173 157.291 200.409C157.81 201.645 158.829 195.914 158.829 195.914L152.982 194.177C152.982 194.177 145.918 194.983 145.399 196.165C144.899 197.347 144.899 197.347 144.899 197.347L144.934 201.304Z" fill="#2C3A64"/>
<path d="M150.71 192.369C150.71 192.369 145.471 187.606 147.724 186.585C149.959 185.582 150.71 192.369 150.71 192.369Z" fill="#2C3A64"/>
<path d="M150.496 192.494C150.496 192.494 143.879 190.005 145.596 188.233C147.313 186.46 150.496 192.494 150.496 192.494Z" fill="#2C3A64"/>
<path d="M150.925 192.637C150.925 192.637 149.834 186.495 152.463 186.549C155.074 186.585 150.925 192.637 150.925 192.637Z" fill="#2C3A64"/>
<path d="M151.301 192.226C151.301 192.226 154.126 185.618 156.773 186.245C159.401 186.872 151.301 192.226 151.301 192.226Z" fill="#2C3A64"/>
<path d="M151.158 192.638C151.158 192.638 155.664 187.051 158.042 188.358C160.403 189.665 151.158 192.638 151.158 192.638Z" fill="#2C3A64"/>
<path d="M104.913 166.315C104.913 166.315 98.9219 166.906 98.439 170.809C97.9562 174.713 104.179 190.596 105.074 192.029C106.701 194.643 116.268 203.632 116.268 203.632L118.039 202.558C118.039 202.558 111.261 191.062 110.206 189.987C108.543 188.304 106.933 167.658 104.913 166.315Z" fill="#FFB27D"/>
<path d="M98.5999 173.155C98.6178 173.245 104.126 174.964 107.684 173.155C107.684 173.155 108.435 164.954 104.197 165.401C99.959 165.849 97.4554 167.192 97.3481 169.216C97.2408 171.239 98.5999 173.155 98.5999 173.155Z" fill="#C65447"/>
<path d="M116.25 203.632C116.25 203.632 115.517 206.443 116.25 207.715C116.983 208.986 118.021 209.971 118.021 209.971V202.558L116.25 203.632Z" fill="#FFB27D"/>
<path d="M318.075 238.873H271.276L286.655 172.152H331.201L333.258 173.066L318.075 238.873Z" fill="#CCA07F"/>
<path d="M315.822 238.873H269.005L284.402 172.152H331.201L315.822 238.873Z" fill="#E3F0FF"/>
<path d="M318.63 181.535H297.027C296.545 181.535 296.062 181.929 295.954 182.413C295.847 182.896 296.151 183.29 296.616 183.29H318.219C318.701 183.29 319.184 182.896 319.292 182.413C319.417 181.929 319.113 181.535 318.63 181.535Z" fill="#CBE2F7"/>
<path d="M318.165 186.155H295.364C295.221 186.155 295.078 186.281 295.042 186.424C295.007 186.567 295.096 186.692 295.239 186.692H318.04C318.183 186.692 318.326 186.567 318.362 186.424C318.415 186.281 318.308 186.155 318.165 186.155Z" fill="#CBE2F7"/>
<path d="M317.897 187.391H295.096C294.953 187.391 294.81 187.516 294.774 187.659C294.738 187.803 294.828 187.928 294.971 187.928H317.772C317.915 187.928 318.058 187.803 318.093 187.659C318.129 187.498 318.04 187.391 317.897 187.391Z" fill="#CBE2F7"/>
<path d="M287.12 183.272H292.95C293.433 183.272 293.916 182.878 294.023 182.395C294.13 181.911 293.826 181.517 293.361 181.517H287.532C287.049 181.517 286.566 181.911 286.459 182.395C286.334 182.878 286.638 183.272 287.12 183.272Z" fill="#CBE2F7"/>
<path d="M315.071 195.001H293.469C292.986 195.001 292.503 195.395 292.396 195.878C292.288 196.362 292.593 196.756 293.057 196.756H314.66C315.143 196.756 315.626 196.362 315.733 195.878C315.858 195.395 315.554 195.001 315.071 195.001Z" fill="#CBE2F7"/>
<path d="M314.606 199.639H291.806C291.663 199.639 291.52 199.764 291.484 199.908C291.448 200.051 291.537 200.176 291.68 200.176H314.481C314.624 200.176 314.767 200.051 314.803 199.908C314.857 199.746 314.749 199.639 314.606 199.639Z" fill="#CBE2F7"/>
<path d="M314.338 200.856H291.537C291.394 200.856 291.251 200.982 291.216 201.125C291.18 201.268 291.269 201.394 291.412 201.394H314.213C314.356 201.394 314.499 201.268 314.535 201.125C314.57 200.982 314.481 200.856 314.338 200.856Z" fill="#CBE2F7"/>
<path d="M283.562 196.738H289.392C289.874 196.738 290.357 196.344 290.464 195.861C290.572 195.377 290.268 194.983 289.803 194.983H283.955C283.472 194.983 282.989 195.377 282.882 195.861C282.775 196.344 283.079 196.738 283.562 196.738Z" fill="#CBE2F7"/>
<path d="M312.246 208.467H290.643C290.16 208.467 289.678 208.861 289.57 209.344C289.463 209.828 289.767 210.222 290.232 210.222H311.834C312.317 210.222 312.8 209.828 312.907 209.344C313.015 208.861 312.711 208.467 312.246 208.467Z" fill="#CBE2F7"/>
<path d="M311.781 213.105H288.98C288.837 213.105 288.694 213.23 288.658 213.373C288.623 213.517 288.712 213.642 288.855 213.642H311.656C311.799 213.642 311.942 213.517 311.977 213.373C312.013 213.212 311.924 213.105 311.781 213.105Z" fill="#CBE2F7"/>
<path d="M311.495 214.322H288.694C288.551 214.322 288.408 214.448 288.372 214.591C288.336 214.734 288.426 214.859 288.569 214.859H311.369C311.513 214.859 311.656 214.734 311.691 214.591C311.727 214.448 311.638 214.322 311.495 214.322Z" fill="#CBE2F7"/>
<path d="M280.718 210.204H286.548C287.031 210.204 287.514 209.81 287.621 209.326C287.728 208.843 287.424 208.449 286.959 208.449H281.13C280.647 208.449 280.164 208.843 280.057 209.326C279.949 209.828 280.253 210.204 280.718 210.204Z" fill="#CBE2F7"/>
<path d="M308.937 222.488H287.335C286.852 222.488 286.369 222.882 286.262 223.365C286.155 223.849 286.459 224.243 286.924 224.243H308.526C309.009 224.243 309.492 223.849 309.599 223.365C309.706 222.882 309.42 222.488 308.937 222.488Z" fill="#CBE2F7"/>
<path d="M308.472 227.125H285.672C285.529 227.125 285.386 227.251 285.35 227.394C285.314 227.537 285.404 227.663 285.547 227.663H308.347C308.49 227.663 308.633 227.537 308.669 227.394C308.705 227.233 308.616 227.125 308.472 227.125Z" fill="#CBE2F7"/>
<path d="M308.186 228.343H285.386C285.243 228.343 285.1 228.469 285.064 228.612C285.028 228.755 285.118 228.88 285.261 228.88H308.061C308.204 228.88 308.347 228.755 308.383 228.612C308.419 228.469 308.329 228.343 308.186 228.343Z" fill="#CBE2F7"/>
<path d="M283.651 222.488H277.821C277.338 222.488 276.856 222.882 276.748 223.365C276.641 223.849 276.945 224.243 277.41 224.243H283.24C283.723 224.243 284.205 223.849 284.313 223.365C284.438 222.882 284.134 222.488 283.651 222.488Z" fill="#CBE2F7"/>
<path d="M315.053 177.077H296.92C295.686 177.077 294.756 175.913 295.042 174.713L295.722 171.758H318.058L317.217 175.358C316.985 176.36 316.091 177.077 315.053 177.077Z" fill="#EE9849"/>
<path d="M318.058 171.74L319.596 172.152H317.95L318.058 171.74Z" fill="#ED7D2B"/>
<path d="M328.752 237.332C328.752 237.762 328.573 238.156 328.305 238.425C328.108 238.622 327.84 238.783 327.554 238.836C327.446 238.854 327.321 238.872 327.214 238.872H283.58C282.721 238.872 282.024 238.174 282.024 237.314C282.024 236.885 282.203 236.491 282.471 236.222C282.757 235.936 283.133 235.774 283.562 235.774H327.196C327.321 235.774 327.428 235.792 327.536 235.81C328.233 235.971 328.752 236.598 328.752 237.332Z" fill="#EE9849"/>
<path d="M327.553 235.774L333.24 237.046L327.553 238.872V235.774Z" fill="#739AF0"/>
<path d="M293.183 235.774V238.872H283.562C282.703 238.872 282.006 238.174 282.006 237.314C282.006 236.885 282.185 236.491 282.453 236.222C282.739 235.936 283.115 235.774 283.544 235.774H293.183Z" fill="#739AF0"/>
</g>
<defs>
<clipPath id="clip0_1_324">
<rect width="361" height="239" fill="white" transform="translate(0.333984 0.123047)"/>
</clipPath>
</defs>
</svg>
