<svg width="300" height="241" viewBox="0 0 300 241" fill="none" xmlns="http://www.w3.org/2000/svg">
<path d="M247.924 15.8824H42.264C39.9406 15.8824 38.057 17.768 38.057 20.094V78.3193C38.057 80.6453 39.9406 82.5308 42.264 82.5308H247.924C250.248 82.5308 252.131 80.6453 252.131 78.3193V20.094C252.131 17.768 250.248 15.8824 247.924 15.8824Z" fill="white"/>
<path d="M90.9243 56.3583C94.8692 46.8241 90.3465 35.8937 80.8225 31.9445C71.2985 27.9953 60.3797 32.5228 56.4347 42.057C52.4897 51.5912 57.0124 62.5216 66.5365 66.4708C76.0605 70.42 86.9793 65.8925 90.9243 56.3583Z" fill="#FF8863"/>
<path d="M77.9574 45.7709C80.292 43.4363 80.2921 39.6511 77.9574 37.3165C75.6228 34.9818 71.8376 34.9819 69.503 37.3165C67.1683 39.6511 67.1683 43.4363 69.503 45.7709C71.8376 48.1056 75.6228 48.1056 77.9574 45.7709Z" fill="white"/>
<path d="M74.7269 50.0201H72.7728C69.6951 50.0201 66.9074 51.2683 64.8895 53.2848C63.9652 54.21 63.2027 55.2963 62.6479 56.4981C62.1533 57.5693 62.3713 58.841 63.1864 59.6942C64.9313 61.5205 67.145 62.8944 69.6357 63.6223C70.9404 64.0065 72.3205 64.2109 73.7498 64.2109C75.1792 64.2109 76.5607 64.0065 77.8654 63.6223C80.3543 62.8945 82.5683 61.5212 84.3133 59.6962C85.1408 58.8309 85.3397 57.5418 84.8331 56.4569C83.0574 52.6543 79.1998 50.0201 74.7269 50.0201Z" fill="white"/>
<path d="M205.378 39.4541H105.891V43.021H205.378V39.4541Z" fill="#E0CBFF"/>
<path d="M235.172 47.4232H105.891V50.9901H235.172V47.4232Z" fill="#E0CBFF"/>
<path d="M235.172 55.3937H105.891V58.9605H235.172V55.3937Z" fill="#E0CBFF"/>
<path d="M273.78 8.01733H222.145C221.406 8.01733 220.808 8.61645 220.808 9.3555V39.5786C220.808 40.3176 221.406 40.9168 222.145 40.9168H273.78C274.518 40.9168 275.117 40.3176 275.117 39.5786V9.3555C275.117 8.61645 274.518 8.01733 273.78 8.01733Z" fill="#FFCA28"/>
<path d="M274.724 8.41311L247.958 35.26L221.192 8.41311C221.204 8.39841 221.217 8.38518 221.233 8.3737C221.479 8.14661 221.801 8.02057 222.136 8.02064H273.78C274.114 8.01933 274.436 8.14559 274.68 8.3737C274.697 8.38491 274.711 8.39815 274.724 8.41311Z" fill="#FFB300"/>
<path d="M274.684 8.37369L247.963 30.1327L221.241 8.37369C221.487 8.1466 221.81 8.02056 222.145 8.02063H273.788C274.121 8.02052 274.441 8.1467 274.684 8.37369Z" fill="#FFD54F"/>
<path d="M282.999 8.01562C282.999 9.57431 282.537 11.098 281.672 12.394C280.807 13.69 279.577 14.7001 278.139 15.2966C276.7 15.8931 275.117 16.0491 273.59 15.745C272.063 15.441 270.66 14.6904 269.559 13.5882C268.458 12.4861 267.709 11.0818 267.405 9.5531C267.101 8.02436 267.257 6.43978 267.853 4.99974C268.449 3.55971 269.458 2.32889 270.752 1.46293C272.047 0.596969 273.569 0.134766 275.126 0.134766C277.214 0.134766 279.216 0.965066 280.693 2.44301C282.169 3.92096 282.999 5.92549 282.999 8.01562Z" fill="#F9394A"/>
<path d="M276.327 4.23309C276.349 4.235 276.371 4.235 276.393 4.23309C276.423 4.23136 276.454 4.23136 276.484 4.23309C276.508 4.23069 276.532 4.23467 276.555 4.24463C276.577 4.25459 276.596 4.27017 276.61 4.28983C276.647 4.30183 276.68 4.32236 276.708 4.34975C276.735 4.37714 276.755 4.41062 276.767 4.44745C276.798 4.52832 276.818 4.61327 276.824 4.69963C276.816 4.69963 276.801 4.73116 276.78 4.79421C276.762 4.84489 276.751 4.89801 276.749 4.95182C276.75 4.9789 276.758 5.00511 276.774 5.02748C276.793 5.05992 276.801 5.09722 276.799 5.13466C276.799 5.18779 276.793 5.24074 276.78 5.29228C276.767 5.34381 276.761 5.39677 276.761 5.44989C276.774 5.49615 276.78 5.54384 276.78 5.59175V5.88492C276.781 5.9277 276.774 5.97029 276.761 6.01101C276.776 6.06226 276.782 6.11543 276.78 6.16863V6.25689C276.781 6.28542 276.775 6.31375 276.761 6.33885C276.761 6.4019 276.764 6.47125 276.771 6.54691C276.777 6.62256 276.78 6.69822 276.78 6.77388V6.8716C276.779 6.90698 276.772 6.94199 276.761 6.97563V6.98824C276.773 7.03562 276.78 7.08432 276.78 7.13324V7.43272C276.78 7.47649 276.774 7.52003 276.761 7.56196C276.791 7.62694 276.804 7.69857 276.799 7.77002C276.8 7.80602 276.794 7.8419 276.781 7.87549C276.768 7.90909 276.748 7.93969 276.723 7.96546C276.741 8.0159 276.758 8.06003 276.774 8.10102C276.791 8.14397 276.8 8.19012 276.799 8.23656C276.799 8.287 276.799 8.3532 276.799 8.43831C276.798 8.5026 276.788 8.56638 276.767 8.62746C276.781 8.65918 276.788 8.6937 276.786 8.72833C276.787 8.76272 276.784 8.79709 276.777 8.83078C276.77 8.86554 276.767 8.90095 276.767 8.93638C276.762 8.98525 276.776 9.03432 276.805 9.07351V9.2201C276.807 9.25802 276.799 9.29575 276.78 9.32885C276.765 9.35461 276.756 9.38391 276.755 9.41396C276.755 9.45211 276.764 9.48972 276.78 9.5243C276.797 9.55867 276.805 9.59641 276.805 9.63463C276.805 9.68876 276.795 9.74238 276.774 9.79224C276.754 9.84236 276.743 9.89582 276.742 9.94986C276.74 9.99792 276.753 10.0454 276.78 10.0854C276.809 10.1328 276.822 10.1879 276.818 10.243C276.821 10.2886 276.812 10.3343 276.793 10.3754C276.773 10.4167 276.765 10.4623 276.767 10.5078C276.78 10.5354 276.787 10.5656 276.786 10.5961V10.8041C276.787 10.8306 276.781 10.8568 276.767 10.8798C276.78 10.9484 276.786 11.0181 276.786 11.0879V11.5008C276.787 11.5633 276.78 11.6256 276.767 11.6868C276.79 11.7407 276.803 11.7984 276.805 11.857C276.806 11.9251 276.797 11.993 276.78 12.0588C276.764 12.1206 276.756 12.1841 276.755 12.2479C276.754 12.2822 276.763 12.3159 276.78 12.3456C276.798 12.3751 276.807 12.409 276.805 12.4434C276.793 12.5179 276.755 12.5858 276.698 12.6357C276.672 12.6695 276.638 12.6974 276.6 12.7175C276.562 12.7376 276.521 12.7495 276.478 12.7523C276.435 12.7531 276.391 12.75 276.349 12.7428C276.316 12.7364 276.284 12.7333 276.251 12.7334C276.114 12.7321 275.977 12.7427 275.842 12.7649C275.719 12.7854 275.595 12.796 275.47 12.7964C275.435 12.7878 275.399 12.7835 275.363 12.7838H275.029C274.93 12.7893 274.83 12.7765 274.735 12.746C274.683 12.7271 274.639 12.6917 274.609 12.6451C274.583 12.6014 274.565 12.5534 274.555 12.5033C274.544 12.4512 274.53 12.3929 274.514 12.3299V12.3173L274.495 12.2716H274.483V11.9689C274.478 11.9008 274.493 11.8328 274.527 11.7735C274.558 11.7268 274.573 11.6717 274.571 11.6159C274.571 11.5626 274.564 11.5095 274.549 11.4583C274.533 11.4041 274.526 11.3477 274.527 11.2912C274.528 11.2334 274.538 11.176 274.555 11.121C274.574 11.0596 274.583 10.9959 274.584 10.9318C274.59 10.8609 274.57 10.79 274.527 10.7332C274.482 10.668 274.461 10.5884 274.47 10.5094C274.469 10.4497 274.48 10.3905 274.505 10.336C274.523 10.3018 274.535 10.2644 274.54 10.2257C274.538 10.1843 274.528 10.1437 274.511 10.1059C274.494 10.0661 274.484 10.0233 274.483 9.97981C274.483 9.93728 274.488 9.89491 274.499 9.85372C274.508 9.8145 274.514 9.77432 274.514 9.73393C274.514 9.70517 274.507 9.67696 274.492 9.65197C274.476 9.62316 274.469 9.59037 274.47 9.5574C274.47 9.51295 274.474 9.4686 274.483 9.425C274.49 9.38549 274.495 9.34542 274.495 9.30521C274.495 9.26599 274.491 9.22689 274.483 9.18857C274.474 9.15514 274.47 9.12068 274.47 9.08612C274.471 9.03284 274.478 8.97985 274.492 8.9285C274.506 8.87447 274.514 8.81887 274.514 8.763C274.517 8.73237 274.51 8.70169 274.495 8.67474C274.527 8.60118 274.542 8.52153 274.54 8.44147C274.541 8.42362 274.541 8.40572 274.54 8.38787C274.537 8.36586 274.537 8.34369 274.54 8.32168C274.533 8.23386 274.553 8.14611 274.596 8.06949C274.579 8.06003 274.565 8.02536 274.555 7.96546C274.547 7.92698 274.542 7.88802 274.54 7.84883C274.54 7.80838 274.545 7.76811 274.555 7.72904C274.565 7.6898 274.57 7.64963 274.571 7.60925C274.571 7.5889 274.568 7.56865 274.562 7.54936C274.562 7.53044 274.547 7.50522 274.54 7.47685C274.56 7.3726 274.574 7.26738 274.584 7.16161C274.591 7.05654 274.597 6.95146 274.603 6.84638C274.603 6.78333 274.592 6.72186 274.584 6.66039C274.574 6.59988 274.555 6.54131 274.527 6.48701C274.499 6.43498 274.459 6.39059 274.41 6.35777C274.34 6.32128 274.26 6.30492 274.181 6.31048C274.123 6.31129 274.065 6.32195 274.011 6.34201C273.943 6.3639 273.873 6.37454 273.803 6.37353C273.712 6.37369 273.622 6.36843 273.532 6.35777C273.44 6.34708 273.347 6.34182 273.255 6.34201H273.135C273.101 6.34034 273.067 6.33165 273.036 6.31647C273.005 6.30129 272.978 6.27994 272.956 6.25374C272.908 6.21377 272.878 6.1575 272.871 6.09613C272.869 6.02613 272.887 5.95713 272.924 5.89753C272.962 5.83501 272.987 5.76523 272.997 5.69263C273.061 5.63524 273.109 5.56108 273.135 5.47826C273.164 5.39041 273.219 5.31345 273.293 5.2576C273.305 5.2245 273.315 5.1914 273.324 5.15672C273.333 5.12205 273.343 5.0858 273.356 5.04324C273.381 4.97704 273.411 4.90296 273.447 4.82258C273.483 4.7421 273.526 4.66507 273.576 4.59246C273.622 4.52352 273.675 4.45914 273.733 4.40016C273.788 4.34695 273.854 4.3061 273.925 4.28037C274.072 4.26461 274.228 4.25043 274.398 4.2394C274.568 4.22836 274.732 4.22363 274.905 4.22363C275.117 4.22363 275.328 4.22363 275.535 4.24255C275.741 4.26146 275.936 4.26146 276.12 4.26146H276.237C276.268 4.25826 276.299 4.2486 276.327 4.23309ZM275.371 5.97949C275.366 5.97074 275.359 5.96367 275.35 5.95917C275.341 5.95468 275.33 5.95297 275.32 5.95427C275.291 5.95427 275.275 5.9653 275.275 5.98579C275.274 6.00344 275.279 6.02089 275.287 6.03623H275.346C275.371 6.03623 275.382 6.02519 275.382 6.0047C275.376 5.99684 275.372 5.98763 275.371 5.97791V5.97949ZM275.879 7.03237C275.884 7.0263 275.888 7.01923 275.89 7.01163C275.893 7.00403 275.893 6.99607 275.892 6.98824C275.892 6.98036 275.892 6.97563 275.867 6.97563C275.842 6.97563 275.834 6.97563 275.829 6.97563C275.824 6.97563 275.813 6.97563 275.791 6.97563L275.772 6.96302C275.763 6.97405 275.755 6.98709 275.751 7.00124C275.746 7.01538 275.745 7.03031 275.747 7.04498H275.829C275.838 7.04765 275.847 7.04773 275.856 7.04522C275.865 7.04271 275.873 7.0377 275.879 7.03079V7.03237ZM275.829 5.79665V5.78404C275.829 5.76828 275.816 5.75882 275.791 5.75882C275.766 5.75882 275.76 5.76828 275.76 5.78404L275.779 5.80926C275.783 5.81349 275.788 5.81681 275.793 5.81898C275.798 5.82116 275.804 5.82214 275.81 5.82187C275.82 5.82029 275.826 5.80926 275.829 5.79508V5.79665ZM275.898 7.45478C275.886 7.43745 275.876 7.42956 275.867 7.42956C275.855 7.42768 275.843 7.42866 275.831 7.43243C275.819 7.4362 275.809 7.44265 275.8 7.45125C275.792 7.45986 275.785 7.47037 275.782 7.48194C275.778 7.49351 275.777 7.50581 275.779 7.51783C275.854 7.51625 275.895 7.49419 275.898 7.45321V7.45478Z" fill="white"/>
<path d="M259.787 174.065H54.1268C51.8033 174.065 49.9197 175.951 49.9197 178.277V236.502C49.9197 238.828 51.8033 240.714 54.1268 240.714H259.787C262.111 240.714 263.994 238.828 263.994 236.502V178.277C263.994 175.951 262.111 174.065 259.787 174.065Z" fill="white"/>
<path d="M102.791 214.54C106.736 205.006 102.214 194.075 92.6896 190.126C83.1656 186.177 72.2468 190.705 68.3018 200.239C64.3568 209.773 68.8795 220.703 78.4035 224.653C87.9276 228.602 98.8463 224.074 102.791 214.54Z" fill="#FF8863"/>
<path d="M217.243 197.637H117.756V201.204H217.243V197.637Z" fill="#E0CBFF"/>
<path d="M247.037 205.606H117.756V209.173H247.037V205.606Z" fill="#E0CBFF"/>
<path d="M247.037 213.577H117.756V217.144H247.037V213.577Z" fill="#E0CBFF"/>
<path d="M290.031 160.085H236.957C236.198 160.085 235.584 160.7 235.584 161.459V192.525C235.584 193.284 236.198 193.9 236.957 193.9H290.031C290.789 193.9 291.404 193.284 291.404 192.525V161.459C291.404 160.7 290.789 160.085 290.031 160.085Z" fill="#FFCA28"/>
<path d="M291 160.491L263.496 188.085L235.988 160.491C235.999 160.475 236.013 160.461 236.029 160.449C236.283 160.216 236.615 160.086 236.959 160.086H290.034C290.377 160.084 290.708 160.214 290.959 160.449C290.975 160.461 290.989 160.475 291 160.491Z" fill="#FFB300"/>
<path d="M290.959 160.449L263.495 182.813L236.028 160.449C236.282 160.216 236.614 160.086 236.959 160.086H290.033C290.377 160.084 290.708 160.214 290.959 160.449Z" fill="#FFD54F"/>
<path d="M299.499 160.085C299.499 161.688 299.024 163.254 298.135 164.587C297.245 165.919 295.981 166.958 294.502 167.571C293.023 168.184 291.395 168.345 289.825 168.032C288.255 167.72 286.813 166.948 285.681 165.815C284.549 164.681 283.778 163.238 283.466 161.666C283.153 160.094 283.313 158.465 283.926 156.984C284.539 155.503 285.576 154.238 286.907 153.347C288.239 152.457 289.803 151.982 291.404 151.982C292.467 151.982 293.52 152.191 294.502 152.598C295.484 153.005 296.377 153.602 297.129 154.355C297.88 155.107 298.476 156.001 298.883 156.984C299.29 157.967 299.499 159.021 299.499 160.085Z" fill="#F9394A"/>
<path d="M292.661 155.722C292.735 155.74 292.812 155.744 292.888 155.734C292.964 155.724 293.042 155.74 293.108 155.78C293.136 155.786 293.164 155.795 293.192 155.805C293.24 155.823 293.297 155.843 293.363 155.864C293.431 155.886 293.496 155.914 293.558 155.949C293.613 155.977 293.66 156.017 293.697 156.065C293.74 156.071 293.779 156.091 293.81 156.121C293.856 156.157 293.897 156.193 293.936 156.231C293.971 156.264 294.004 156.299 294.034 156.336C294.059 156.371 294.072 156.382 294.072 156.37C294.189 156.456 294.286 156.567 294.357 156.694C294.427 156.821 294.507 156.942 294.596 157.057V157.095C294.593 157.158 294.611 157.221 294.648 157.273C294.684 157.325 294.703 157.387 294.7 157.451C294.703 157.479 294.703 157.508 294.7 157.536C294.735 157.618 294.755 157.705 294.758 157.794C294.758 157.861 294.754 157.927 294.746 157.993C294.736 158.056 294.732 158.12 294.731 158.184V158.294C294.733 158.328 294.742 158.361 294.758 158.39C294.724 158.425 294.699 158.467 294.684 158.513C294.673 158.553 294.664 158.594 294.657 158.635C294.652 158.67 294.642 158.705 294.626 158.737C294.607 158.768 294.578 158.792 294.544 158.805C294.53 158.846 294.524 158.889 294.525 158.932C294.526 158.956 294.521 158.979 294.511 158.999C294.5 159.02 294.485 159.038 294.467 159.052C294.45 159.077 294.426 159.097 294.399 159.111C294.384 159.118 294.372 159.131 294.365 159.146C294.357 159.161 294.354 159.177 294.357 159.194C294.306 159.302 294.22 159.389 294.114 159.443C294.061 159.47 294.015 159.507 293.976 159.552C293.938 159.598 293.909 159.65 293.891 159.706C293.903 159.743 293.924 159.776 293.951 159.803C293.978 159.831 294.012 159.851 294.048 159.864C294.128 159.893 294.2 159.94 294.261 159.999C294.286 160.004 294.309 160.014 294.33 160.028C294.351 160.043 294.369 160.061 294.382 160.083C294.392 160.103 294.406 160.121 294.423 160.136C294.44 160.15 294.46 160.161 294.481 160.168C294.549 160.23 294.61 160.299 294.662 160.375C294.712 160.448 294.756 160.527 294.793 160.608C294.904 160.774 294.989 160.956 295.045 161.149C295.113 161.434 295.144 161.727 295.134 162.02C295.138 162.126 295.127 162.232 295.103 162.335C295.081 162.414 295.062 162.479 295.045 162.526C295.028 162.57 295.009 162.614 294.986 162.655C294.964 162.695 294.953 162.739 294.953 162.785C294.956 162.814 294.963 162.843 294.974 162.87C294.972 162.906 294.963 162.941 294.946 162.973C294.929 163.005 294.905 163.033 294.876 163.054C294.848 163.074 294.825 163.101 294.811 163.132C294.796 163.163 294.79 163.198 294.793 163.232C294.784 163.278 294.763 163.321 294.731 163.355C294.702 163.388 294.668 163.416 294.631 163.439C294.591 163.488 294.566 163.548 294.56 163.61C294.558 163.64 294.547 163.668 294.528 163.69C294.51 163.713 294.484 163.729 294.456 163.737C294.381 163.768 294.318 163.823 294.278 163.894C294.258 163.932 294.229 163.964 294.195 163.99C294.161 164.015 294.121 164.032 294.08 164.041C293.925 164.196 293.75 164.329 293.56 164.438C293.359 164.558 293.135 164.632 292.902 164.655C292.833 164.659 292.767 164.679 292.708 164.714C292.646 164.75 292.574 164.768 292.502 164.766C292.461 164.764 292.421 164.753 292.385 164.733C292.297 164.788 292.195 164.819 292.091 164.821H291.751C291.621 164.826 291.492 164.808 291.368 164.769C291.341 164.785 291.31 164.794 291.279 164.794C291.248 164.796 291.217 164.792 291.187 164.782C291.158 164.772 291.128 164.768 291.097 164.769H291C290.94 164.769 290.902 164.752 290.89 164.717C290.808 164.673 290.715 164.653 290.622 164.662C290.576 164.667 290.53 164.663 290.487 164.648C290.443 164.632 290.404 164.608 290.372 164.575C290.329 164.562 290.279 164.55 290.224 164.539L290.066 164.504C290.008 164.467 289.952 164.427 289.898 164.384C289.84 164.338 289.775 164.304 289.704 164.283C289.624 164.263 289.552 164.222 289.493 164.164C289.435 164.105 289.378 164.041 289.321 163.973C289.266 163.904 289.207 163.839 289.144 163.778C289.079 163.718 289.009 163.665 288.934 163.62C288.928 163.559 288.906 163.5 288.87 163.45C288.835 163.404 288.799 163.355 288.763 163.303C288.726 163.251 288.692 163.201 288.659 163.146C288.624 163.087 288.603 163.022 288.597 162.955C288.557 162.887 288.532 162.81 288.526 162.731C288.518 162.651 288.489 162.574 288.441 162.509C288.443 162.46 288.431 162.411 288.407 162.368C288.381 162.325 288.368 162.274 288.37 162.223V162.178C288.36 162.122 288.354 162.066 288.352 162.009C288.347 161.863 288.389 161.719 288.471 161.598C288.512 161.54 288.566 161.492 288.628 161.458C288.69 161.424 288.759 161.404 288.83 161.401L288.999 161.426C289.051 161.435 289.103 161.44 289.156 161.44C289.271 161.44 289.392 161.44 289.515 161.426C289.638 161.412 289.761 161.413 289.887 161.413H290.359C290.489 161.4 290.619 161.435 290.724 161.511C290.732 161.595 290.756 161.676 290.795 161.751C290.834 161.829 290.852 161.916 290.847 162.003V162.08C290.861 162.092 290.872 162.108 290.88 162.124C290.888 162.141 290.892 162.159 290.893 162.178C290.894 162.197 290.9 162.217 290.91 162.234C290.92 162.251 290.934 162.265 290.951 162.275C291.039 162.411 291.149 162.532 291.275 162.632C291.42 162.741 291.598 162.796 291.779 162.789C291.87 162.793 291.961 162.781 292.048 162.755C292.108 162.732 292.166 162.703 292.22 162.669C292.27 162.638 292.319 162.605 292.362 162.573C292.41 162.538 292.463 162.511 292.519 162.491C292.544 162.469 292.565 162.443 292.581 162.414C292.6 162.379 292.622 162.342 292.648 162.301C292.671 162.265 292.691 162.228 292.71 162.19C292.724 162.159 292.738 162.141 292.752 162.141C292.76 162.096 292.764 162.049 292.765 162.003C292.766 161.956 292.772 161.909 292.784 161.864H292.771C292.77 161.857 292.772 161.85 292.775 161.844C292.778 161.838 292.784 161.834 292.79 161.831C292.803 161.831 292.811 161.822 292.811 161.818C292.811 161.815 292.811 161.806 292.803 161.806C292.795 161.806 292.803 161.806 292.803 161.792C292.772 161.693 292.757 161.59 292.759 161.487C292.762 161.384 292.725 161.284 292.655 161.208C292.604 161.16 292.568 161.098 292.551 161.03C292.541 160.996 292.52 160.967 292.492 160.946C292.463 160.926 292.428 160.915 292.393 160.917C292.303 160.921 292.215 160.895 292.141 160.843C292.068 160.792 291.978 160.77 291.889 160.781H291.767C291.692 160.785 291.617 160.775 291.546 160.753C291.504 160.737 291.468 160.708 291.442 160.671L291.381 160.575C291.358 160.541 291.329 160.512 291.294 160.49C291.257 160.455 291.229 160.413 291.211 160.366C291.193 160.319 291.186 160.269 291.19 160.219C291.19 160.159 291.195 160.099 291.206 160.04C291.217 159.982 291.223 159.922 291.222 159.862V159.777C291.232 159.762 291.237 159.744 291.236 159.725C291.236 159.701 291.23 159.676 291.219 159.654C291.21 159.638 291.204 159.621 291.203 159.602C291.196 159.504 291.222 159.405 291.277 159.323C291.325 159.265 291.386 159.218 291.455 159.188C291.528 159.157 291.606 159.138 291.685 159.133C291.767 159.127 291.849 159.111 291.927 159.084C291.991 159.061 292.054 159.034 292.115 159.003C292.189 158.966 292.261 158.923 292.329 158.874C292.393 158.829 292.452 158.776 292.503 158.716C292.55 158.663 292.575 158.594 292.574 158.523C292.577 158.509 292.577 158.494 292.574 158.48C292.572 158.466 292.572 158.452 292.574 158.437C292.575 158.404 292.58 158.37 292.59 158.338C292.6 158.312 292.606 158.284 292.607 158.256C292.609 158.189 292.591 158.123 292.555 158.066C292.519 158.007 292.495 157.942 292.485 157.875C292.415 157.73 292.292 157.617 292.141 157.56C292.005 157.488 291.854 157.447 291.701 157.437C291.656 157.441 291.611 157.45 291.568 157.463C291.498 157.481 291.43 157.506 291.365 157.537C291.296 157.57 291.231 157.611 291.173 157.66C291.122 157.701 291.085 157.756 291.066 157.818C291.011 157.885 290.968 157.96 290.937 158.04C290.907 158.121 290.868 158.198 290.82 158.27C290.621 158.355 290.407 158.404 290.191 158.414C289.958 158.426 289.748 158.433 289.561 158.433C289.499 158.433 289.424 158.433 289.331 158.433C289.238 158.433 289.145 158.42 289.052 158.411C288.968 158.401 288.884 158.383 288.803 158.356C288.729 158.329 288.687 158.297 288.674 158.258C288.675 158.198 288.661 158.139 288.632 158.086C288.603 158.034 288.588 157.974 288.589 157.914C288.59 157.8 288.607 157.686 288.641 157.577C288.675 157.469 288.717 157.363 288.767 157.262C288.814 157.17 288.867 157.082 288.925 156.997C288.962 156.936 289.006 156.881 289.057 156.831C289.092 156.744 289.146 156.666 289.214 156.601C289.274 156.543 289.336 156.489 289.399 156.444C289.462 156.398 289.526 156.346 289.592 156.302C289.663 156.255 289.729 156.202 289.791 156.144C289.94 156.083 290.082 156.021 290.214 155.957C290.346 155.892 290.491 155.829 290.65 155.767C290.776 155.752 290.91 155.734 291.052 155.72C291.193 155.704 291.336 155.697 291.479 155.697C291.542 155.697 291.606 155.702 291.669 155.714C291.73 155.724 291.793 155.729 291.855 155.73C291.885 155.732 291.914 155.724 291.938 155.706C291.962 155.688 291.988 155.672 292.015 155.659C292.065 155.679 292.119 155.687 292.173 155.684C292.214 155.683 292.255 155.679 292.296 155.671C292.338 155.663 292.381 155.659 292.425 155.659C292.478 155.659 292.531 155.665 292.582 155.678C292.61 155.689 292.637 155.704 292.661 155.722ZM290.726 162.693V162.666C290.726 162.644 290.716 162.635 290.694 162.635C290.685 162.633 290.675 162.633 290.666 162.635C290.652 162.637 290.638 162.637 290.624 162.635C290.611 162.635 290.603 162.635 290.603 162.622C290.604 162.631 290.602 162.64 290.596 162.647C290.591 162.654 290.583 162.659 290.575 162.66C290.556 162.66 290.545 162.671 290.545 162.681C290.555 162.687 290.566 162.692 290.578 162.693C290.605 162.686 290.634 162.686 290.661 162.693C290.682 162.7 290.705 162.7 290.726 162.693ZM291.853 163.47V163.458C291.853 163.44 291.845 163.432 291.83 163.437C291.822 163.44 291.814 163.442 291.805 163.442C291.797 163.442 291.789 163.44 291.781 163.437C291.781 163.447 291.781 163.45 291.781 163.45C291.781 163.45 291.781 163.45 291.781 163.464C291.781 163.478 291.781 163.476 291.801 163.476H291.86L291.853 163.47ZM292.85 162.589C292.87 162.58 292.881 162.572 292.881 162.562C292.881 162.553 292.859 162.537 292.817 162.537C292.773 162.533 292.73 162.544 292.694 162.569C292.702 162.578 292.712 162.586 292.723 162.592C292.734 162.597 292.746 162.601 292.759 162.602C292.773 162.604 292.787 162.604 292.801 162.602C292.816 162.594 292.833 162.59 292.85 162.589ZM292.823 159.854V159.829C292.823 159.807 292.823 159.796 292.798 159.796C292.781 159.796 292.765 159.799 292.749 159.806C292.738 159.812 292.726 159.816 292.713 159.817C292.713 159.842 292.721 159.854 292.737 159.854C292.751 159.854 292.759 159.854 292.759 159.875H292.785C292.785 159.865 292.792 159.861 292.804 159.861L292.823 159.854ZM292.804 163.398C292.804 163.395 292.804 163.393 292.803 163.39C292.802 163.388 292.801 163.386 292.799 163.384C292.797 163.382 292.795 163.381 292.793 163.38C292.79 163.379 292.788 163.379 292.785 163.379H292.713C292.713 163.404 292.722 163.418 292.74 163.418C292.75 163.42 292.761 163.42 292.771 163.418C292.78 163.408 292.792 163.401 292.804 163.398ZM293.231 160.088V160.063C293.231 160.04 293.218 160.029 293.192 160.029C293.166 160.031 293.142 160.039 293.121 160.053C293.109 160.06 293.099 160.069 293.092 160.081C293.085 160.093 293.082 160.107 293.083 160.121V160.133C293.137 160.132 293.188 160.114 293.231 160.081V160.088ZM293.425 161.862C293.391 161.833 293.349 161.815 293.305 161.81C293.261 161.81 293.207 161.81 293.147 161.81C293.133 161.822 293.124 161.838 293.121 161.856C293.121 161.874 293.143 161.889 293.185 161.905C293.224 161.918 293.262 161.937 293.295 161.96C293.305 161.949 293.317 161.941 293.331 161.936C293.345 161.932 293.36 161.931 293.374 161.933C293.407 161.926 293.425 161.903 293.425 161.85V161.862ZM293.237 160.548C293.237 160.535 293.226 160.529 293.206 160.529C293.185 160.529 293.179 160.529 293.179 160.542C293.179 160.554 293.179 160.553 293.192 160.561C293.204 160.568 293.231 160.55 293.231 160.542L293.237 160.548ZM293.295 159.304V159.292C293.295 159.274 293.295 159.268 293.273 159.271C293.268 159.275 293.262 159.277 293.255 159.277C293.249 159.277 293.243 159.275 293.237 159.271C293.234 159.284 293.234 159.298 293.237 159.311V159.323C293.247 159.325 293.257 159.325 293.267 159.323C293.274 159.312 293.284 159.304 293.295 159.298V159.304ZM293.61 160.348V160.315C293.61 160.315 293.61 160.315 293.59 160.315C293.577 160.318 293.565 160.318 293.552 160.315C293.552 160.337 293.552 160.345 293.574 160.34C293.58 160.336 293.587 160.335 293.594 160.335C293.601 160.335 293.608 160.337 293.614 160.342L293.61 160.348ZM293.768 160.978H293.749H293.736C293.727 160.978 293.722 160.978 293.721 160.978C293.719 160.978 293.713 160.978 293.703 160.978C293.68 160.979 293.658 160.982 293.636 160.988C293.607 160.988 293.593 161.018 293.593 161.056C293.593 161.06 293.593 161.064 293.595 161.069C293.596 161.073 293.598 161.077 293.602 161.08C293.605 161.083 293.609 161.086 293.613 161.087C293.617 161.089 293.622 161.089 293.626 161.089C293.635 161.085 293.645 161.083 293.655 161.083C293.665 161.083 293.675 161.085 293.684 161.089C293.697 161.091 293.709 161.089 293.721 161.085C293.732 161.08 293.742 161.072 293.749 161.062C293.755 161.064 293.762 161.064 293.768 161.062V160.997V160.978ZM294.083 161.828C294.026 161.765 293.947 161.725 293.862 161.718C293.832 161.718 293.817 161.746 293.817 161.788C293.853 161.824 293.895 161.855 293.939 161.88C293.957 161.88 293.969 161.88 293.979 161.88C294 161.883 294.022 161.879 294.041 161.869C294.06 161.859 294.076 161.844 294.086 161.825L294.083 161.828Z" fill="white"/>
<path d="M173.861 106.81H4.43165C2.10816 106.81 0.224609 108.696 0.224609 111.022V157.968C0.224609 160.294 2.10816 162.179 4.43165 162.179H173.861C176.185 162.179 178.068 160.294 178.068 157.968V111.022C178.068 108.696 176.185 106.81 173.861 106.81Z" fill="white"/>
<path d="M44.1492 140.436C47.4267 132.515 43.6692 123.434 35.7568 120.153C27.8443 116.872 18.7731 120.633 15.4957 128.554C12.2182 136.475 15.9756 145.556 23.8881 148.837C31.8006 152.118 40.8718 148.356 44.1492 140.436Z" fill="#FF8863"/>
<path d="M33.116 131.564C35.1294 129.55 35.1294 126.286 33.116 124.272C31.1026 122.259 27.8383 122.259 25.8249 124.272C23.8115 126.286 23.8115 129.55 25.8249 131.564C27.8383 133.577 31.1026 133.577 33.116 131.564Z" fill="white"/>
<path d="M30.3299 135.228H28.6446C25.9905 135.228 23.5864 136.304 21.8461 138.043C21.0491 138.841 20.3915 139.778 19.913 140.814C19.4864 141.738 19.6744 142.835 20.3774 143.571C21.8822 145.146 23.7913 146.33 25.9392 146.958C27.0644 147.29 28.2546 147.466 29.4873 147.466C30.7199 147.466 31.9114 147.29 33.0365 146.958C35.183 146.331 37.0923 145.146 38.5972 143.572C39.3108 142.826 39.4823 141.714 39.0454 140.779C37.5141 137.499 34.1873 135.228 30.3299 135.228Z" fill="white"/>
<path d="M139.229 126.392H56.5793V129.356H139.229V126.392Z" fill="#E0CBFF"/>
<path d="M163.982 133.012H56.5793V135.976H163.982V133.012Z" fill="#E0CBFF"/>
<path d="M163.982 139.634H56.5793V142.597H163.982V139.634Z" fill="#E0CBFF"/>
<path d="M204.009 91.0626H154.249C153.538 91.0626 152.961 91.6399 152.961 92.3519V121.478C152.961 122.19 153.538 122.767 154.249 122.767H204.009C204.721 122.767 205.297 122.19 205.297 121.478V92.3519C205.297 91.6399 204.721 91.0626 204.009 91.0626Z" fill="#FFCA28"/>
<path d="M204.917 91.444L179.129 117.315L153.339 91.444C153.349 91.429 153.362 91.4157 153.376 91.4046C153.614 91.1857 153.925 91.0642 154.249 91.0641H204.003C204.325 91.0624 204.635 91.1842 204.87 91.4046C204.888 91.4155 204.903 91.4288 204.917 91.444Z" fill="#FFB300"/>
<path d="M204.879 91.4045L179.13 112.368L153.377 91.4045C153.615 91.1856 153.926 91.0641 154.249 91.064H204.003C204.328 91.0603 204.642 91.1823 204.879 91.4045Z" fill="#FFD54F"/>
<path d="M212.886 91.0626C212.886 92.5652 212.441 94.034 211.607 95.2833C210.774 96.5327 209.588 97.5064 208.202 98.0815C206.815 98.6565 205.289 98.8069 203.817 98.5138C202.345 98.2206 200.992 97.4971 199.931 96.4346C198.87 95.3721 198.147 94.0184 197.854 92.5447C197.561 91.071 197.712 89.5435 198.286 88.1553C198.86 86.7671 199.833 85.5806 201.081 84.7458C202.329 83.911 203.796 83.4655 205.297 83.4655C207.31 83.4655 209.24 84.2659 210.664 85.6906C212.087 87.1153 212.886 89.0477 212.886 91.0626Z" fill="#F9394A"/>
<path d="M205.769 86.5973C205.81 86.6347 205.863 86.6574 205.918 86.6619C205.976 86.6682 206.035 86.6713 206.093 86.6713H206.271C206.322 86.6691 206.373 86.6823 206.417 86.7092C206.487 86.7265 206.558 86.7454 206.625 86.7691C206.684 86.7885 206.738 86.8214 206.783 86.8652C206.803 86.9029 206.836 86.9325 206.876 86.9487C206.915 86.9671 206.956 86.9819 206.998 86.9929L207.117 87.0275C207.155 87.0399 207.187 87.0664 207.206 87.1016C207.363 87.197 207.51 87.3067 207.646 87.4295C207.801 87.6321 207.958 87.8328 208.118 88.0316C208.172 88.1124 208.209 88.2036 208.227 88.2995C208.222 88.3903 208.246 88.4803 208.296 88.5564C208.345 88.632 208.369 88.7216 208.364 88.8118C208.365 88.8265 208.365 88.8412 208.364 88.8559C208.361 88.8721 208.361 88.8886 208.364 88.9048C208.406 89.0042 208.427 89.1117 208.425 89.22C208.426 89.2608 208.422 89.3016 208.412 89.3414C208.403 89.3813 208.39 89.4203 208.375 89.458L208.387 89.469C208.386 89.4911 208.386 89.5132 208.387 89.5352C208.389 89.5552 208.389 89.5752 208.387 89.5951C208.387 89.6632 208.379 89.731 208.362 89.7969L208.319 89.9813C208.307 90.0441 208.301 90.108 208.301 90.172C208.3 90.2019 208.292 90.2311 208.277 90.2568C208.261 90.2825 208.24 90.3038 208.214 90.3186C208.176 90.3756 208.15 90.4393 208.135 90.5062C208.121 90.5722 208.094 90.6351 208.058 90.6921C208.022 90.7087 207.991 90.7335 207.967 90.7644C207.942 90.7954 207.926 90.8316 207.918 90.8703C207.91 90.9088 207.893 90.9451 207.87 90.9769C207.847 91.0087 207.817 91.0352 207.783 91.0547C207.771 91.1694 207.714 91.2748 207.625 91.3478C207.538 91.4337 207.457 91.5253 207.383 91.6221C207.329 91.7164 207.255 91.7972 207.165 91.8585C207.076 91.918 206.993 91.985 206.915 92.0587C206.89 92.1093 206.869 92.162 206.854 92.2163C206.845 92.2426 206.83 92.266 206.808 92.2836C206.787 92.3012 206.761 92.3123 206.734 92.3156C206.678 92.3239 206.626 92.3532 206.591 92.3976C206.558 92.437 206.528 92.4786 206.501 92.5221C206.481 92.5551 206.463 92.5893 206.447 92.6245C206.435 92.6561 206.428 92.6671 206.428 92.6592C206.384 92.7288 206.325 92.7875 206.255 92.831C206.22 92.8515 206.191 92.8812 206.171 92.917C206.151 92.9528 206.141 92.9934 206.142 93.0343C206.142 93.0958 206.18 93.1399 206.255 93.1652C206.339 93.192 206.426 93.2084 206.513 93.214C206.611 93.2235 206.715 93.2266 206.828 93.2266H207.107C207.265 93.2266 207.422 93.2266 207.594 93.2046C207.765 93.1825 207.929 93.1841 208.079 93.1841C208.124 93.199 208.167 93.2229 208.203 93.2543C208.24 93.2857 208.269 93.3239 208.291 93.3669C208.331 93.4368 208.355 93.515 208.36 93.5955V93.6443C208.394 93.694 208.411 93.753 208.409 93.813C208.408 93.8603 208.402 93.9074 208.39 93.9532C208.378 94.0049 208.371 94.0578 208.371 94.1109C208.37 94.1434 208.377 94.1758 208.39 94.2054C208.404 94.2345 208.41 94.2664 208.409 94.2984C208.41 94.3382 208.406 94.378 208.397 94.4166C208.388 94.4518 208.384 94.4877 208.384 94.5238C208.383 94.5451 208.387 94.5663 208.397 94.5853C208.389 94.6164 208.379 94.647 208.367 94.6767C208.354 94.7028 208.348 94.7313 208.348 94.7602C208.349 94.7812 208.358 94.8011 208.371 94.817C208.387 94.8338 208.396 94.8556 208.397 94.8785C208.378 94.9445 208.343 95.0048 208.294 95.0534C208.24 95.1304 208.159 95.184 208.068 95.2031H207.967H207.88C207.775 95.2029 207.67 95.2082 207.565 95.2189C207.461 95.2284 207.356 95.2347 207.25 95.2347C207.05 95.2347 206.835 95.2347 206.602 95.2347C206.369 95.2347 206.154 95.2221 205.955 95.2095C205.875 95.2302 205.794 95.2408 205.712 95.241C205.632 95.2414 205.551 95.2371 205.471 95.2284C205.392 95.2196 205.312 95.2154 205.232 95.2158C205.179 95.2159 205.126 95.2201 205.074 95.2284C205.022 95.2365 204.97 95.2407 204.917 95.241C204.836 95.2405 204.756 95.2331 204.676 95.2189C204.603 95.2052 204.53 95.1978 204.456 95.1968C204.378 95.1961 204.3 95.2035 204.224 95.2189C204.153 95.2339 204.08 95.2413 204.007 95.241C203.929 95.2408 203.85 95.2365 203.772 95.2284C203.695 95.2202 203.617 95.2159 203.539 95.2158C203.423 95.2158 203.306 95.2158 203.19 95.2284C203.073 95.241 202.955 95.241 202.835 95.241C202.806 95.2425 202.777 95.2425 202.747 95.241C202.714 95.2383 202.681 95.2383 202.648 95.241C202.591 95.2559 202.532 95.2623 202.473 95.2599C202.42 95.2599 202.362 95.2567 202.299 95.2504C202.24 95.245 202.182 95.2333 202.125 95.2158C202.076 95.2013 202.03 95.1748 201.993 95.1385C201.958 95.094 201.94 95.0377 201.944 94.9809C201.94 94.8932 201.961 94.8061 202.006 94.7303C202.046 94.6734 202.092 94.6207 202.143 94.5727C202.193 94.527 202.24 94.4876 202.286 94.4513C202.339 94.4067 202.38 94.3499 202.406 94.2858C202.42 94.2449 202.442 94.207 202.47 94.1739C202.502 94.1361 202.533 94.0998 202.568 94.062L202.651 93.969C202.67 93.9506 202.683 93.9261 202.686 93.8997C202.747 93.8297 202.814 93.7659 202.887 93.7089C202.963 93.6508 203.025 93.5778 203.072 93.4946C203.096 93.4909 203.118 93.4798 203.135 93.4629C203.152 93.4459 203.164 93.4239 203.168 93.4C203.177 93.3542 203.198 93.3115 203.228 93.2755C203.295 93.2324 203.355 93.1793 203.405 93.1179C203.462 93.0586 203.514 92.9959 203.563 92.9303C203.609 92.8688 203.659 92.8042 203.72 92.738C203.772 92.6727 203.833 92.6158 203.901 92.5694C203.901 92.5188 203.917 92.4695 203.947 92.4291C203.978 92.3901 204.014 92.3552 204.054 92.3251C204.092 92.298 204.127 92.268 204.16 92.2352C204.19 92.2058 204.21 92.1678 204.218 92.1265C204.259 92.0348 204.318 91.9526 204.393 91.8853C204.459 91.8229 204.53 91.7659 204.605 91.7151C204.639 91.6864 204.666 91.651 204.686 91.6111C204.703 91.5764 204.722 91.5417 204.742 91.5086C204.786 91.4567 204.839 91.4143 204.9 91.3841C204.925 91.3731 204.946 91.3548 204.961 91.3315C204.976 91.3081 204.984 91.2809 204.983 91.2533C204.989 91.2207 205.004 91.1905 205.026 91.1661C205.048 91.1418 205.077 91.1244 205.109 91.1161C205.141 91.1049 205.169 91.0834 205.188 91.055C205.207 91.0266 205.216 90.9927 205.215 90.9585C205.222 90.932 205.236 90.9077 205.255 90.8875C205.274 90.8672 205.297 90.8516 205.323 90.8419C205.384 90.8174 205.433 90.7721 205.463 90.7142C205.492 90.6447 205.534 90.5815 205.588 90.5282C205.645 90.4699 205.692 90.4022 205.726 90.328C205.757 90.3131 205.785 90.2911 205.806 90.2637C205.827 90.2363 205.841 90.2044 205.847 90.1704C205.862 90.0969 205.903 90.0313 205.962 89.986C206.003 89.9072 206.054 89.8174 206.112 89.7181C206.168 89.6226 206.198 89.5138 206.199 89.4028C206.197 89.3625 206.183 89.3237 206.159 89.2909C206.13 89.2436 206.116 89.1887 206.118 89.1333C206.045 88.9702 205.937 88.8246 205.803 88.7062C205.674 88.5773 205.499 88.5043 205.317 88.5029C205.094 88.504 204.878 88.58 204.703 88.7188C204.609 88.7907 204.531 88.8813 204.474 88.9849C204.416 89.0886 204.381 89.203 204.371 89.3209C204.35 89.3412 204.334 89.366 204.324 89.3932C204.315 89.4205 204.311 89.4497 204.314 89.4785V89.603C204.314 89.6533 204.304 89.7031 204.283 89.7489C204.262 89.7947 204.231 89.8353 204.193 89.8678C204.117 89.9377 204.018 89.9766 203.916 89.9766C203.826 89.9772 203.736 89.9729 203.646 89.964C203.56 89.964 203.47 89.9514 203.379 89.9514H202.906C202.749 89.9507 202.591 89.9591 202.434 89.9766C202.37 89.9625 202.307 89.943 202.247 89.9182C202.219 89.9048 202.194 89.8852 202.175 89.8609C202.155 89.8366 202.142 89.8083 202.135 89.778C202.115 89.7367 202.089 89.6994 202.056 89.6676C202.025 89.6397 202.006 89.6006 202.004 89.5589C202.006 89.5371 202.013 89.5161 202.025 89.4977C202.037 89.4792 202.053 89.464 202.072 89.4533V89.4407C202.072 89.4407 202.072 89.4407 202.072 89.4218C202.072 89.4157 202.074 89.4097 202.077 89.4046C202.08 89.3995 202.085 89.3956 202.091 89.3934C202.097 89.3902 202.102 89.3852 202.106 89.379C202.109 89.3728 202.11 89.3657 202.11 89.3587C202.106 89.3356 202.098 89.3135 202.084 89.2941C202.072 89.2737 202.064 89.2513 202.059 89.2279C202.06 89.1778 202.075 89.1291 202.103 89.0876C202.132 89.0442 202.148 88.9932 202.147 88.941C202.149 88.9157 202.145 88.8903 202.135 88.8669C202.133 88.8359 202.14 88.805 202.157 88.7787C202.171 88.7588 202.178 88.7351 202.177 88.7109C202.216 88.6618 202.238 88.6016 202.24 88.5391C202.244 88.4746 202.254 88.4106 202.272 88.3484C202.352 88.2726 202.412 88.1785 202.447 88.0741C202.484 87.964 202.546 87.8638 202.628 87.781C202.694 87.71 202.76 87.6328 202.826 87.5477C202.89 87.4642 202.974 87.3985 203.07 87.357C203.084 87.3032 203.117 87.2565 203.163 87.2261C203.204 87.2009 203.246 87.1773 203.287 87.1568L203.418 87.0922C203.462 87.0701 203.497 87.0333 203.517 86.9881L203.621 86.9298C203.658 86.9092 203.7 86.8994 203.742 86.9015C203.846 86.8811 203.944 86.841 204.032 86.7832C204.126 86.7241 204.236 86.6934 204.347 86.695H204.421C204.541 86.6412 204.67 86.6108 204.802 86.6051C204.959 86.5941 205.092 86.5894 205.213 86.5894C205.298 86.589 205.383 86.5942 205.468 86.6051C205.559 86.6164 205.651 86.6217 205.744 86.6209L205.769 86.5973ZM204.648 93.2865V93.2613C204.648 93.2408 204.632 93.2298 204.604 93.2298H204.582C204.57 93.232 204.558 93.232 204.547 93.2298C204.534 93.2298 204.528 93.2298 204.528 93.2298C204.513 93.2401 204.495 93.2472 204.477 93.2504C204.459 93.2537 204.44 93.2531 204.423 93.2487C204.404 93.2447 204.385 93.2448 204.367 93.2492C204.349 93.2536 204.332 93.262 204.317 93.2739C204.317 93.307 204.344 93.3307 204.397 93.3464L204.473 93.3669C204.489 93.3676 204.505 93.3647 204.52 93.3585C204.535 93.3522 204.549 93.3427 204.56 93.3307C204.582 93.3049 204.614 93.289 204.648 93.2865ZM204.591 94.0856C204.578 94.0673 204.56 94.0529 204.539 94.044C204.518 94.0351 204.495 94.0321 204.473 94.0352C204.394 94.0352 204.352 94.051 204.349 94.0856C204.36 94.0856 204.364 94.0935 204.36 94.1093C204.355 94.125 204.36 94.1345 204.378 94.1345C204.388 94.1277 204.399 94.1234 204.41 94.1219C204.41 94.1314 204.43 94.1345 204.46 94.1345C204.507 94.1326 204.552 94.1148 204.588 94.0841L204.591 94.0856ZM204.492 94.5285V94.5159C204.492 94.5065 204.492 94.5033 204.479 94.5033C204.471 94.5043 204.462 94.5071 204.455 94.5114C204.447 94.5158 204.44 94.5216 204.435 94.5285H204.492ZM205.122 92.6245C205.089 92.5895 205.045 92.5676 204.997 92.5631C204.942 92.554 204.885 92.5498 204.829 92.5505L204.81 92.5946C204.81 92.6151 204.824 92.6308 204.851 92.6434C204.876 92.6553 204.899 92.6725 204.917 92.6939C204.955 92.6812 204.996 92.678 205.035 92.6844C205.053 92.6855 205.071 92.6799 205.086 92.6686C205.1 92.6572 205.11 92.641 205.114 92.623L205.122 92.6245ZM205.079 93.8855C205.046 93.8618 205.006 93.8486 204.966 93.8476C204.933 93.8476 204.917 93.8681 204.917 93.9107C204.931 93.9075 204.947 93.9075 204.961 93.9107C204.973 93.9129 204.985 93.9129 204.997 93.9107C205.024 93.9136 205.05 93.9062 205.071 93.8902L205.079 93.8855ZM205.128 93.1116L205.092 93.0863C205.066 93.0759 205.038 93.0716 205.01 93.0737C204.972 93.0737 204.953 93.0864 204.953 93.1116C204.954 93.1305 204.962 93.1483 204.975 93.162C204.983 93.1702 204.989 93.1799 204.993 93.1904C204.996 93.201 204.998 93.2123 204.997 93.2235C205.031 93.2164 205.066 93.2164 205.1 93.2235C205.136 93.2235 205.153 93.2235 205.153 93.1841C205.153 93.1447 205.153 93.162 205.141 93.1589C205.136 93.1551 205.132 93.1503 205.13 93.1447C205.128 93.1392 205.127 93.1332 205.128 93.1273V93.1116ZM205.509 94.1093C205.483 94.0914 205.452 94.0826 205.421 94.0841C205.39 94.0823 205.359 94.0823 205.328 94.0841C205.3 94.0841 205.284 94.1093 205.284 94.1471C205.284 94.1536 205.286 94.1599 205.289 94.1655C205.292 94.171 205.297 94.1755 205.303 94.1786C205.318 94.1874 205.335 94.1918 205.353 94.1912C205.368 94.1903 205.383 94.186 205.396 94.1786C205.411 94.1709 205.428 94.1666 205.446 94.166H205.477C205.486 94.1621 205.494 94.156 205.499 94.1482C205.505 94.1405 205.508 94.1314 205.509 94.1219V94.1093ZM205.72 93.4174C205.708 93.3949 205.691 93.3754 205.67 93.3599C205.65 93.3444 205.627 93.3334 205.602 93.3275C205.544 93.3049 205.483 93.2932 205.421 93.2928C205.421 93.3212 205.4 93.337 205.385 93.337C205.369 93.337 205.369 93.337 205.366 93.3181C205.365 93.3292 205.362 93.3401 205.358 93.3501C205.353 93.3602 205.346 93.3691 205.337 93.3764C205.328 93.3849 205.321 93.3952 205.316 93.4066C205.312 93.4179 205.309 93.4302 205.309 93.4426C205.308 93.445 205.307 93.4477 205.307 93.4504C205.307 93.4532 205.308 93.4559 205.309 93.4583C205.309 93.4583 205.309 93.4583 205.309 93.4741H205.353C205.36 93.476 205.367 93.4798 205.372 93.4851C205.421 93.4851 205.476 93.4709 205.529 93.4646C205.592 93.46 205.654 93.4457 205.712 93.4221L205.72 93.4174ZM205.396 91.7955V91.7829H205.366C205.366 91.8034 205.366 91.8144 205.385 91.8144C205.387 91.8102 205.388 91.8052 205.388 91.8002L205.396 91.7955ZM205.758 92.5441C205.746 92.5198 205.727 92.4994 205.704 92.4854C205.681 92.4714 205.654 92.4644 205.627 92.4653C205.566 92.4637 205.505 92.4547 205.446 92.4385C205.438 92.4456 205.432 92.4541 205.428 92.4636C205.424 92.4731 205.421 92.4833 205.421 92.4937C205.418 92.5205 205.426 92.5471 205.442 92.5684C205.459 92.5897 205.483 92.6041 205.509 92.6088C205.566 92.6239 205.625 92.6313 205.684 92.6308L205.733 92.6088C205.74 92.607 205.746 92.6027 205.751 92.5967C205.756 92.5907 205.758 92.5832 205.758 92.5757V92.5441ZM205.852 93.0674C205.851 93.0542 205.846 93.0414 205.84 93.0298C205.833 93.0182 205.824 93.0081 205.814 93C205.803 92.9919 205.791 92.9861 205.778 92.9827C205.765 92.9794 205.752 92.9788 205.739 92.9807C205.697 92.9815 205.655 92.9878 205.614 92.9997C205.569 93.0123 205.547 93.0312 205.547 93.0548C205.547 93.0785 205.564 93.0895 205.599 93.0927C205.633 93.0958 205.652 93.1068 205.652 93.1242C205.691 93.1167 205.731 93.1125 205.77 93.1116C205.785 93.1114 205.8 93.1077 205.813 93.1009C205.827 93.0941 205.839 93.0842 205.847 93.0722L205.852 93.0674ZM206.617 93.3827C206.61 93.3827 206.594 93.3685 206.569 93.3401C206.552 93.3233 206.531 93.3106 206.508 93.303C206.486 93.2953 206.462 93.2929 206.438 93.296C206.382 93.2916 206.326 93.3072 206.28 93.3401H206.249C206.216 93.3427 206.184 93.3541 206.156 93.3732C206.118 93.3969 206.077 93.4189 206.033 93.4426C205.994 93.4625 205.956 93.4863 205.921 93.5135C205.89 93.5387 205.874 93.5624 205.874 93.5828C205.873 93.5897 205.874 93.5965 205.877 93.603C205.879 93.6095 205.883 93.6153 205.887 93.6202C205.892 93.625 205.898 93.6287 205.904 93.631C205.911 93.6332 205.918 93.634 205.925 93.6333C205.945 93.6348 205.966 93.6319 205.985 93.6248C206.004 93.6178 206.022 93.6067 206.036 93.5923C206.062 93.5658 206.085 93.5373 206.106 93.5072C206.125 93.479 206.148 93.4531 206.173 93.43C206.21 93.4026 206.254 93.3862 206.299 93.3827C206.363 93.4209 206.436 93.4385 206.51 93.4331H206.586C206.619 93.4331 206.635 93.4252 206.635 93.4079C206.629 93.4064 206.624 93.4034 206.619 93.3993C206.615 93.3951 206.611 93.39 206.61 93.3842L206.617 93.3827ZM206.145 92.6592C206.14 92.6513 206.132 92.6449 206.124 92.6405C206.115 92.6361 206.106 92.6339 206.096 92.634C206.077 92.6326 206.057 92.6381 206.041 92.6496C206.025 92.6611 206.013 92.6779 206.008 92.697C206.013 92.7127 206.024 92.7261 206.037 92.7352C206.051 92.7444 206.067 92.7487 206.084 92.7475C206.095 92.746 206.106 92.7417 206.115 92.7349C206.128 92.7221 206.138 92.7071 206.145 92.6907V92.6592ZM206.145 94.0636C206.134 94.0636 206.118 94.0447 206.099 94.01C206.094 93.9952 206.084 93.9823 206.071 93.9728C206.058 93.9633 206.043 93.9576 206.027 93.9564C206.027 93.9564 206.014 93.9564 206.014 93.9753C206.014 93.9942 206.014 93.9974 206.014 94.0005C206.027 94.0076 206.038 94.0172 206.046 94.0285C206.055 94.0399 206.061 94.0529 206.065 94.0667C206.065 94.0888 206.093 94.0998 206.14 94.0998C206.146 94.0954 206.15 94.0893 206.151 94.0825L206.145 94.0636ZM206.427 91.4062C206.427 91.3888 206.427 91.3809 206.408 91.3809C206.405 91.3804 206.401 91.3807 206.398 91.3818C206.394 91.3828 206.391 91.3847 206.389 91.3871C206.387 91.3896 206.385 91.3926 206.384 91.3959C206.383 91.3992 206.382 91.4027 206.383 91.4062C206.383 91.4219 206.395 91.4298 206.421 91.4298C206.421 91.4298 206.421 91.4298 206.421 91.4172L206.427 91.4062ZM207.455 89.5147C207.45 89.5082 207.443 89.503 207.435 89.4997C207.428 89.4964 207.419 89.4951 207.411 89.4958H207.354C207.339 89.5203 207.332 89.5491 207.335 89.5778H207.354C207.375 89.5759 207.395 89.5679 207.411 89.5547C207.427 89.5415 207.439 89.5237 207.446 89.5037L207.455 89.5147ZM207.436 89.9703C207.43 89.963 207.421 89.9584 207.411 89.9577C207.409 89.9574 207.407 89.9575 207.406 89.9581C207.404 89.9586 207.403 89.9595 207.401 89.9608C207.4 89.962 207.399 89.9635 207.399 89.9651C207.398 89.9668 207.398 89.9685 207.398 89.9703C207.398 89.9797 207.39 89.9829 207.373 89.9829V89.9703C207.373 90.0128 207.373 90.0333 207.392 90.0333C207.411 90.0333 207.442 90.0191 207.442 89.9892L207.436 89.9703Z" fill="white"/>
<path d="M89.2518 204.431C91.5865 202.097 91.5865 198.312 89.2518 195.977C86.9172 193.642 83.132 193.642 80.7974 195.977C78.4627 198.312 78.4628 202.097 80.7974 204.431C83.132 206.766 86.9172 206.766 89.2518 204.431Z" fill="white"/>
<path d="M86.0213 208.68H84.0671C80.9895 208.68 78.2018 209.929 76.1839 211.945C75.2596 212.87 74.4971 213.957 73.9423 215.158C73.4477 216.23 73.6656 217.501 74.4808 218.354C76.2256 220.181 78.4394 221.555 80.9301 222.283C82.2348 222.667 83.6148 222.871 85.0442 222.871C86.4736 222.871 87.8551 222.667 89.1598 222.283C91.6487 221.555 93.8627 220.181 95.6077 218.357C96.4352 217.491 96.6341 216.202 96.1275 215.117C94.3518 211.315 90.4941 208.68 86.0213 208.68Z" fill="white"/>
</svg>
