<svg width="306" height="247" viewBox="0 0 306 247" fill="none" xmlns="http://www.w3.org/2000/svg">
<path d="M281.717 22.4297V231.918C281.717 232.809 281.618 233.799 281.42 234.69C280.034 241.323 273.995 246.174 266.669 246.174H32.7272C24.4111 246.174 17.679 239.739 17.679 231.819V22.4297H281.717Z" fill="white"/>
<path d="M281.717 23.4197V14.5096C281.717 6.49042 274.886 0.154297 266.669 0.154297H32.7272C24.5101 0.154297 17.679 6.49042 17.679 14.5096V23.4197H281.717Z" fill="#753EE9"/>
<path d="M35.1051 13.9156C35.1051 15.6977 33.62 17.1827 31.739 17.1827C29.8579 17.1827 28.3729 15.6977 28.3729 13.9156C28.3729 12.1336 29.8579 10.6486 31.739 10.6486C33.521 10.6486 35.1051 12.1336 35.1051 13.9156ZM54.1134 13.9156C54.1134 15.6977 52.6284 17.1827 50.7474 17.1827C48.8663 17.1827 47.3813 15.6977 47.3813 13.9156C47.3813 12.1336 48.8663 10.6486 50.7474 10.6486C52.6284 10.6486 54.1134 12.1336 54.1134 13.9156ZM44.6092 13.9156C44.6092 15.6977 43.1242 17.1827 41.2432 17.1827C39.3621 17.1827 37.8771 15.6977 37.8771 13.9156C37.8771 12.1336 39.3621 10.6486 41.2432 10.6486C43.0252 10.6486 44.6092 12.1336 44.6092 13.9156Z" fill="white"/>
<path d="M50.2513 84.8999C63.3191 84.8999 73.9127 74.3063 73.9127 61.2385C73.9127 48.1706 63.3191 37.577 50.2513 37.577C37.1834 37.577 26.5898 48.1706 26.5898 61.2385C26.5898 74.3063 37.1834 84.8999 50.2513 84.8999Z" fill="#A146FD"/>
<path opacity="0.1" d="M60.2507 54.1106C56.4887 50.3485 50.2515 50.3485 46.4895 54.1106C43.2224 57.3777 42.8264 62.3278 45.0044 65.9908L40.7474 70.2479C39.8563 71.1389 39.8563 72.624 40.7474 73.515C41.6384 74.406 43.1234 74.406 44.0144 73.515L48.1725 69.3569C51.9346 71.7329 56.9837 71.2379 60.2507 67.9709C64.0128 64.1098 64.0128 57.8727 60.2507 54.1106ZM56.9837 64.7038C55.0036 66.6839 51.9346 66.6839 49.9545 65.0008L49.6575 64.7038L49.3605 64.4068C47.6775 62.3278 47.7765 59.3577 49.6575 57.3777C51.6376 55.3976 55.0036 55.3976 56.9837 57.3777C58.9637 59.3577 58.9637 62.6248 56.9837 64.7038Z" fill="black"/>
<path d="M45.1032 52.6256C48.8653 48.8635 55.1024 48.8635 58.8645 52.6256C62.6266 56.3876 62.6266 62.6248 58.8645 66.3868C55.1024 70.1489 48.8653 70.1489 45.1032 66.3868C41.3412 62.6248 41.3412 56.3876 45.1032 52.6256ZM48.3703 55.7936C46.3903 57.7737 46.3903 61.1397 48.3703 63.1198C50.3503 65.0998 53.7164 65.0998 55.6964 63.1198C57.6765 61.1397 57.6765 57.7737 55.6964 55.7936C53.7164 53.8136 50.3503 53.8136 48.3703 55.7936Z" fill="white"/>
<path d="M39.4606 71.9307C40.3516 72.8217 41.8366 72.8217 42.7276 71.9307L48.3707 66.2876C49.2617 65.3965 49.2617 63.9115 48.3707 63.0205C47.4797 62.1295 45.9947 62.1295 45.1037 63.0205L39.4606 68.6636C38.5695 69.6536 38.5695 71.0396 39.4606 71.9307Z" fill="white"/>
<path d="M139.255 46.9823C139.255 48.9624 138.463 50.8434 137.077 52.1304C135.79 53.4174 133.909 54.3085 131.929 54.3085H87.8728C83.8138 54.3085 80.5467 51.0414 80.5467 46.9823C80.5467 45.0023 81.3387 43.1213 82.7247 41.8342C84.0118 40.5472 85.8928 39.6562 87.8728 39.6562H131.929C135.988 39.7552 139.255 43.0223 139.255 46.9823Z" fill="#BDD6FF"/>
<path d="M182.517 68.6635C182.418 69.3565 181.725 69.8515 180.933 69.8515H83.4166C82.7236 69.8515 82.0306 69.3565 81.9316 68.6635C81.7336 67.7725 82.5256 66.9804 83.3176 66.9804H181.032C182.022 66.9804 182.715 67.7725 182.517 68.6635ZM92.7228 75.8906C92.7228 76.6826 92.0298 77.3756 91.2378 77.3756H83.4166C82.6246 77.3756 81.9316 76.6826 81.9316 75.8906C81.9316 75.0986 82.6246 74.4056 83.4166 74.4056H91.2378C92.1288 74.5046 92.7228 75.0986 92.7228 75.8906ZM82.0306 60.7433C82.1296 60.0503 82.8226 59.5553 83.5156 59.5553H181.032C181.824 59.5553 182.517 60.0503 182.616 60.8423C182.715 61.7333 182.022 62.5254 181.23 62.5254H83.5156C82.5256 62.4264 81.8326 61.6343 82.0306 60.7433Z" fill="#D2E4FF"/>
<path opacity="0.05" d="M281.719 39.854V140.638H200.835C195.192 140.638 190.538 135.985 190.538 130.342V50.1502C190.538 44.5071 195.093 39.854 200.835 39.854H281.719Z" fill="black"/>
<path d="M295.38 136.579H204.893C199.25 136.579 194.596 131.926 194.596 126.283V46.0913C194.596 40.4482 199.25 35.7951 204.893 35.7951H295.38C301.024 35.7951 305.677 40.4482 305.677 46.0913V126.283C305.677 132.025 301.024 136.579 295.38 136.579Z" fill="#BDD6FF"/>
<path d="M250.138 90.2459C262.549 90.2459 272.611 80.1842 272.611 67.7725C272.611 55.3608 262.549 45.2991 250.138 45.2991C237.726 45.2991 227.664 55.3608 227.664 67.7725C227.664 80.1842 237.726 90.2459 250.138 90.2459Z" fill="#7830E3"/>
<path d="M231.525 101.631V111.729C231.525 112.521 230.832 113.214 230.04 113.214H209.547C208.755 113.214 208.062 112.521 208.062 111.729V101.631C208.062 100.839 208.755 100.146 209.547 100.146H230.04C230.832 100.245 231.525 100.839 231.525 101.631ZM263.206 101.631V111.729C263.206 112.521 262.513 113.214 261.721 113.214H241.227C240.435 113.214 239.742 112.521 239.742 111.729V101.631C239.742 100.839 240.435 100.146 241.227 100.146H261.721C262.513 100.245 263.206 100.839 263.206 101.631ZM294.985 101.631V111.729C294.985 112.521 294.292 113.214 293.5 113.214H273.007C272.215 113.214 271.522 112.521 271.522 111.729V101.631C271.522 100.839 272.215 100.146 273.007 100.146H293.5C294.292 100.245 294.985 100.839 294.985 101.631ZM208.953 118.362C209.052 117.966 209.448 117.669 209.844 117.669H211.329C211.824 117.669 212.22 118.065 212.22 118.56C212.22 119.055 211.824 119.451 211.329 119.451H209.745C209.25 119.352 208.854 118.857 208.953 118.362ZM231.03 122.818C231.129 123.313 230.733 123.808 230.139 123.808H220.437C219.942 123.808 219.546 123.412 219.546 122.917C219.546 122.422 219.942 122.026 220.437 122.026H230.04C230.535 122.125 230.931 122.422 231.03 122.818ZM215.586 118.461C215.586 117.966 215.982 117.57 216.477 117.57H221.922C222.417 117.57 222.813 117.966 222.813 118.461C222.813 118.956 222.417 119.352 221.922 119.352H216.477C215.982 119.352 215.586 118.956 215.586 118.461ZM225.387 118.461C225.387 117.966 225.783 117.57 226.278 117.57H230.139C230.535 117.57 230.931 117.867 231.03 118.263C231.129 118.758 230.733 119.253 230.139 119.253H226.278C225.783 119.352 225.387 118.956 225.387 118.461ZM208.953 122.818C209.052 122.422 209.448 122.125 209.844 122.125H216.477C216.972 122.125 217.368 122.521 217.368 123.016C217.368 123.511 216.972 123.907 216.477 123.907H209.844C209.25 123.907 208.854 123.412 208.953 122.818ZM241.029 118.362C241.128 117.966 241.524 117.669 241.92 117.669H243.406C243.901 117.669 244.297 118.065 244.297 118.56C244.297 119.055 243.901 119.451 243.406 119.451H241.821C241.326 119.352 240.93 118.857 241.029 118.362ZM263.008 122.818C263.107 123.313 262.711 123.808 262.117 123.808H252.415C251.92 123.808 251.524 123.412 251.524 122.917C251.524 122.422 251.92 122.026 252.415 122.026H262.018C262.612 122.125 263.008 122.422 263.008 122.818ZM247.564 118.461C247.564 117.966 247.96 117.57 248.455 117.57H253.9C254.395 117.57 254.791 117.966 254.791 118.461C254.791 118.956 254.395 119.352 253.9 119.352H248.455C247.96 119.352 247.564 118.956 247.564 118.461ZM257.464 118.461C257.464 117.966 257.86 117.57 258.355 117.57H262.216C262.612 117.57 263.008 117.867 263.107 118.263C263.206 118.758 262.81 119.253 262.216 119.253H258.355C257.86 119.352 257.464 118.956 257.464 118.461ZM241.029 122.818C241.128 122.422 241.524 122.125 241.92 122.125H248.554C249.049 122.125 249.445 122.521 249.445 123.016C249.445 123.511 249.049 123.907 248.554 123.907H241.92C241.326 123.907 240.93 123.412 241.029 122.818ZM273.106 118.362C273.205 117.966 273.601 117.669 273.997 117.669H275.482C275.977 117.669 276.373 118.065 276.373 118.56C276.373 119.055 275.977 119.451 275.482 119.451H273.898C273.403 119.352 273.007 118.857 273.106 118.362ZM295.084 122.818C295.183 123.313 294.787 123.808 294.193 123.808H284.491C283.996 123.808 283.6 123.412 283.6 122.917C283.6 122.422 283.996 122.026 284.491 122.026H294.094C294.688 122.125 294.985 122.422 295.084 122.818ZM279.64 118.461C279.64 117.966 280.036 117.57 280.531 117.57H285.976C286.471 117.57 286.867 117.966 286.867 118.461C286.867 118.956 286.471 119.352 285.976 119.352H280.531C280.036 119.352 279.64 118.956 279.64 118.461ZM289.54 118.461C289.54 117.966 289.936 117.57 290.431 117.57H294.292C294.688 117.57 295.084 117.867 295.183 118.263C295.282 118.758 294.886 119.253 294.292 119.253H290.431C289.936 119.352 289.54 118.956 289.54 118.461ZM273.106 122.818C273.205 122.422 273.601 122.125 273.997 122.125H280.63C281.125 122.125 281.521 122.521 281.521 123.016C281.521 123.511 281.125 123.907 280.63 123.907H273.997C273.403 123.907 273.007 123.412 273.106 122.818Z" fill="white"/>
<path d="M266.373 230.829H199.646C196.874 230.829 194.596 228.552 194.596 225.779V156.181C194.596 153.409 196.874 151.132 199.646 151.132H266.373C269.145 151.132 271.422 153.409 271.422 156.181V225.779C271.422 228.651 269.145 230.829 266.373 230.829Z" fill="#F2CB2A"/>
<path d="M214.694 199.346C214.694 202.712 211.922 205.484 208.556 205.484C205.19 205.484 202.418 202.712 202.418 199.346C202.418 195.98 205.19 193.208 208.556 193.208C212.021 193.208 214.694 195.98 214.694 199.346ZM214.694 215.978C214.694 219.344 211.922 222.116 208.556 222.116C205.19 222.116 202.418 219.344 202.418 215.978C202.418 212.612 205.19 209.84 208.556 209.84C212.021 209.84 214.694 212.612 214.694 215.978ZM214.694 182.714C214.694 186.08 211.922 188.852 208.556 188.852C205.19 188.852 202.418 186.08 202.418 182.714C202.418 179.348 205.19 176.576 208.556 176.576C212.021 176.576 214.694 179.348 214.694 182.714ZM214.694 166.081C214.694 169.447 211.922 172.219 208.556 172.219C205.19 172.219 202.418 169.447 202.418 166.081C202.418 162.715 205.19 159.943 208.556 159.943C212.021 159.844 214.694 162.616 214.694 166.081ZM220.535 217.463H230.039V219.146H220.535V217.463ZM234.593 217.463H242.018V219.146H234.593V217.463ZM245.483 167.467H249.84V169.15H245.483V167.467ZM234.593 200.831H242.018V202.514H234.593V200.831ZM220.535 162.913H263.601V164.596H220.535V162.913ZM220.535 179.546H263.601V181.229H220.535V179.546ZM220.535 196.178H263.601V197.861H220.535V196.178ZM220.535 212.909H263.601V214.592H220.535V212.909ZM220.535 200.831H230.039V202.514H220.535V200.831ZM234.593 167.467H242.018V169.15H234.593V167.467ZM245.483 184.199H249.84V185.882H245.483V184.199ZM220.535 167.467H230.039V169.15H220.535V167.467ZM245.483 200.831H249.84V202.514H245.483V200.831ZM245.483 217.463H249.84V219.146H245.483V217.463ZM234.593 184.199H242.018V185.882H234.593V184.199ZM220.535 184.199H230.039V185.882H220.535V184.199Z" fill="white"/>
<path d="M179.944 162.221V228.75C179.944 230.037 178.756 231.027 177.172 231.027H37.5796C36.0946 231.027 34.8076 230.037 34.8076 228.75V162.221C34.8076 160.934 35.9956 159.944 37.5796 159.944H177.172C178.756 159.845 179.944 160.934 179.944 162.221Z" fill="#D2E4FF"/>
<path d="M44.7076 172.319H170.143V172.814H44.7076V172.319ZM44.7076 182.318H170.143V182.813H44.7076V182.318ZM44.7076 192.317H170.143V192.812H44.7076V192.317ZM44.7076 202.316H170.143V202.811H44.7076V202.316ZM44.7076 212.216H170.143V212.711H44.7076V212.216ZM44.7076 222.216H170.143V222.711H44.7076V222.216Z" fill="#B5CFF4"/>
<path d="M148.66 168.457H155.194V222.512H148.66V168.457Z" fill="#6193F6"/>
<path d="M158.461 186.08H164.995V222.413H158.461V186.08Z" fill="#F2CB2A"/>
<path d="M115.791 198.455H122.325V222.414H115.791V198.455Z" fill="#6193F6"/>
<path d="M125.494 176.873H132.028V222.414H125.494V176.873Z" fill="#F2CB2A"/>
<path d="M82.8243 187.169H89.3584V222.414H82.8243V187.169Z" fill="#6193F6"/>
<path d="M92.6238 181.229H99.1579V222.513H92.6238V181.229Z" fill="#F2CB2A"/>
<path d="M49.9553 197.96H56.4894V222.413H49.9553V197.96Z" fill="#6193F6"/>
<path d="M59.6576 188.159H66.1917V222.414H59.6576V188.159Z" fill="#F2CB2A"/>
<path d="M177.965 144.202H133.117C131.335 144.202 129.85 142.717 129.85 140.935V96.0871C129.85 94.305 131.335 92.82 133.117 92.82H177.965C179.747 92.82 181.232 94.305 181.232 96.0871V140.935C181.232 142.717 179.747 144.202 177.965 144.202Z" fill="#6193F6"/>
<path opacity="0.1" d="M179.251 117.57L170.935 125.292C168.856 121.629 165.292 118.956 161.035 117.966C159.847 117.669 158.659 117.57 157.471 117.57C155.293 117.57 153.115 118.065 151.234 118.857L157.57 130.54C157.768 130.936 157.669 131.332 157.273 131.53C157.174 131.629 157.075 131.629 156.976 131.629C156.679 131.629 156.481 131.53 156.283 131.233L149.947 119.451C147.472 120.837 145.393 122.916 144.007 125.292L135.69 117.57C138.067 114.303 141.037 111.531 144.601 109.65L140.938 102.918C140.74 102.522 140.839 102.126 141.235 101.928C141.631 101.73 142.027 101.829 142.225 102.225L145.888 108.957C149.353 107.274 153.313 106.284 157.471 106.284C159.55 106.284 161.629 106.581 163.609 106.977C170.044 108.561 175.588 112.323 179.251 117.57Z" fill="black"/>
<path d="M161.727 106.185C159.747 105.69 157.668 105.492 155.589 105.492C151.134 105.492 146.976 106.581 143.313 108.462C139.452 110.442 136.185 113.313 133.71 116.779L142.026 124.501C143.61 121.828 145.887 119.65 148.659 118.264C150.738 117.175 153.114 116.68 155.589 116.68C156.777 116.68 158.064 116.779 159.153 117.076C163.41 118.066 166.974 120.739 169.053 124.402L177.369 116.68C173.607 111.432 168.063 107.67 161.727 106.185Z" fill="white"/>
<path d="M177.272 116.58L168.956 124.303C166.877 120.64 163.313 117.966 159.056 116.976C157.868 116.679 156.68 116.58 155.492 116.58C153.017 116.58 150.641 117.174 148.562 118.164L148.463 118.065L143.216 108.264C146.879 106.383 151.037 105.294 155.492 105.294C157.571 105.294 159.65 105.591 161.63 105.987C168.065 107.67 173.609 111.432 177.272 116.58Z" fill="#FF7545"/>
<path d="M154.897 130.738C154.6 130.738 154.402 130.639 154.204 130.342L138.958 102.027C138.76 101.631 138.859 101.235 139.255 101.037C139.651 100.839 140.047 100.938 140.245 101.334L155.59 129.649C155.788 130.045 155.69 130.441 155.294 130.639C155.194 130.738 154.996 130.738 154.897 130.738Z" fill="#060405"/>
<path opacity="0.05" d="M124.603 100.938V143.905C124.603 147.073 122.028 149.746 118.761 149.746H17.7795V95.1961H118.86C122.028 95.1961 124.603 97.7702 124.603 100.938Z" fill="black"/>
<path d="M121.731 98.3641V141.331C121.731 144.499 119.157 147.172 115.89 147.172H6.69073C3.52267 147.172 0.849609 144.598 0.849609 141.331V98.3641C0.849609 95.196 3.42367 92.6219 6.69073 92.6219H115.989C119.157 92.6219 121.731 95.196 121.731 98.3641Z" fill="#D2E4FF"/>
<path d="M30.4518 101.235V111.234C35.2039 111.234 39.164 115.095 39.164 119.946H49.1632C49.0642 109.551 40.748 101.235 30.4518 101.235Z" fill="white"/>
<path d="M49.0635 119.848C49.0635 130.144 40.7474 138.46 30.4512 138.46C25.4021 138.46 20.848 136.48 17.4819 133.213L24.5111 126.184C26.0951 127.669 28.1741 128.56 30.4512 128.56C35.2033 128.56 39.1633 124.699 39.1633 119.848H49.0635Z" fill="#F2CB2A"/>
<path d="M21.7397 119.847C21.7397 122.323 22.8287 124.6 24.5117 126.184L17.4826 133.213C14.0175 129.847 11.8395 125.095 11.8395 119.847C11.8395 109.551 20.1556 101.235 30.4518 101.235V111.234C25.6007 111.234 21.7397 115.095 21.7397 119.847Z" fill="#FF7545"/>
<path d="M101.535 113.611H58.2711C57.0831 113.611 56.1921 112.72 56.1921 111.532V107.077C56.1921 105.889 57.0831 104.997 58.2711 104.997H101.535C102.723 104.997 103.614 105.889 103.614 107.077V111.532C103.713 112.621 102.723 113.611 101.535 113.611ZM56.1921 119.848H110.94V123.016H56.1921V119.848ZM56.1921 126.778H110.94V129.946H56.1921V126.778ZM86.2886 133.708H89.4567V136.876H86.2886V133.708ZM56.1921 133.708H77.2795V136.876H56.1921V133.708Z" fill="white"/>
<path d="M254.955 62.9266C257.777 60.1041 257.777 55.528 254.955 52.7055C252.132 49.883 247.556 49.883 244.734 52.7055C241.911 55.528 241.911 60.1041 244.734 62.9266C247.556 65.7491 252.132 65.7491 254.955 62.9266Z" fill="white"/>
<path d="M251.048 68.0637H248.686C244.965 68.0637 241.595 69.5726 239.155 72.0105C238.038 73.129 237.116 74.4423 236.445 75.8952C235.847 77.1904 236.111 78.7278 237.096 79.7592C239.206 81.9672 241.882 83.6281 244.893 84.5082C246.471 84.9726 248.139 85.2197 249.867 85.2197C251.595 85.2197 253.265 84.9726 254.843 84.5082C257.852 83.6283 260.528 81.968 262.638 79.7617C263.638 78.7155 263.879 77.157 263.266 75.8455C261.12 71.2483 256.456 68.0637 251.048 68.0637Z" fill="white"/>
</svg>
