<svg width="25" height="25" viewBox="0 0 25 25" fill="none" xmlns="http://www.w3.org/2000/svg">
<path d="M17.3418 14.1582V20.1582M14.3418 17.1582H20.3418M6.3418 10.1582H8.3418C8.87223 10.1582 9.38094 9.94749 9.75601 9.57242C10.1311 9.19734 10.3418 8.68864 10.3418 8.1582V6.1582C10.3418 5.62777 10.1311 5.11906 9.75601 4.74399C9.38094 4.36892 8.87223 4.1582 8.3418 4.1582H6.3418C5.81136 4.1582 5.30266 4.36892 4.92758 4.74399C4.55251 5.11906 4.3418 5.62777 4.3418 6.1582V8.1582C4.3418 8.68864 4.55251 9.19734 4.92758 9.57242C5.30266 9.94749 5.81136 10.1582 6.3418 10.1582ZM16.3418 10.1582H18.3418C18.8722 10.1582 19.3809 9.94749 19.756 9.57242C20.1311 9.19734 20.3418 8.68864 20.3418 8.1582V6.1582C20.3418 5.62777 20.1311 5.11906 19.756 4.74399C19.3809 4.36892 18.8722 4.1582 18.3418 4.1582H16.3418C15.8114 4.1582 15.3027 4.36892 14.9276 4.74399C14.5525 5.11906 14.3418 5.62777 14.3418 6.1582V8.1582C14.3418 8.68864 14.5525 9.19734 14.9276 9.57242C15.3027 9.94749 15.8114 10.1582 16.3418 10.1582ZM6.3418 20.1582H8.3418C8.87223 20.1582 9.38094 19.9475 9.75601 19.5724C10.1311 19.1973 10.3418 18.6886 10.3418 18.1582V16.1582C10.3418 15.6278 10.1311 15.1191 9.75601 14.744C9.38094 14.3689 8.87223 14.1582 8.3418 14.1582H6.3418C5.81136 14.1582 5.30266 14.3689 4.92758 14.744C4.55251 15.1191 4.3418 15.6278 4.3418 16.1582V18.1582C4.3418 18.6886 4.55251 19.1973 4.92758 19.5724C5.30266 19.9475 5.81136 20.1582 6.3418 20.1582Z" stroke="#753EE9" stroke-width="2" stroke-linecap="round" stroke-linejoin="round"/>
</svg>
