<svg width="24" height="24" viewBox="0 0 24 24" fill="none" xmlns="http://www.w3.org/2000/svg">
<path d="M4.13904 21.3373C4.13904 17.6285 7.82862 14.6289 12.3711 14.6289M21.9545 21.3373L20.9961 20.3789M12.3711 11.7539C13.642 11.7539 14.8607 11.2491 15.7593 10.3505C16.658 9.45187 17.1628 8.23309 17.1628 6.96226C17.1628 5.69143 16.658 4.47265 15.7593 3.57404C14.8607 2.67543 13.642 2.17059 12.3711 2.17059C11.1003 2.17059 9.88151 2.67543 8.9829 3.57404C8.08429 4.47265 7.57945 5.69143 7.57945 6.96226C7.57945 8.23309 8.08429 9.45187 8.9829 10.3505C9.88151 11.2491 11.1003 11.7539 12.3711 11.7539ZM18.3128 20.7623C19.1261 20.7623 19.9061 20.4392 20.4812 19.8641C21.0564 19.2889 21.3795 18.5089 21.3795 17.6956C21.3795 16.8823 21.0564 16.1022 20.4812 15.5271C19.9061 14.952 19.1261 14.6289 18.3128 14.6289C17.4995 14.6289 16.7194 14.952 16.1443 15.5271C15.5692 16.1022 15.2461 16.8823 15.2461 17.6956C15.2461 18.5089 15.5692 19.2889 16.1443 19.8641C16.7194 20.4392 17.4995 20.7623 18.3128 20.7623Z" stroke="#753EE9" stroke-width="2" stroke-linecap="round" stroke-linejoin="round"/>
</svg>
