<svg width="25" height="25" viewBox="0 0 25 25" fill="none" xmlns="http://www.w3.org/2000/svg">
<path d="M7.3418 8.1582H17.3418M7.3418 12.1582H11.3418M12.3418 20.1582L8.3418 16.1582H5.3418C4.81136 16.1582 4.30266 15.9475 3.92758 15.5724C3.55251 15.1973 3.3418 14.6886 3.3418 14.1582V6.1582C3.3418 5.62777 3.55251 5.11906 3.92758 4.74399C4.30266 4.36892 4.81136 4.1582 5.3418 4.1582H19.3418C19.8722 4.1582 20.3809 4.36892 20.756 4.74399C21.1311 5.11906 21.3418 5.62777 21.3418 6.1582V14.1582C21.3418 14.6886 21.1311 15.1973 20.756 15.5724C20.3809 15.9475 19.8722 16.1582 19.3418 16.1582H16.3418L12.3418 20.1582Z" stroke="#753EE9" stroke-width="2" stroke-linecap="round" stroke-linejoin="round"/>
</svg>
