<svg width="25" height="25" viewBox="0 0 25 25" fill="none" xmlns="http://www.w3.org/2000/svg">
<path d="M11.3418 3.2132C9.65725 3.40145 8.06013 4.06152 6.73421 5.11743C5.40829 6.17335 4.40746 7.58219 3.84691 9.18182C3.28636 10.7814 3.18888 12.5068 3.56568 14.1594C3.94247 15.812 4.77824 17.3246 5.97679 18.5232C7.17533 19.7217 8.68794 20.5575 10.3405 20.9343C11.9931 21.3111 13.7185 21.2136 15.3181 20.6531C16.9178 20.0925 18.3266 19.0917 19.3825 17.7658C20.4384 16.4398 21.0985 14.8427 21.2868 13.1582H11.3418V3.2132Z" stroke="#753EE9" stroke-width="2" stroke-linecap="round" stroke-linejoin="round"/>
<path d="M20.8298 9.15823H15.3418V3.67023C16.6072 4.11916 17.7565 4.84476 18.7059 5.79417C19.6553 6.74357 20.3809 7.89284 20.8298 9.15823Z" stroke="#753EE9" stroke-width="2" stroke-linecap="round" stroke-linejoin="round"/>
</svg>
