<svg width="21" height="21" viewBox="0 0 21 21" fill="none" xmlns="http://www.w3.org/2000/svg">
<path d="M13.3418 6.1582C13.3418 6.95385 13.0257 7.71691 12.4631 8.27952C11.9005 8.84213 11.1374 9.1582 10.3418 9.1582C9.54615 9.1582 8.78309 8.84213 8.22048 8.27952C7.65787 7.71691 7.3418 6.95385 7.3418 6.1582C7.3418 5.36255 7.65787 4.59949 8.22048 4.03688C8.78309 3.47427 9.54615 3.1582 10.3418 3.1582C11.1374 3.1582 11.9005 3.47427 12.4631 4.03688C13.0257 4.59949 13.3418 5.36255 13.3418 6.1582ZM18.3418 8.1582C18.3418 8.68864 18.1311 9.19734 17.756 9.57242C17.3809 9.94749 16.8722 10.1582 16.3418 10.1582C15.8114 10.1582 15.3027 9.94749 14.9276 9.57242C14.5525 9.19734 14.3418 8.68864 14.3418 8.1582C14.3418 7.62777 14.5525 7.11906 14.9276 6.74399C15.3027 6.36892 15.8114 6.1582 16.3418 6.1582C16.8722 6.1582 17.3809 6.36892 17.756 6.74399C18.1311 7.11906 18.3418 7.62777 18.3418 8.1582ZM14.3418 15.1582C14.3418 14.0973 13.9204 13.0799 13.1702 12.3298C12.4201 11.5796 11.4027 11.1582 10.3418 11.1582C9.28093 11.1582 8.26352 11.5796 7.51337 12.3298C6.76322 13.0799 6.3418 14.0973 6.3418 15.1582V18.1582H14.3418V15.1582ZM6.3418 8.1582C6.3418 8.68864 6.13108 9.19734 5.75601 9.57242C5.38094 9.94749 4.87223 10.1582 4.3418 10.1582C3.81136 10.1582 3.30266 9.94749 2.92758 9.57242C2.55251 9.19734 2.3418 8.68864 2.3418 8.1582C2.3418 7.62777 2.55251 7.11906 2.92758 6.74399C3.30266 6.36892 3.81136 6.1582 4.3418 6.1582C4.87223 6.1582 5.38094 6.36892 5.75601 6.74399C6.13108 7.11906 6.3418 7.62777 6.3418 8.1582ZM16.3418 18.1582V15.1582C16.3432 14.1415 16.0851 13.1412 15.5918 12.2522C16.0351 12.1387 16.4985 12.128 16.9467 12.2209C17.3948 12.3138 17.8157 12.5078 18.1775 12.7881C18.5392 13.0684 18.8321 13.4277 19.0339 13.8384C19.2357 14.2492 19.341 14.7006 19.3418 15.1582V18.1582H16.3418ZM5.0918 12.2522C4.59854 13.1413 4.3404 14.1415 4.3418 15.1582V18.1582H1.3418V15.1582C1.3416 14.7002 1.44626 14.2483 1.64774 13.8371C1.84923 13.4258 2.14219 13.0661 2.50418 12.7856C2.86617 12.5051 3.28758 12.3112 3.73611 12.2187C4.18464 12.1263 4.64838 12.1377 5.0918 12.2522Z" fill="#753EE9"/>
</svg>
