<svg width="25" height="25" viewBox="0 0 25 25" fill="none" xmlns="http://www.w3.org/2000/svg">
<path fill-rule="evenodd" clip-rule="evenodd" d="M1.63485 6.80715C1.20091 7.07836 0.843082 7.45549 0.595015 7.90307C0.346948 8.35064 0.216796 8.85396 0.216797 9.36568V21.2713C0.216797 22.0715 0.534673 22.8389 1.1005 23.4047C1.66632 23.9706 2.43374 24.2884 3.23393 24.2884H21.3368C22.1369 24.2884 22.9044 23.9706 23.4702 23.4047C24.036 22.8389 24.3539 22.0715 24.3539 21.2713V9.36568C24.3539 8.85396 24.2237 8.35064 23.9757 7.90307C23.7276 7.45549 23.3698 7.07836 22.9358 6.80715L13.8844 1.15002C13.4049 0.850318 12.8508 0.691406 12.2853 0.691406C11.7199 0.691406 11.1658 0.850318 10.6863 1.15002L1.63485 6.80715ZM5.57976 10.4624C5.41493 10.3525 5.23006 10.2761 5.03571 10.2375C4.84135 10.199 4.64132 10.1992 4.44702 10.238C4.25273 10.2768 4.06798 10.3535 3.90332 10.4637C3.73866 10.5739 3.59732 10.7155 3.48737 10.8803C3.37742 11.0451 3.30101 11.23 3.26251 11.4243C3.22401 11.6187 3.22416 11.8187 3.26296 12.013C3.34133 12.4054 3.57237 12.7506 3.90525 12.9727L11.4481 18.0007C11.696 18.1661 11.9873 18.2544 12.2853 18.2544C12.5834 18.2544 12.8747 18.1661 13.1226 18.0007L20.6654 12.9727C20.9983 12.7506 21.2294 12.4054 21.3077 12.013C21.3861 11.6206 21.3054 11.2132 21.0833 10.8803C20.8613 10.5474 20.5161 10.3164 20.1237 10.238C19.7313 10.1596 19.3238 10.2404 18.9909 10.4624L12.2853 14.9323L5.57976 10.4624Z" fill="white"/>
</svg>
