<svg width="20" height="20" viewBox="0 0 20 20" fill="none" xmlns="http://www.w3.org/2000/svg">
<path d="M9.81445 13.7446C12.0236 13.7446 13.8145 11.9537 13.8145 9.74463C13.8145 7.53549 12.0236 5.74463 9.81445 5.74463C7.60531 5.74463 5.81445 7.53549 5.81445 9.74463C5.81445 11.9537 7.60531 13.7446 9.81445 13.7446Z" stroke="#353434" stroke-width="1.5" stroke-linecap="round" stroke-linejoin="round"/>
<path d="M0.814453 13.7446V5.74463C0.814453 2.98321 3.05303 0.744629 5.81445 0.744629H13.8145C16.5759 0.744629 18.8145 2.98321 18.8145 5.74463V13.7446C18.8145 16.506 16.5759 18.7446 13.8145 18.7446H5.81445C3.05303 18.7446 0.814453 16.506 0.814453 13.7446Z" stroke="#353434" stroke-width="1.5"/>
<path d="M15.3145 5.25476L15.3245 5.24365" stroke="#353434" stroke-width="1.5" stroke-linecap="round" stroke-linejoin="round"/>
</svg>
