<svg width="29" height="23" viewBox="0 0 29 23" fill="none" xmlns="http://www.w3.org/2000/svg">
<path d="M1.53141 17.3159L7.56898 4.06489C8.24089 2.5902 10.2958 2.48502 11.1148 3.88339L13.8383 8.53374C14.1672 9.09523 14.2023 9.78159 13.9325 10.3737L9.1813 20.8015C8.72333 21.8066 7.53723 22.2502 6.53208 21.7922L2.52215 19.9652C1.517 19.5072 1.07343 18.3211 1.53141 17.3159Z" fill="#753EE9"/>
<path d="M28.0228 17.0354L21.4366 4.04825C20.7036 2.60294 18.6461 2.58374 17.8863 4.01512L15.3595 8.77525C15.0544 9.34999 15.048 10.0372 15.3423 10.6176L20.5252 20.8376C21.0248 21.8227 22.2284 22.2163 23.2136 21.7167L27.1436 19.7237C28.1287 19.2241 28.5224 18.0205 28.0228 17.0354Z" fill="#753EE9"/>
</svg>
