<svg width="31" height="24" viewBox="0 0 31 24" fill="none" xmlns="http://www.w3.org/2000/svg">
<path d="M2.0965 0.828515C1.85157 0.93164 1.63243 1.17656 1.52931 1.42148C1.47775 1.55039 1.45197 2.62031 1.45197 4.52813V7.44141L2.10939 7.78945C2.47032 7.98281 2.94728 8.25352 3.17931 8.39531L3.59181 8.65313V7.91836V7.18359H12.9504L22.2961 7.1707L22.6313 6.60352C23.3274 5.3918 24.5133 4.50234 25.8797 4.12852L26.1762 4.05117L26.1504 2.72344C26.1246 1.27969 26.1117 1.22812 25.6606 0.892968C25.4801 0.751171 25.4801 0.751172 13.8785 0.738281C4.33946 0.738281 2.26407 0.751171 2.0965 0.828515ZM5.75743 3.96094V5.03086H4.68751H3.61759V3.96094V2.89102H4.68751H5.75743V3.96094ZM10.0629 3.96094V5.03086H8.99298H7.92306V3.96094V2.89102H8.99298H10.0629V3.96094ZM14.3555 3.96094V5.03086H13.2856H12.2156V3.96094V2.89102H13.2856H14.3555V3.96094Z" fill="white"/>
<path d="M26.4598 6.21661C24.7582 6.66778 23.7012 8.44669 24.1395 10.1096C24.5906 11.824 26.3438 12.894 28.0324 12.4557C29.7469 12.0045 30.8168 10.2514 30.3785 8.5756C29.9402 6.83536 28.1484 5.76544 26.4598 6.21661Z" fill="white"/>
<path d="M0.755859 8.66623C0.639843 8.69201 0.446484 8.83381 0.317578 8.96271C0.111328 9.16896 0.0855465 9.24631 0.0597652 9.62014C0.033984 9.96818 0.0597652 10.0713 0.188671 10.2647C0.266015 10.3936 0.446484 10.5483 0.57539 10.6127C1.05234 10.8705 1.6582 10.7158 1.96758 10.2647C2.09648 10.0713 2.12227 9.96818 2.09648 9.62014C2.0707 9.2592 2.03203 9.16897 1.87734 8.9885C1.56797 8.64045 1.20703 8.53732 0.755859 8.66623Z" fill="white"/>
<path d="M4.24921 10.9733C3.87538 11.1409 3.65624 11.4374 3.63046 11.837C3.59179 12.3268 3.74647 12.6491 4.13319 12.8682C4.85507 13.2936 5.71874 12.7909 5.73163 11.9401C5.71874 11.1924 4.93241 10.6768 4.24921 10.9733Z" fill="white"/>
<path d="M21.4195 11.025C20.8652 11.3086 20.6461 12.082 20.9941 12.5461C21.4969 13.2164 22.3348 13.1777 22.8117 12.4816C22.9406 12.2883 22.9664 12.1852 22.9406 11.8887C22.9148 11.6824 22.8504 11.4633 22.7731 11.3473C22.6055 11.1281 22.1156 10.8574 21.8707 10.8574C21.7934 10.8832 21.5742 10.9477 21.4195 11.025Z" fill="white"/>
<path d="M1.47774 17.522C1.50353 22.5493 1.50352 22.6267 1.64532 22.8071C1.72267 22.9103 1.86446 23.0521 1.96759 23.1294C2.14806 23.2712 2.2254 23.2712 6.54376 23.297C8.9672 23.3099 10.9395 23.2841 10.9395 23.2583C10.9395 23.1552 10.5914 22.356 10.2949 21.7501L9.99845 21.1571H6.80157H3.61759V17.5091V13.861L2.86993 13.3196C2.10938 12.7782 1.56798 12.4302 1.50353 12.4302C1.47774 12.4302 1.46485 14.7247 1.47774 17.522Z" fill="white"/>
<path d="M24.0363 17.3932V21.1572H20.2981H16.5727L16.1473 22.0467C15.9152 22.5365 15.6961 23.0264 15.6832 23.1295L15.6317 23.31L20.5688 23.2971C25.4414 23.2713 25.5188 23.2713 25.6992 23.1295C25.8024 23.0521 25.9442 22.9104 26.0215 22.8072C26.1633 22.6268 26.1633 22.5494 26.1891 18.6049L26.202 14.5959L25.8668 14.5057C25.5188 14.4154 24.6551 14.0029 24.2684 13.758L24.0492 13.6162L24.0363 17.3932Z" fill="white"/>
<path d="M7.38165 13.8351C6.89181 14.0929 6.68556 14.7504 6.94337 15.2402C7.39454 16.1168 8.65782 15.9621 8.91563 15.0082C9.14766 14.1316 8.19376 13.3968 7.38165 13.8351Z" fill="white"/>
<path d="M18.2227 13.7964C17.9777 13.9125 17.7586 14.1703 17.6555 14.4796C17.4234 15.1757 18.0551 15.9234 18.7898 15.8332C19.7824 15.7171 20.0918 14.4925 19.2539 13.8867C19.0219 13.7191 18.4934 13.6675 18.2227 13.7964Z" fill="white"/>
<path d="M10.4496 17.2899C9.93399 17.4833 9.68907 17.8829 9.75352 18.4372C9.81798 18.9786 10.2434 19.3396 10.8106 19.3396C11.5969 19.3396 12.0996 18.5403 11.7516 17.8314C11.5066 17.3415 10.9524 17.1095 10.4496 17.2899Z" fill="white"/>
<path d="M15.5027 17.2642C14.7551 17.4834 14.4715 18.3986 14.9742 18.9658C15.232 19.2623 15.5027 19.3654 15.9023 19.3267C16.5211 19.2623 16.8949 18.8111 16.8305 18.1795C16.7918 17.767 16.6242 17.535 16.2375 17.3287C15.9281 17.1869 15.7863 17.174 15.5027 17.2642Z" fill="white"/>
<path d="M12.8215 21.2858C12.5379 21.4405 12.3059 21.7627 12.2414 22.085C12.177 22.4202 12.3703 22.8713 12.6668 23.1034C12.9762 23.3354 13.5691 23.3612 13.8656 23.142C14.523 22.6522 14.523 21.8272 13.8785 21.3502C13.6207 21.144 13.118 21.1182 12.8215 21.2858Z" fill="white"/>
</svg>
