<svg width="93" height="86" viewBox="0 0 93 86" fill="none" xmlns="http://www.w3.org/2000/svg">
<path d="M89.9666 42.885C89.9666 20.6517 70.5623 2.61328 46.6454 2.61328C22.7285 2.61328 3.32422 20.6517 3.32422 42.885C3.32422 65.1184 22.7285 83.1567 46.6454 83.1567C70.5623 83.1567 89.9666 65.1184 89.9666 42.885Z" stroke="white" stroke-width="5" stroke-miterlimit="10"/>
<path d="M37.6935 59.3378L63.517 44.8358C63.8769 44.6319 64.1744 44.3454 64.3809 44.0038C64.5873 43.6622 64.6957 43.2769 64.6957 42.8851C64.6957 42.4933 64.5873 42.108 64.3809 41.7664C64.1744 41.4248 63.8769 41.1383 63.517 40.9344L37.6935 26.4324C37.3234 26.2263 36.9009 26.1154 36.4694 26.1111C36.038 26.1068 35.613 26.2093 35.2382 26.4081C34.8635 26.6068 34.5523 26.8947 34.3367 27.2421C34.121 27.5896 34.0087 27.9841 34.0112 28.3852V57.385C34.0087 57.7861 34.121 58.1806 34.3367 58.5281C34.5523 58.8755 34.8635 59.1634 35.2382 59.3621C35.613 59.5609 36.038 59.6634 36.4694 59.6591C36.9009 59.6548 37.3234 59.5439 37.6935 59.3378Z" fill="white"/>
</svg>
